<svg width="92" height="50" viewBox="0 0 92 50" fill="none" xmlns="http://www.w3.org/2000/svg">
<path d="M49.6436 37.4261L49.2281 30.4951L46.2057 37.4261H45.179L42.1404 30.4951L41.6759 37.4261H39.5566L40.3803 26.5725H42.5951L45.7989 33.7188L48.8849 26.5725H51.0553L51.8788 37.4261H49.6436Z" fill="#1C428B"/>
<path d="M0 37.4261V26.5725H7.62099L7.05824 28.3747H2.25864V31.2094H6.70313V33.0022H2.25864V37.4261H0Z" fill="#1C428B"/>
<path d="M57.6775 37.4261V26.5725H64.9831L64.4207 28.3745H59.9371V30.8707H64.3613V32.6642H59.9371V35.5732H64.8504V37.4261H57.6775Z" fill="#1C428B"/>
<path d="M17.0882 33.5267L15.4673 29.3018L13.8685 33.5267H17.0882ZM18.4865 37.4263L17.6692 35.232H13.2973L12.4908 37.4263H10.1901L14.4991 26.5725H16.6099L20.9644 37.4263H18.4865Z" fill="#1C428B"/>
<path d="M74.3 31.5378C75.734 31.5378 76.3235 30.8118 76.3235 29.9308C76.3235 29.0501 75.7391 28.3234 74.317 28.3234H72.9407V31.5378H74.3ZM76.8637 37.4264L73.9526 33.255H72.9407V37.4264H70.6727V26.5725H74.5295C77.5422 26.5725 78.6044 28.2531 78.6044 29.8465C78.6044 31.2876 77.7321 32.3906 76.3156 32.8853L79.6236 37.4264H76.8637Z" fill="#1C428B"/>
<path d="M29.374 31.5378C30.808 31.5378 31.3977 30.8118 31.3977 29.9308C31.3977 29.0501 30.8133 28.3234 29.3914 28.3234H28.0149V31.5378H29.374ZM31.938 37.4264L29.0269 33.255H28.0149V37.4264H25.7472V26.5725H29.604C32.6168 26.5725 33.6788 28.2531 33.6788 29.8465C33.6788 31.2876 32.807 32.3906 31.3905 32.8853L34.6978 37.4264H31.938Z" fill="#1C428B"/>
<path d="M87.916 37.5947C86.4615 37.5947 85.2485 37.2529 83.8607 36.3495L84.8622 34.6458C85.9232 35.3542 86.7156 35.701 87.916 35.701C89.1047 35.701 89.7593 35.2302 89.7593 34.4229C89.7593 33.6672 89.0253 33.3631 88.603 33.2069C88.1813 33.0509 87.1977 32.6892 86.5071 32.4222C85.0993 31.8793 84.3888 30.9107 84.3888 29.5591C84.3888 28.1029 85.4146 26.4031 88.3044 26.4031C89.2606 26.4031 90.458 26.655 91.2347 26.9683V29.0708C90.365 28.562 89.32 28.1953 88.2378 28.1953C87.488 28.1953 86.597 28.4189 86.597 29.3564C86.597 30.0649 87.255 30.3597 87.656 30.518C88.1036 30.6946 89.0981 31.0587 89.7642 31.3059C91.2421 31.8541 91.9998 32.8211 91.9998 34.1859C91.9998 35.8827 90.7372 37.5947 87.916 37.5947Z" fill="#1C428B"/>
<path d="M72.6182 49.3665V43.3972H76.6634L76.3683 44.3289H73.8224V45.7754H76.3251V46.7159H73.8224V48.4074H76.6015V49.3665H72.6182Z" fill="#E11631"/>
<path d="M15.3339 49.3665V43.3972H16.5377V49.3665H15.3339Z" fill="#E11631"/>
<path d="M23.5774 49.3665L20.7211 45.3086V49.3665H19.584V43.3972H20.655L23.462 47.3722V43.3972H24.5985V49.3665H23.5774Z" fill="#E11631"/>
<path d="M61.0072 49.3665L58.1491 45.3086V49.3665H57.0128V43.3972H58.084L60.8911 47.3722V43.3972H62.0274V49.3665H61.0072Z" fill="#E11631"/>
<path d="M38.015 43.3972H39.2182V46.9982C39.2182 47.7968 39.0944 48.342 38.6833 48.7923C38.2821 49.2347 37.6905 49.4596 36.8016 49.4596C35.9228 49.4596 35.321 49.2439 34.92 48.7923C34.5096 48.3511 34.3761 47.8064 34.3761 47.0073V43.3972H35.5797V47.063C35.5797 47.5804 35.6366 47.8156 35.8276 48.0413C36.0282 48.2759 36.3429 48.4169 36.7922 48.4169C37.2512 48.4169 37.5657 48.2759 37.7663 48.0413C37.9575 47.8156 38.015 47.5804 38.015 47.063V43.3972Z" fill="#E11631"/>
<path d="M44.9213 44.4979C44.7109 44.3566 44.4822 44.3009 44.1472 44.3009H43.4598V46.1614H44.1376C44.4822 46.1614 44.7109 46.1048 44.9213 45.9637C45.1313 45.8227 45.2844 45.5504 45.2844 45.2314C45.2844 44.9115 45.1313 44.6392 44.9213 44.4979ZM45.5469 49.3665L43.9843 47.0446H43.4598V49.3665H42.2557V43.3972H44.2807C44.8925 43.3972 45.4368 43.5195 45.8097 43.8014C46.2007 44.102 46.478 44.5734 46.478 45.1839C46.478 46.0299 45.9716 46.6125 45.236 46.8564L47.0033 49.3665H45.5469Z" fill="#E11631"/>
<path d="M29.6742 43.3022C28.0509 43.3022 27.4963 44.2531 27.4963 45.0238C27.4963 45.8977 28.06 46.3494 28.6712 46.5839C28.8337 46.6497 29.6076 46.9216 29.8459 47.0162C30.0852 47.1101 30.5341 47.2794 30.5341 47.7306C30.5341 48.1815 30.1708 48.4636 29.4549 48.4636C28.738 48.4636 28.2662 48.2373 27.7399 47.8912L27.2103 48.7918C27.827 49.1926 28.5385 49.4596 29.4549 49.4596C31.1069 49.4596 31.7279 48.4545 31.7279 47.5992C31.7279 46.9312 31.3932 46.3585 30.4864 46.0296C30.3141 45.9634 29.5498 45.691 29.3305 45.6062C29.1105 45.513 28.6712 45.3528 28.6712 44.9111C28.6712 44.4695 29.0153 44.2431 29.6359 44.2431C30.1836 44.2431 30.7596 44.4054 31.295 44.7043V43.6056C30.9042 43.4516 30.233 43.3022 29.6742 43.3022Z" fill="#E11631"/>
<path d="M67.7571 43.3022C66.1743 43.3022 64.7751 44.4036 64.7751 46.3773C64.7751 48.3507 66.0307 49.4596 67.7099 49.4596C68.5404 49.4596 69.235 49.243 69.8518 48.8815L69.3992 47.899C68.9544 48.2063 68.4269 48.3883 67.7955 48.3883C66.7354 48.3883 65.9971 47.58 65.9971 46.3585C65.9971 45.1364 66.7639 44.3372 67.8151 44.3372C68.5451 44.3372 69.1124 44.5167 69.5981 44.8116V43.6277C69.0845 43.4288 68.5557 43.3022 67.7571 43.3022Z" fill="#E11631"/>
<path d="M50.862 47.1952L51.7251 44.7723L52.601 47.1952H50.862ZM53.3604 49.3665H54.6407L52.3165 43.3972H51.2281L48.9288 49.3665H50.1128L50.5413 48.1452H52.9258L53.3604 49.3665Z" fill="#E11631"/>
<path d="M45.99 0.540527C34.6283 0.540527 25.2905 9.82658 25.2905 21.2407V22.2264H42.3577C43.3645 23.2137 44.5575 24.0385 45.99 24.6782C47.4224 24.0385 48.6151 23.2137 49.6213 22.2264H66.6891V21.2407C66.6891 9.82658 57.3509 0.540527 45.99 0.540527Z" fill="white"/>
<path d="M45.9913 23.5915C50.4553 21.4345 52.048 17.3624 52.2637 12.5786H45.9913V23.5915Z" fill="#A20F30"/>
<path d="M45.9902 23.5915C41.5258 21.4345 39.9329 17.3624 39.7174 12.5786H45.9902V23.5915Z" fill="#E11631"/>
<path d="M36.8881 21.2343C35.6536 20.4453 34.4821 19.5675 33.4906 18.77C29.5597 19.8395 26.2798 21.2345 26.2798 21.2345L36.8881 21.2343ZM65.7028 21.2345C65.7028 21.2345 62.4242 19.8395 58.4916 18.77C57.5003 19.5675 56.3288 20.4453 55.0962 21.2343L65.7028 21.2345ZM38.6269 15.883C38.0915 14.5169 37.6588 13.1186 37.3261 11.8905C33.5466 10.4574 30.048 9.6458 30.048 9.6458C30.0476 9.64601 31.8822 12.704 34.4323 15.8777C35.7017 15.8166 37.1651 15.7962 38.6269 15.8832V15.883ZM53.3562 15.883C54.8186 15.7961 56.282 15.8165 57.5514 15.8774C60.1019 12.7038 61.9363 9.64577 61.9361 9.64557C61.9361 9.64557 58.4358 10.4571 54.6582 11.8903C54.3234 13.1184 53.8924 14.5167 53.3562 15.8828V15.883ZM48.8054 12.5758C49.9374 11.6459 51.1319 10.8011 52.1956 10.106C52.3934 6.03666 52.0818 2.48438 52.0818 2.48438C52.0818 2.48438 49.7285 5.19379 47.5118 8.58211C47.9646 9.76911 48.4359 11.1567 48.8053 12.5758H48.8054ZM39.9026 2.48438C39.9026 2.48438 42.2556 5.19379 44.472 8.58211C44.0195 9.76911 43.5484 11.1567 43.1787 12.5758C42.0467 11.6459 40.8503 10.8011 39.7866 10.106C39.5904 6.03666 39.9026 2.48438 39.9026 2.48438" fill="#A6C3E9"/>
<path d="M65.6966 21.2349C65.6953 16.9022 64.299 12.898 61.9303 9.64746C61.9275 9.65163 60.0957 12.7044 57.5452 15.8781C59.7756 15.9871 61.413 16.2226 61.413 16.2226C60.3943 17.1967 59.5516 17.9418 58.4854 18.7704C62.418 19.8398 65.6966 21.2349 65.6966 21.2349Z" fill="#1C428B"/>
<path d="M61.9349 9.6458C59.5128 6.32179 56.0765 3.78105 52.0807 2.48438C52.0807 2.48438 52.3922 6.03666 52.1945 10.106C54.0636 8.883 55.5242 8.11168 55.5242 8.11168C55.5242 8.11168 55.2427 9.73928 54.6571 11.8905C58.4346 10.4574 61.935 9.6458 61.935 9.6458" fill="#1C428B"/>
<path d="M39.9075 2.48626C39.9075 2.48626 42.2604 5.19568 44.4768 8.58399C45.2631 6.51237 45.9958 5.01553 45.9958 5.01553C45.9958 5.01553 46.7303 6.51237 47.5167 8.58399C49.7334 5.19568 52.0867 2.48626 52.0867 2.48626C50.1674 1.86445 48.1209 1.52734 45.9965 1.52734C43.8714 1.52734 41.8247 1.86445 39.9075 2.48626Z" fill="#1C428B"/>
<path d="M30.0476 9.64746C27.6785 12.898 26.2806 16.9022 26.2798 21.2349C26.2798 21.2349 29.5597 19.8398 33.4906 18.7704C32.4246 17.9418 31.5834 17.1967 30.5646 16.2226C30.5646 16.2226 32.2027 15.9871 34.4323 15.8781C31.8822 12.7044 30.0501 9.6513 30.0476 9.64746Z" fill="#1C428B"/>
<path d="M30.0456 9.6458C30.0456 9.6458 33.5442 10.4574 37.3237 11.8905C36.7375 9.73928 36.4559 8.11168 36.4559 8.11168C36.4559 8.11168 37.9176 8.883 39.7842 10.106C39.588 6.03666 39.9002 2.48438 39.9002 2.48438C35.9039 3.78105 32.4657 6.32179 30.0455 9.6458" fill="#1C428B"/>
<path d="M91.0234 23.211H90.8475V23.6141H91.0234C91.159 23.6141 91.2434 23.55 91.2434 23.4105C91.2461 23.2755 91.1591 23.211 91.0234 23.211ZM91.2804 24.2029L91.0095 23.7493H90.8507V24.2029H90.6747V23.0757H91.04C91.2468 23.0757 91.4263 23.1805 91.4263 23.4105C91.4263 23.6443 91.2399 23.7189 91.1927 23.7291L91.4834 24.2029H91.2804ZM91.0199 22.7978C90.5455 22.7978 90.1773 23.1705 90.1773 23.6411C90.1773 24.1149 90.5455 24.4872 91.0199 24.4872C91.4938 24.4872 91.8626 24.1149 91.8626 23.6411C91.8626 23.1705 91.4938 22.7978 91.0199 22.7978ZM91.0199 24.6194C90.4744 24.6194 90.041 24.1895 90.041 23.6443C90.041 23.096 90.4744 22.666 91.0199 22.666C91.5649 22.666 91.9944 23.096 91.9944 23.6411C91.9944 24.1895 91.5649 24.6194 91.0199 24.6194Z" fill="#1C428B"/>
</svg>
