<svg width="140" height="20" viewBox="0 0 140 20" fill="none" xmlns="http://www.w3.org/2000/svg">
<path d="M10.6634 1.74435C10.4069 1.74435 10.1504 1.79566 9.9965 2.00086L1.27535 10.8759C0.864947 11.2863 0.916248 11.9532 1.37796 12.4662C1.37796 12.4662 1.58316 12.7227 1.99357 13.1844C2.45527 13.6462 2.71178 13.4923 3.17349 13.1844C3.63519 12.8253 10.0478 8.41347 10.0478 8.41347C10.5608 8.05436 10.8173 8.10566 11.3816 8.41347C11.3816 8.41347 17.7942 12.8253 18.2046 13.1331C18.6663 13.441 18.9228 13.5949 19.3846 13.1331C19.8463 12.6714 20.0002 12.4149 20.0002 12.4149C20.4619 11.9532 20.4619 11.235 20.1028 10.8246L11.3816 1.94956C11.1764 1.79566 10.9712 1.74435 10.6634 1.74435C10.7147 1.74435 10.7147 1.74435 10.6634 1.74435C10.7147 1.74435 10.6634 1.74435 10.6634 1.74435Z" fill="url(#paint0_linear_303_24111)"/>
<path d="M10.2088 11.1323L2.92403 16.1598C2.61623 16.4676 2.61623 17.0832 2.97533 17.4936C2.97533 17.4936 3.12923 17.6988 3.48834 18.0579C3.59094 18.1605 3.84745 18.3657 4.20655 18.2631C5.69428 17.7501 8.92623 16.365 9.90095 15.9546C10.2088 15.852 10.3627 15.8007 10.5679 15.8007C10.7731 15.8007 10.927 15.852 11.2348 15.9546C12.2608 16.365 15.4414 17.7501 16.9292 18.2631C17.3396 18.3657 17.5961 18.1605 17.6474 18.0579C18.0065 17.6988 18.1604 17.4936 18.1604 17.4936C18.5195 17.0832 18.5708 16.5189 18.2117 16.1598L10.9783 11.1836C10.7731 11.081 10.6192 10.9784 10.4653 10.9784C10.5166 10.9784 10.3627 11.0297 10.2088 11.1323Z" fill="url(#paint1_linear_303_24111)"/>
<path opacity="0.5" d="M11.1785 11.1322C10.8194 10.8757 10.5629 10.8757 10.2038 11.1322L3.02169 16.1597C2.71388 16.4675 2.71388 17.0831 3.07299 17.4935C3.07299 17.4935 3.22689 17.6987 3.586 18.0578C3.6886 18.1604 3.9451 18.3656 4.30421 18.263C5.79193 17.75 8.92128 16.3649 9.9473 15.9544C10.0499 15.9031 10.2038 15.8518 10.3064 15.8518C10.3064 15.8518 11.7428 12.6712 14.3592 13.4407L11.1785 11.1322Z" fill="#100050"/>
<path d="M34.3192 15.6955H30.9334C29.6509 15.6955 28.7274 15.439 28.1631 14.926C27.5988 14.413 27.291 13.6435 27.291 12.5149V4.30673H29.497V12.5149C29.497 12.9766 29.5996 13.2844 29.8048 13.4383C30.01 13.5922 30.3691 13.6948 30.9334 13.6948H34.3192V15.6955Z" fill="#100050"/>
<path d="M43.6086 15.6955H39.5558C38.2733 15.6955 37.3499 15.4903 36.8369 15.0286C36.3239 14.5669 36.0674 13.7974 36.0674 12.6688V4.30673H43.6086V6.30747H38.3246V8.97511H42.0183L41.8644 10.9758H38.3246V12.5149C38.3246 12.9766 38.4272 13.2844 38.6324 13.4383C38.8376 13.5922 39.1967 13.6948 39.761 13.6948H43.6086V15.6955Z" fill="#100050"/>
<path d="M54.4327 15.6955H52.1242L51.4573 13.7461H47.6097L46.9941 15.6955H44.6855L48.3279 5.23015C48.4818 4.87104 48.687 4.61454 48.8409 4.46063C49.0974 4.35803 49.3539 4.30673 49.6104 4.30673C49.9182 4.30673 50.1234 4.35803 50.3286 4.51194C50.4825 4.61454 50.6877 4.87104 50.7903 5.28145L54.4327 15.6955ZM50.9956 11.848L49.6617 7.33348L48.2253 11.848H50.9956Z" fill="#100050"/>
<path d="M64.8893 4.30673V14.5669C64.8893 14.926 64.7867 15.2338 64.5815 15.4903C64.3763 15.7468 64.1198 15.8494 63.812 15.8494C63.0938 15.8494 62.4782 15.439 62.0165 14.5669L58.0663 8.4108V15.7468H55.8604V4.30673H58.015L62.6834 11.7967V4.30673H64.8893Z" fill="#100050"/>
<path d="M74.8983 12.3103C74.8983 13.3876 74.4879 14.2597 73.7184 14.8754C72.9489 15.491 71.9228 15.7988 70.6916 15.7988C69.7169 15.7988 68.7935 15.5423 67.8701 14.978C67.4084 14.7214 67.0493 14.311 66.7415 13.798C66.4337 13.285 66.3311 12.7207 66.3311 12.0538L68.3318 11.9512C68.3318 12.5155 68.5883 12.9772 69.05 13.285C69.563 13.5928 70.076 13.7467 70.6916 13.7467C72.0255 13.7467 72.6924 13.285 72.6924 12.3616C72.6924 11.5921 72.2307 11.1304 71.3072 10.9765L69.4604 10.7713C68.537 10.6174 67.8188 10.3096 67.2545 9.79657C66.6902 9.28356 66.4337 8.51405 66.4337 7.53933C66.4337 6.56461 66.8441 5.7438 67.6136 5.12819C68.3831 4.51258 69.3578 4.15347 70.589 4.15347C71.7689 4.15347 72.7437 4.46128 73.4619 5.07689C74.1801 5.6925 74.5392 6.46201 74.5392 7.38543L72.5385 7.48803C72.3333 6.56461 71.7176 6.10291 70.6403 6.10291C69.9734 6.10291 69.4604 6.25681 69.1013 6.51331C68.7422 6.76982 68.537 7.12892 68.537 7.48803C68.537 7.84713 68.6909 8.15494 68.9474 8.36014C69.2039 8.56535 69.563 8.71925 69.9221 8.77055L71.7689 8.97575C73.8723 9.28356 74.8983 10.4122 74.8983 12.3103Z" fill="#3E24D3"/>
<path d="M84.0793 6.25616H81.0525V15.6955H78.7953V6.25616H75.7686V4.30673H84.0793V6.25616Z" fill="#3E24D3"/>
<path d="M94.4966 15.6961H92.1881L91.5725 13.7467H87.7249L87.1093 15.6961H84.8008L88.4431 5.23073C88.597 4.87162 88.8022 4.61512 88.9561 4.46122C89.1613 4.30731 89.4179 4.25601 89.6744 4.25601C89.9822 4.25601 90.1874 4.30731 90.3926 4.46122C90.5465 4.56382 90.7517 4.82032 90.8543 5.23073L94.4966 15.6961ZM91.0082 11.8485L89.6744 7.33406L88.2892 11.8485H91.0082Z" fill="#3E24D3"/>
<path d="M103.571 6.25617H99.5695C99.1077 6.25617 98.7486 6.35877 98.5947 6.51267C98.3895 6.71787 98.3382 7.02568 98.3382 7.43609V9.02641H102.545L102.391 11.0271H98.3895V15.6442H96.1836V6.61527C96.1836 5.79446 96.3888 5.17885 96.7479 4.81974C97.107 4.46063 97.7739 4.30673 98.646 4.30673H103.725V6.25617H103.571Z" fill="#3E24D3"/>
<path d="M113.015 6.25617H109.014C108.552 6.25617 108.193 6.35877 108.039 6.51267C107.834 6.71787 107.783 7.02568 107.783 7.43609V9.02641H111.989L111.835 11.0271H107.731V15.6442H105.525V6.61527C105.525 5.79446 105.731 5.17885 106.09 4.81974C106.449 4.46063 107.116 4.30673 107.988 4.30673H113.067V6.25617H113.015Z" fill="#3E24D3"/>
<path d="M117.169 4.30673H114.963V15.6955H117.169V4.30673Z" fill="#3E24D3"/>
<path d="M128.768 4.30673V14.5669C128.768 14.926 128.666 15.2338 128.46 15.4903C128.255 15.7468 127.999 15.8494 127.691 15.8494C126.973 15.8494 126.357 15.439 125.895 14.5669L121.945 8.4108V15.7468H119.739V4.30673H121.894L126.562 11.7967V4.30673H128.768Z" fill="#3E24D3"/>
<path d="M130.351 10.309V8.92387C130.351 7.43615 130.761 6.25623 131.53 5.43541C132.3 4.6146 133.377 4.20419 134.762 4.20419C136.148 4.20419 137.225 4.6146 138.097 5.43541C138.661 5.99972 138.969 6.92314 138.969 8.10306H136.866C136.866 6.82054 136.199 6.20493 134.814 6.20493C134.403 6.20493 134.044 6.30753 133.788 6.46143C133.48 6.61533 133.275 6.82054 133.172 6.97444C133.018 7.17964 132.916 7.48745 132.864 7.84655C132.813 8.25696 132.762 8.56477 132.71 8.82127C132.71 9.07778 132.71 9.43688 132.71 9.89859C132.71 10.3603 132.71 10.6681 132.71 10.822C132.71 10.9759 132.71 11.2324 132.762 11.5915C132.813 11.9506 132.813 12.2071 132.864 12.361C132.916 12.5149 133.018 12.7201 133.121 12.9253C133.223 13.1818 133.377 13.3357 133.531 13.4383C133.993 13.6949 134.455 13.8488 135.019 13.8488C135.942 13.8488 136.609 13.4383 136.968 12.6688V11.8993H135.583V10.0525H138.867V13.4896C138.559 14.2592 137.994 14.8748 137.276 15.2339C136.558 15.6443 135.737 15.8495 134.865 15.8495C133.275 15.8495 132.095 15.3878 131.377 14.5157C130.71 13.5409 130.351 12.1558 130.351 10.309Z" fill="#3E24D3"/>
<defs>
<linearGradient id="paint0_linear_303_24111" x1="1.01885" y1="7.58342" x2="20.3478" y2="7.58342" gradientUnits="userSpaceOnUse">
<stop stop-color="#100050"/>
<stop offset="1" stop-color="#5E5BFF"/>
</linearGradient>
<linearGradient id="paint1_linear_303_24111" x1="2.7179" y1="14.6225" x2="18.6621" y2="14.6225" gradientUnits="userSpaceOnUse">
<stop stop-color="#100050"/>
<stop offset="1" stop-color="#5E5BFF"/>
</linearGradient>
</defs>
</svg>
