<svg width="86" height="32" viewBox="0 0 86 32" fill="none" xmlns="http://www.w3.org/2000/svg">
<g id="Layer_1" clip-path="url(#clip0_15862_12298)">
<path id="Vector" d="M37.729 13.2297C37.749 17.5873 34.1664 21.091 29.7579 21.0784C25.4671 21.066 21.7413 17.6394 21.8689 12.9746C21.9869 8.65971 25.5178 5.29485 29.8276 5.31159C34.1988 5.32859 37.7627 8.86792 37.729 13.2297ZM34.8942 13.2212C34.9373 10.5528 32.6821 8.1374 29.8188 8.12094C27.0329 8.10503 24.7031 10.3816 24.6971 13.2036C24.6911 16.0503 27.0301 18.2649 29.7807 18.269C32.6541 18.2734 34.9329 15.9005 34.8945 13.2212H34.8942Z" fill="#74829A"/>
<path id="Vector_2" d="M59.2027 13.3162C59.2027 15.7574 59.2027 18.1986 59.2024 20.6398C59.2024 20.9334 59.0617 21.07 58.763 21.0722C58.7081 21.0724 58.6521 21.0653 58.5987 21.0735C58.3798 21.107 58.2292 21.0209 58.0794 20.8563C56.8249 19.4764 55.5612 18.1048 54.2999 16.731C53.2056 15.539 52.1111 14.3471 51.0166 13.1552C50.392 12.4751 49.7676 11.7948 49.1417 11.1161C49.1046 11.0761 49.0728 10.994 49.0089 11.0234C48.9513 11.0497 48.9751 11.1307 48.9751 11.188C48.9743 13.8349 48.9743 16.4819 48.9743 19.1289C48.9743 19.5541 48.9757 19.9793 48.9735 20.4042C48.9719 20.7166 48.8339 20.8513 48.5187 20.8519C47.8878 20.8527 47.2571 20.8527 46.6262 20.8519C46.3313 20.8513 46.1667 20.6881 46.1667 20.3957C46.1664 15.5133 46.1664 10.6308 46.1667 5.74842C46.1667 5.47465 46.319 5.3416 46.5867 5.31279C46.9565 5.27329 47.2099 5.39838 47.4714 5.6771C49.7331 8.08703 52.0143 10.4786 54.2892 12.8759C54.8965 13.5159 55.5025 14.1573 56.109 14.7978C56.1562 14.8475 56.2031 14.8977 56.2522 14.9457C56.2771 14.9704 56.2991 15.011 56.341 14.9981C56.3885 14.9833 56.3674 14.9366 56.3707 14.9032C56.374 14.867 56.3715 14.8302 56.3715 14.7934C56.3715 11.8722 56.3715 8.95088 56.3709 6.02988C56.3709 5.93743 56.3756 5.84718 56.4162 5.76241C56.4914 5.60522 56.6178 5.53609 56.7906 5.53664C57.449 5.53829 58.1071 5.53637 58.7654 5.53747C59.0521 5.53801 59.2024 5.68889 59.2027 5.97858C59.2035 7.52824 59.2032 9.07817 59.2032 10.6278C59.2032 11.5238 59.2032 12.42 59.2032 13.3159L59.2027 13.3162Z" fill="#74829A"/>
<path id="Vector_3" d="M9.86816 13.1951C9.86816 10.809 9.86816 8.42297 9.86844 6.0369C9.86844 5.92799 9.85609 5.81607 9.9233 5.71841C10.0103 5.59195 10.1282 5.53461 10.284 5.53516C11.189 5.5379 12.0942 5.53626 12.9992 5.53626C13.8493 5.53626 14.6997 5.53351 15.5498 5.53735C17.7893 5.54723 19.8963 7.16821 20.3146 9.50052C20.6238 11.2255 20.1015 12.7145 18.8457 13.9336C18.074 14.6828 17.1356 15.1063 16.0718 15.2465C15.9058 15.2685 15.7369 15.2824 15.5668 15.2816C14.6709 15.2778 13.775 15.2797 12.879 15.28C12.7018 15.28 12.7013 15.2808 12.7013 15.4627C12.7013 17.09 12.7013 18.7173 12.7013 20.3445C12.7013 20.7017 12.5518 20.8507 12.1933 20.851C11.5807 20.851 10.9679 20.8403 10.3559 20.8556C10.0415 20.8636 9.86268 20.6924 9.86377 20.367C9.87173 17.9763 9.86816 15.5856 9.86816 13.1951ZM12.7013 10.42C12.7013 11.1056 12.7046 11.7914 12.6985 12.4769C12.6974 12.6067 12.7315 12.6481 12.8656 12.647C13.6699 12.641 14.4745 12.6423 15.279 12.6445C15.8359 12.6462 16.3264 12.4668 16.7579 12.1187C17.6497 11.3994 17.8579 10.067 17.2053 9.14883C16.7296 8.47948 16.0466 8.19391 15.2436 8.18321C14.4531 8.17279 13.6622 8.18294 12.8714 8.17882C12.7441 8.17827 12.6969 8.21284 12.6983 8.34918C12.7049 9.03938 12.7013 9.72958 12.7013 10.4198V10.42Z" fill="#74829A"/>
<path id="Vector_4" d="M75.2728 12.4259C75.2728 8.618 75.2728 4.80983 75.272 1.00194C75.272 0.889739 75.2838 0.782203 75.3449 0.686739C75.4097 0.585239 75.4999 0.516109 75.625 0.51556C76.1278 0.513092 76.6307 0.514189 77.1335 0.51172C77.2114 0.511446 77.2599 0.558355 77.3121 0.601698C78.053 1.21865 78.7931 1.83643 79.5337 2.45393C79.7899 2.66763 80.0429 2.88517 80.3037 3.09338C80.4516 3.21162 80.507 3.35811 80.4842 3.53916C80.4412 3.88261 80.3965 4.22607 80.3515 4.56952C80.3221 4.7931 80.1435 4.91901 79.9197 4.87155C79.331 4.74701 78.7429 4.62055 78.1545 4.49463C78.0268 4.46738 77.963 4.52152 77.963 4.65703C77.963 11.0523 77.963 17.4479 77.9636 23.8433C77.9636 23.9352 77.9636 24.0262 77.9213 24.111C77.8525 24.2482 77.7468 24.3348 77.5883 24.3354C76.9393 24.337 76.29 24.339 75.6409 24.3348C75.4379 24.3335 75.2901 24.1683 75.2742 23.9461C75.2709 23.9006 75.2733 23.8548 75.2733 23.809C75.2733 20.0148 75.2733 16.2203 75.2733 12.4262L75.2728 12.4259Z" fill="#74829A"/>
<path id="Vector_5" d="M5.73836 12.4268C5.73836 16.2078 5.73836 19.9886 5.73836 23.7696C5.73836 23.8291 5.73918 23.8884 5.73753 23.9479C5.7315 24.1841 5.58611 24.3355 5.3524 24.3366C4.72614 24.3394 4.09988 24.3396 3.47334 24.3366C3.21932 24.3352 3.07092 24.1775 3.07092 23.9191C3.07037 22.2276 3.07065 20.5359 3.07065 18.8444C3.07065 14.1309 3.07065 9.41723 3.07065 4.70379C3.07065 4.44867 3.07065 4.44977 2.82184 4.50326C2.26032 4.62396 1.69825 4.74302 1.13673 4.86345C0.878597 4.91886 0.707973 4.81873 0.671215 4.56114C0.618821 4.19602 0.584805 3.82815 0.545853 3.4611C0.530765 3.31845 0.587549 3.20653 0.69892 3.11408C1.71361 2.26862 2.72748 1.42233 3.74052 0.575212C3.80115 0.524462 3.86753 0.510472 3.94352 0.510746C4.4008 0.512118 4.85781 0.510197 5.31509 0.512118C5.59544 0.513489 5.73671 0.654492 5.73781 0.933205C5.73945 1.43165 5.73836 1.92982 5.73836 2.42827C5.73836 5.76104 5.73836 9.09407 5.73836 12.4268Z" fill="#74829A"/>
<path id="Vector_6" d="M65.3692 14.3452C65.3692 12.3382 65.3692 10.3315 65.3692 8.32457C65.3692 8.18832 65.3023 8.12011 65.1684 8.11992C64.1216 8.11992 63.0748 8.11992 62.0281 8.11992C61.7129 8.11992 61.5576 7.96411 61.5573 7.64836C61.5571 7.09971 61.5571 6.55134 61.5573 6.00269C61.5573 5.68365 61.7055 5.53634 62.0272 5.53634C65.2044 5.53606 68.3815 5.53606 71.5583 5.53634C71.8839 5.53634 72.0367 5.68804 72.0373 6.01284C72.0384 6.55682 72.0384 7.10081 72.0373 7.64479C72.0367 7.95862 71.876 8.11992 71.566 8.1202C70.5145 8.12047 69.4631 8.1202 68.4119 8.1202C68.2254 8.1202 68.2248 8.12075 68.2248 8.30866C68.2248 12.327 68.2243 16.3453 68.2262 20.3636C68.2262 20.5238 68.1914 20.6612 68.0635 20.766C67.9812 20.8335 67.8869 20.8524 67.7824 20.8519C67.124 20.8499 66.4659 20.8519 65.8076 20.8505C65.5264 20.8499 65.3695 20.6906 65.3695 20.4072C65.3692 18.3865 65.3695 16.3661 65.3695 14.3454L65.3692 14.3452Z" fill="#74829A"/>
<path id="Vector_7" d="M40.3247 13.195C40.3247 10.8045 40.3247 8.41376 40.3247 6.0233C40.3247 5.68396 40.4687 5.53693 40.8034 5.53665C41.4434 5.5361 42.0831 5.53583 42.723 5.53665C43.0174 5.53693 43.18 5.69988 43.18 5.99423C43.18 10.7935 43.18 15.5928 43.18 20.3924C43.18 20.6878 43.0185 20.8511 42.7247 20.8513C42.0757 20.8522 41.4266 20.8522 40.7776 20.8513C40.4791 20.8511 40.325 20.6947 40.325 20.394C40.325 17.9943 40.325 15.5947 40.325 13.195H40.3247Z" fill="#74829A"/>
<path id="Vector_8" d="M3.17906 29.7289C3.17906 29.2079 3.18317 28.6873 3.17631 28.1663C3.17467 28.0366 3.21801 28.0025 3.34173 28.0061C3.79736 28.0187 4.25547 27.9787 4.70754 28.0637C5.02876 28.1241 5.30363 28.2535 5.39717 28.6044C5.51375 29.0422 5.33051 29.4751 4.86253 29.5873C4.83098 29.595 4.77722 29.5914 4.7742 29.6364C4.77036 29.6957 4.83455 29.6765 4.86609 29.6968C4.87707 29.7039 4.89243 29.7039 4.90559 29.7075C5.28799 29.8103 5.49702 30.0243 5.54063 30.3573C5.59385 30.7631 5.41993 31.1213 5.08116 31.3062C4.86664 31.4234 4.63073 31.4563 4.39372 31.4634C4.033 31.4741 3.672 31.4634 3.311 31.4681C3.20814 31.4694 3.17686 31.4327 3.17741 31.3326C3.18098 30.7979 3.17906 30.2635 3.17906 29.7289ZM4.0138 31.1603C4.20061 31.1603 4.38714 31.1641 4.5734 31.135C4.92562 31.0802 5.14315 30.8541 5.15577 30.5173C5.17003 30.1379 5.01066 29.9275 4.63539 29.8482C4.30677 29.7788 3.97265 29.8032 3.64018 29.8038C3.56557 29.8038 3.53868 29.8422 3.53923 29.9162C3.54143 30.2951 3.54143 30.6739 3.53951 31.0527C3.53923 31.1279 3.56886 31.1617 3.64402 31.1606C3.76719 31.1589 3.89063 31.16 4.0138 31.16V31.1603ZM3.54006 28.91C3.54006 29.0699 3.54307 29.2299 3.53896 29.3895C3.53676 29.4746 3.5631 29.5174 3.65472 29.5152C3.95098 29.5086 4.24779 29.5303 4.5435 29.4877C4.84278 29.4449 5.03096 29.2655 5.04659 28.9997C5.06826 28.6283 4.944 28.445 4.60769 28.3679C4.28866 28.2947 3.96332 28.3166 3.63963 28.3166C3.56173 28.3166 3.53868 28.3581 3.53978 28.4302C3.54225 28.5901 3.5406 28.7501 3.5406 28.9097L3.54006 28.91Z" fill="#74829A"/>
<path id="Vector_9" d="M68.5527 29.7286C68.5527 30.2589 68.5499 30.7889 68.5549 31.3192C68.556 31.4338 68.5165 31.4588 68.4062 31.47C68.2037 31.4906 68.0861 31.4182 67.9761 31.2448C67.4277 30.3813 66.8645 29.5267 66.3063 28.6692C66.2989 28.6577 66.2915 28.6462 66.2835 28.6349C66.2599 28.6028 66.2427 28.5455 66.1999 28.5559C66.1403 28.5702 66.1661 28.6335 66.1686 28.6736C66.2243 29.5457 66.1823 30.4186 66.1938 31.2909C66.1947 31.3463 66.2248 31.4251 66.1563 31.4517C66.0762 31.4827 65.9832 31.4799 65.9011 31.4519C65.8419 31.4316 65.8638 31.365 65.8638 31.3175C65.8627 30.7554 65.863 30.1931 65.863 29.631C65.863 29.1419 65.866 28.6527 65.8608 28.1639C65.8594 28.0476 65.891 28.013 66.0128 28.0018C66.2172 27.9831 66.3324 28.061 66.441 28.2314C66.9836 29.0826 67.5399 29.9251 68.0913 30.7708C68.1036 30.79 68.1146 30.8106 68.1291 30.8279C68.1541 30.8578 68.1651 30.9178 68.2131 30.9055C68.2737 30.8899 68.2482 30.8279 68.2457 30.7875C68.1906 29.9155 68.2336 29.0426 68.2216 28.1702C68.2207 28.1159 68.1914 28.035 68.2693 28.0163C68.3516 27.9966 68.444 27.987 68.5244 28.0254C68.571 28.0476 68.5527 28.1077 68.5529 28.1518C68.5538 28.6774 68.5535 29.203 68.5535 29.7286H68.5527Z" fill="#74829A"/>
<path id="Vector_10" d="M17.7218 29.745C17.7218 30.2613 17.7182 30.7778 17.7242 31.2941C17.7256 31.4214 17.6935 31.4625 17.558 31.4708C17.3613 31.4828 17.248 31.4156 17.1413 31.2472C16.6004 30.3952 16.0446 29.5524 15.4943 28.7064C15.4768 28.6795 15.4603 28.6521 15.4414 28.6266C15.4203 28.5986 15.4041 28.5476 15.3665 28.5572C15.3144 28.5703 15.3358 28.6271 15.3377 28.6633C15.3852 29.5354 15.3566 30.408 15.3638 31.2804C15.3651 31.4472 15.2313 31.5298 15.0782 31.4584C15.0107 31.4269 15.0335 31.3643 15.0335 31.3133C15.0321 30.4314 15.0327 29.5494 15.0327 28.6675C15.0327 28.4848 15.0351 28.3018 15.0318 28.1191C15.0302 28.0362 15.0648 28.0146 15.1446 28.0044C15.3566 27.9778 15.4891 28.0478 15.6098 28.2387C16.1461 29.0883 16.7021 29.9252 17.2513 30.7669C17.2713 30.7976 17.29 30.8291 17.3119 30.8582C17.33 30.8821 17.3435 30.921 17.3841 30.9062C17.4236 30.8917 17.4123 30.8533 17.4107 30.8228C17.3575 29.9464 17.3962 29.0691 17.3849 28.1921C17.3827 28.0225 17.5105 27.9438 17.6721 28.0115C17.7412 28.0406 17.7218 28.1029 17.7218 28.1542C17.7231 28.6842 17.7226 29.2145 17.7226 29.7445L17.7218 29.745Z" fill="#74829A"/>
<path id="Vector_11" d="M35.489 29.7155C35.4843 29.2568 35.566 28.8236 35.8689 28.4588C36.116 28.1611 36.4422 28.0226 36.8205 27.976C37.0416 27.9485 37.2569 27.9592 37.4725 28.0034C37.9989 28.1112 38.3427 28.4344 38.5177 28.9303C38.7075 29.4688 38.7012 30.0161 38.5111 30.5543C38.3089 31.1271 37.8165 31.4772 37.2089 31.4964C37.0034 31.5029 36.7985 31.5051 36.5961 31.4541C36.0151 31.3082 35.6204 30.8531 35.5216 30.2205C35.4953 30.0523 35.4925 29.8842 35.489 29.7155ZM37.0808 28.2838C36.4491 28.2838 36.0639 28.5828 35.9226 29.1907C35.8516 29.496 35.85 29.8063 35.8911 30.1151C35.9177 30.3146 35.9728 30.5085 36.0782 30.6833C36.3179 31.0805 36.6891 31.2001 37.1294 31.1916C37.6541 31.1814 38.0379 30.8992 38.1781 30.3941C38.2746 30.0466 38.2809 29.6938 38.2381 29.3361C38.1578 28.6662 37.7419 28.2838 37.0808 28.2835V28.2838Z" fill="#74829A"/>
<path id="Vector_12" d="M32.3691 29.7276C32.3691 29.202 32.3688 28.6761 32.3696 28.1505C32.3696 28.0896 32.3507 28.0082 32.4514 28.0101C32.8979 28.0186 33.3473 27.9703 33.7903 28.0625C34.2511 28.1585 34.4947 28.4246 34.5372 28.8679C34.5798 29.3128 34.385 29.6593 33.9757 29.8376C33.8531 29.8911 33.8424 29.9378 33.9102 30.0472C34.1773 30.4782 34.4347 30.9152 34.7002 31.3472C34.7597 31.4443 34.7413 31.4572 34.633 31.4699C34.4185 31.4948 34.2964 31.4169 34.1952 31.2227C33.999 30.8463 33.7703 30.4872 33.5596 30.1183C33.5157 30.0417 33.4661 30.0066 33.3755 30.0102C33.2065 30.0168 33.037 30.0179 32.8683 30.0102C32.7575 30.005 32.7259 30.0478 32.7273 30.1534C32.7317 30.5418 32.721 30.9308 32.7325 31.319C32.7375 31.4825 32.6467 31.4649 32.5419 31.4677C32.433 31.4704 32.3636 31.4638 32.3658 31.3184C32.3743 30.7882 32.3691 30.2579 32.3691 29.7276ZM32.729 29.0119C32.729 29.2037 32.7295 29.3957 32.729 29.5874C32.729 29.6536 32.741 29.7076 32.8236 29.7065C33.0924 29.7024 33.3626 29.7293 33.6295 29.6766C33.9587 29.6116 34.1488 29.3902 34.1524 29.0698C34.1576 28.6254 34.0325 28.4457 33.6501 28.3651C33.3849 28.3091 33.1147 28.3212 32.8456 28.3223C32.7591 28.3225 32.7257 28.3637 32.7276 28.4501C32.7314 28.6372 32.7287 28.8245 32.729 29.0119Z" fill="#74829A"/>
<path id="Vector_13" d="M59.6057 29.7388C59.6057 29.2135 59.609 28.6879 59.6032 28.1625C59.6018 28.0432 59.6361 28.0018 59.7582 28.0062C60.1771 28.0215 60.5984 27.9771 61.0146 28.061C61.4321 28.145 61.6979 28.3963 61.7481 28.7548C61.8208 29.2733 61.6545 29.6266 61.2332 29.826C61.0236 29.9251 61.0631 29.9146 61.1589 30.0749C61.4093 30.4943 61.6639 30.9115 61.9154 31.3304C61.9376 31.3675 61.9884 31.4045 61.9626 31.4495C61.9412 31.4865 61.8863 31.4591 61.8471 31.4668C61.6422 31.506 61.527 31.4149 61.4307 31.2333C61.2368 30.8663 61.0135 30.5149 60.811 30.1522C60.752 30.0466 60.6843 30.0016 60.5622 30.0101C60.4075 30.0211 60.2514 30.0181 60.0964 30.0109C59.9927 30.006 59.9634 30.0447 59.9645 30.1451C59.9692 30.5335 59.9595 30.922 59.9697 31.3101C59.9735 31.4583 59.9063 31.472 59.7887 31.4692C59.6787 31.4668 59.5994 31.472 59.6021 31.3156C59.6117 30.7903 59.6057 30.2647 59.6057 29.7393V29.7388ZM59.9667 29.0094C59.9667 29.2055 59.9683 29.4017 59.9659 29.5978C59.965 29.6702 59.9886 29.7095 60.0671 29.7078C60.3263 29.7018 60.5864 29.7248 60.8448 29.6798C61.1778 29.6222 61.3819 29.3877 61.3904 29.0453C61.4 28.6467 61.2521 28.4421 60.8854 28.3658C60.616 28.3098 60.3417 28.3192 60.0682 28.3236C59.9955 28.3247 59.9639 28.3584 59.9653 28.4344C59.9689 28.6259 59.9664 28.8176 59.9664 29.0091L59.9667 29.0094Z" fill="#74829A"/>
<path id="Vector_14" d="M72.8226 29.7378C72.8226 29.2212 72.8226 28.7047 72.8226 28.1881C72.8226 28.0093 72.8235 28.0062 73.0075 28.0093C73.4176 28.0158 73.8299 27.9796 74.237 28.0619C74.6606 28.1475 74.9242 28.4068 74.9719 28.787C75.0328 29.2709 74.8635 29.6193 74.471 29.8187C74.4507 29.8291 74.431 29.8423 74.4093 29.8478C74.2908 29.8788 74.2878 29.9364 74.3484 30.0343C74.5933 30.4307 74.8323 30.831 75.0726 31.2301C75.1145 31.2998 75.2015 31.4057 75.1809 31.4367C75.1329 31.5085 75.0232 31.4523 74.9401 31.4663C74.8295 31.4852 74.7664 31.4347 74.7121 31.339C74.4801 30.9297 74.2395 30.5254 74.006 30.1169C73.9621 30.0398 73.9106 30.0072 73.8209 30.0105C73.6519 30.017 73.4824 30.019 73.3137 30.0099C73.1998 30.0039 73.1713 30.0546 73.1716 30.1547C73.1735 30.5341 73.1732 30.9135 73.171 31.2929C73.1708 31.3486 73.1987 31.4279 73.1291 31.4523C73.0437 31.4822 72.9464 31.4825 72.8605 31.4504C72.8054 31.4298 72.8237 31.3626 72.8237 31.3143C72.8226 30.7887 72.8232 30.2628 72.8232 29.7372L72.8226 29.7378ZM73.1724 29.0111C73.1724 29.1985 73.1713 29.3858 73.1729 29.5729C73.1735 29.6376 73.174 29.7082 73.2687 29.7068C73.5422 29.7024 73.8173 29.732 74.0881 29.673C74.4304 29.5981 74.6098 29.3669 74.612 29.0031C74.6142 28.6427 74.4504 28.4356 74.0864 28.3626C73.8211 28.3094 73.5507 28.319 73.2816 28.3234C73.1869 28.325 73.1724 28.3873 73.1724 28.463C73.1727 28.6457 73.1724 28.8284 73.1724 29.0114V29.0111Z" fill="#74829A"/>
<path id="Vector_15" d="M9.19342 29.2914C9.19342 29.6478 9.19781 30.0044 9.19232 30.3607C9.18272 30.9856 8.70651 31.4701 8.08189 31.494C7.85394 31.5027 7.62598 31.5132 7.40242 31.4468C6.91359 31.3017 6.5899 30.894 6.58496 30.3849C6.57783 29.6354 6.58331 28.886 6.58057 28.1365C6.58029 28.0443 6.60663 27.9969 6.70511 28.0076C6.73665 28.0109 6.7693 28.0114 6.80084 28.0076C6.907 27.9947 6.9465 28.0364 6.94404 28.1464C6.93773 28.4204 6.94184 28.6948 6.94184 28.9688C6.94184 29.4212 6.94047 29.8735 6.94239 30.3262C6.94458 30.8438 7.28391 31.1845 7.80209 31.1892C7.92937 31.1903 8.05638 31.1969 8.18366 31.167C8.58416 31.0723 8.83077 30.7752 8.83214 30.3632C8.83461 29.6321 8.83653 28.9008 8.82995 28.1697C8.82858 28.029 8.88152 28.0021 9.00606 28.0051C9.12347 28.0081 9.20357 28.007 9.1989 28.1675C9.18738 28.542 9.19534 28.917 9.19534 29.2917H9.19342V29.2914Z" fill="#74829A"/>
<path id="Vector_16" d="M43.0948 29.7378C43.0948 29.2122 43.0981 28.6869 43.0923 28.1613C43.091 28.0406 43.1277 28.0044 43.2481 28.0058C43.7781 28.0115 44.3084 28.0129 44.8383 28.0049C44.976 28.003 44.9936 28.0592 44.995 28.175C44.9963 28.2965 44.9667 28.3443 44.8345 28.3415C44.4233 28.3333 44.0121 28.3421 43.6009 28.3363C43.4862 28.3347 43.4503 28.3731 43.4528 28.4853C43.4588 28.764 43.4544 29.0427 43.4547 29.3214C43.455 29.4964 43.4605 29.503 43.6423 29.5036C44.008 29.5049 44.3734 29.503 44.739 29.5052C44.7947 29.5055 44.8707 29.48 44.8959 29.5527C44.9209 29.6254 44.9217 29.7082 44.8946 29.7812C44.8724 29.8404 44.8076 29.8188 44.7602 29.8188C44.3764 29.8201 43.9924 29.824 43.6089 29.8168C43.4884 29.8146 43.45 29.8511 43.4525 29.9718C43.4594 30.3051 43.4591 30.639 43.4525 30.9726C43.4503 31.0941 43.4824 31.1405 43.6132 31.138C44.0244 31.1298 44.4356 31.1399 44.8468 31.1322C44.9791 31.1298 44.9969 31.1876 44.9936 31.2971C44.9906 31.3969 44.9941 31.4705 44.8534 31.4685C44.3144 31.4614 43.7751 31.4625 43.2361 31.468C43.1151 31.4694 43.0923 31.4208 43.0931 31.3138C43.0973 30.7885 43.0951 30.2629 43.0951 29.7373L43.0948 29.7378Z" fill="#74829A"/>
<path id="Vector_17" d="M18.9835 29.7273C18.9835 29.2061 18.9865 28.6849 18.981 28.1639C18.9796 28.0457 19.012 28.0048 19.1349 28.0062C19.6698 28.0122 20.2047 28.013 20.7394 28.0059C20.8754 28.004 20.8836 28.0693 20.8836 28.1741C20.8836 28.2789 20.8757 28.345 20.7394 28.3422C20.3235 28.3343 19.9074 28.3428 19.4915 28.337C19.3766 28.3354 19.3401 28.3749 19.3423 28.4865C19.3478 28.7699 19.3494 29.0535 19.3414 29.3366C19.3379 29.4634 19.3842 29.507 19.5069 29.5059C19.8816 29.5021 20.2566 29.5037 20.6313 29.5059C20.6867 29.5062 20.7635 29.4815 20.7857 29.5569C20.8071 29.6302 20.811 29.7127 20.7813 29.7857C20.7605 29.837 20.7018 29.8197 20.6582 29.82C20.2697 29.8208 19.881 29.8241 19.4926 29.8184C19.3793 29.8167 19.3404 29.8532 19.342 29.9665C19.3472 30.3094 19.3464 30.6523 19.3425 30.9949C19.3412 31.0997 19.3741 31.1395 19.4846 31.1381C19.9005 31.1326 20.3166 31.1422 20.7325 31.1326C20.8776 31.1294 20.8812 31.1993 20.8839 31.3082C20.8869 31.4226 20.8595 31.4709 20.7325 31.4695C20.1976 31.4632 19.6627 31.464 19.128 31.469C19.0117 31.4701 18.9802 31.43 18.9813 31.3184C18.9859 30.7881 18.9835 30.2578 18.9835 29.7276V29.7273Z" fill="#74829A"/>
<path id="Vector_18" d="M58.5804 31.4634C58.4655 31.4936 58.406 31.4272 58.3621 31.3043C58.2625 31.025 58.1456 30.7518 58.0414 30.4742C58.0063 30.3809 57.9566 30.3378 57.8513 30.3395C57.4629 30.345 57.0744 30.3439 56.686 30.34C56.5933 30.3392 56.5456 30.3746 56.514 30.4596C56.4018 30.7587 56.285 31.056 56.1689 31.3537C56.1338 31.4439 55.8765 31.5166 55.8057 31.4541C55.7597 31.4132 55.8052 31.3693 55.8203 31.3312C56.0444 30.7573 56.2704 30.1842 56.4959 29.6109C56.6899 29.1182 56.8887 28.6274 57.0744 28.132C57.1189 28.0135 57.1902 28.0044 57.2933 28.0003C57.4012 27.9962 57.456 28.031 57.4963 28.1342C57.904 29.1851 58.3165 30.2341 58.7275 31.2837C58.7745 31.4037 58.7255 31.4636 58.5804 31.4634ZM57.2903 28.4066C57.2659 28.4423 57.2549 28.4519 57.2517 28.4639C57.1101 28.9547 56.9093 29.4241 56.7316 29.9019C56.6923 30.007 56.7326 30.0322 56.8276 30.032C57.1194 30.0306 57.4113 30.0328 57.7032 30.0314C57.8623 30.0306 57.8754 30.0119 57.8211 29.8663C57.7002 29.542 57.5759 29.2189 57.456 28.8941C57.3998 28.7415 57.3512 28.5863 57.2906 28.4069L57.2903 28.4066Z" fill="#74829A"/>
<path id="Vector_19" d="M29.1598 29.7376C29.1598 29.212 29.1634 28.6861 29.1571 28.1605C29.1557 28.0373 29.1968 28.0033 29.3151 28.0071C29.7205 28.02 30.1279 27.983 30.5308 28.062C31.018 28.1577 31.2893 28.4367 31.3228 28.9371C31.3519 29.3733 31.1908 29.7601 30.7017 29.9592C30.3819 30.0895 30.0431 30.095 29.7046 30.0953C29.5813 30.0953 29.5196 30.1576 29.5194 30.2824C29.5194 30.6297 29.5123 30.9775 29.5227 31.3245C29.5274 31.477 29.4434 31.4694 29.3414 31.468C29.2432 31.4666 29.1543 31.4836 29.1568 31.3284C29.165 30.7981 29.1598 30.2678 29.1598 29.7376ZM29.5194 29.0419C29.5194 29.252 29.5205 29.4624 29.5189 29.6725C29.5183 29.7419 29.5375 29.7872 29.6171 29.7889C29.9051 29.7943 30.1931 29.7971 30.4724 29.7129C30.8197 29.6081 30.9585 29.3782 30.9434 28.9483C30.9332 28.6597 30.744 28.4436 30.4307 28.3703C30.166 28.3083 29.8963 28.3135 29.627 28.3171C29.5433 28.3182 29.5178 28.3607 29.5189 28.4386C29.5216 28.6397 29.5197 28.8408 29.52 29.0419H29.5194Z" fill="#74829A"/>
<path id="Vector_20" d="M53.2692 29.7379C53.2692 29.2123 53.2725 28.687 53.2667 28.1614C53.2653 28.0407 53.3024 28.0023 53.4228 28.0061C53.8326 28.019 54.2452 27.9779 54.6512 28.0643C55.1696 28.1748 55.459 28.5282 55.4385 29.0181C55.4151 29.5739 55.1041 29.9332 54.5475 30.0389C54.2959 30.0866 54.0406 30.1074 53.7849 30.0918C53.6535 30.0838 53.6244 30.1332 53.6266 30.2548C53.6335 30.6111 53.6219 30.9677 53.6324 31.3238C53.6368 31.4763 53.5528 31.4684 53.4511 31.467C53.3531 31.4656 53.2637 31.4832 53.2662 31.3276C53.2741 30.7976 53.2692 30.2676 53.2692 29.7374V29.7379ZM53.6296 29.0502C53.6296 29.2557 53.6305 29.4611 53.6291 29.6669C53.6288 29.7324 53.6373 29.7862 53.7207 29.7876C54.0128 29.7931 54.3055 29.7972 54.5884 29.708C54.928 29.601 55.0739 29.3605 55.0531 28.9517C55.038 28.6549 54.8424 28.4371 54.5294 28.3677C54.2688 28.3098 54.0043 28.3131 53.7396 28.3158C53.6584 28.3167 53.6274 28.3529 53.6285 28.4335C53.6318 28.639 53.6296 28.8445 53.6296 29.0502Z" fill="#74829A"/>
<path id="Vector_21" d="M69.8314 29.7309C69.8314 29.2099 69.8347 28.6893 69.8289 28.1683C69.8275 28.0413 69.869 28.0043 69.9946 28.0059C70.5152 28.0122 71.0362 28.0122 71.5571 28.0059C71.6833 28.0045 71.7239 28.0432 71.7247 28.1694C71.7255 28.3 71.6855 28.3442 71.5519 28.3417C71.141 28.334 70.7295 28.3417 70.3183 28.3367C70.216 28.3354 70.1795 28.373 70.18 28.4703C70.182 28.7628 70.1844 29.0552 70.1784 29.3476C70.1759 29.47 70.228 29.5067 70.3416 29.5056C70.7163 29.5024 71.0908 29.5037 71.4655 29.5056C71.5209 29.5059 71.5982 29.482 71.618 29.5591C71.6369 29.6329 71.6438 29.7158 71.6114 29.7876C71.5895 29.8365 71.5308 29.8195 71.4866 29.8195C71.1028 29.8203 70.7191 29.825 70.3353 29.8173C70.2113 29.8148 70.1773 29.8609 70.1787 29.975C70.1828 30.313 70.1825 30.6512 70.1787 30.9892C70.1776 31.1 70.2162 31.1392 70.3306 31.1376C70.7418 31.1316 71.153 31.1406 71.5639 31.1324C71.7006 31.1296 71.7233 31.1881 71.7228 31.3041C71.7222 31.4149 71.6992 31.4698 71.5708 31.4684C71.0408 31.4624 70.5109 31.4624 69.9809 31.4684C69.8544 31.4698 69.8278 31.4204 69.8286 31.3066C69.833 30.7812 69.8306 30.2556 69.8306 29.7303L69.8314 29.7309Z" fill="#74829A"/>
<path id="Vector_22" d="M22.5715 31.4987C22.3726 31.505 22.1282 31.4825 21.8907 31.407C21.7719 31.3692 21.697 31.1706 21.7593 31.0619C21.7911 31.0065 21.8339 31.0425 21.8676 31.054C22.1779 31.1607 22.4963 31.2046 22.8242 31.1903C22.9583 31.1846 23.0872 31.1577 23.2085 31.1023C23.6076 30.9198 23.6597 30.3844 23.3042 30.1248C23.1325 29.9992 22.9336 29.9287 22.7366 29.856C22.5518 29.788 22.3721 29.7112 22.2053 29.6044C21.8509 29.3776 21.7527 29.0377 21.8171 28.6509C21.8775 28.2888 22.1425 28.0935 22.4788 28.0167C22.8968 27.9215 23.313 27.964 23.7179 28.1105C23.7859 28.1352 23.804 28.1686 23.7782 28.2326C23.7629 28.2707 23.745 28.3085 23.7365 28.3483C23.7165 28.4402 23.6701 28.4487 23.5876 28.4174C23.3245 28.3176 23.051 28.2644 22.7696 28.2866C22.5232 28.3061 22.2977 28.379 22.1979 28.638C22.0934 28.909 22.1982 29.1919 22.4533 29.348C22.6297 29.456 22.8242 29.5232 23.0164 29.5959C23.192 29.6623 23.3591 29.7446 23.5223 29.8382C24.0342 30.132 24.027 30.9854 23.5154 31.2992C23.2847 31.4405 23.0315 31.5044 22.5718 31.4987H22.5715Z" fill="#74829A"/>
<path id="Vector_23" d="M76.7107 31.4976C76.5088 31.5037 76.2597 31.4804 76.0175 31.4049C75.8976 31.3676 75.8173 31.1578 75.8795 31.0483C75.9083 30.9978 75.9434 31.0354 75.9739 31.0456C76.2748 31.1471 76.5826 31.2005 76.9016 31.1898C76.9935 31.1868 77.0835 31.1767 77.1726 31.158C77.4346 31.1032 77.6228 30.9292 77.6557 30.7128C77.7012 30.4124 77.6115 30.2226 77.3518 30.0684C77.1699 29.9606 76.9705 29.8939 76.7741 29.8201C76.6111 29.759 76.4545 29.6855 76.3105 29.5867C75.981 29.3609 75.8812 29.035 75.9434 28.663C76.0071 28.2828 76.2806 28.0842 76.635 28.0096C77.0352 27.9254 77.4327 27.9668 77.8219 28.0982C77.9391 28.1377 77.9273 28.1967 77.8889 28.2831C77.854 28.3616 77.8581 28.4694 77.713 28.4153C77.4014 28.2993 77.0802 28.2387 76.7472 28.3103C76.4863 28.3665 76.3308 28.5111 76.2981 28.7462C76.2649 28.9862 76.3409 29.1859 76.5516 29.3255C76.7134 29.4328 76.8928 29.4986 77.0725 29.5658C77.2651 29.638 77.4511 29.7228 77.6316 29.8226C78.1818 30.1271 78.1541 31.025 77.6072 31.3212C77.3778 31.4455 77.149 31.502 76.7107 31.4974V31.4976Z" fill="#74829A"/>
<path id="Vector_24" d="M46.7132 31.4971C46.4794 31.5064 46.2353 31.4795 45.9972 31.4079C45.8836 31.3736 45.8071 31.1583 45.8718 31.059C45.9056 31.0071 45.9484 31.0436 45.9818 31.0551C46.2921 31.1621 46.6108 31.2041 46.9381 31.1898C47.0676 31.1841 47.1918 31.1577 47.3092 31.1051C47.7114 30.9251 47.772 30.3929 47.4198 30.129C47.2456 29.9987 47.0415 29.9282 46.8404 29.8536C46.6429 29.7803 46.4501 29.6994 46.2759 29.5779C45.9445 29.3472 45.8669 29.0136 45.9264 28.6455C45.9791 28.3201 46.2092 28.1259 46.5129 28.0381C46.9617 27.9081 47.4069 27.9618 47.8431 28.1152C47.9001 28.1352 47.9103 28.1703 47.8916 28.2214C47.8774 28.2598 47.8562 28.2968 47.848 28.3363C47.8261 28.4416 47.7748 28.4441 47.6812 28.4115C47.3726 28.3034 47.0561 28.2392 46.728 28.31C46.5074 28.3577 46.3363 28.4715 46.2855 28.7047C46.2271 28.9727 46.3195 29.1889 46.5409 29.3343C46.7025 29.4405 46.8838 29.5044 47.0635 29.5713C47.2431 29.6385 47.419 29.7134 47.586 29.81C47.9188 30.0023 48.04 30.298 48.0055 30.6653C47.9728 31.0118 47.7764 31.243 47.4651 31.3827C47.2302 31.488 46.9809 31.5078 46.7132 31.4965V31.4971Z" fill="#74829A"/>
<path id="Vector_25" d="M25.5729 31.4982C25.3387 31.5029 25.1077 31.485 24.8822 31.4175C24.733 31.3728 24.6545 31.2069 24.7179 31.0686C24.7464 31.0066 24.7889 31.0428 24.8219 31.0543C25.1321 31.1608 25.4503 31.2049 25.7776 31.1904C25.9304 31.1835 26.0763 31.1528 26.2104 31.0785C26.5484 30.8908 26.5975 30.4116 26.3037 30.1606C26.1191 30.0029 25.8895 29.9329 25.6681 29.8487C25.4885 29.7806 25.3126 29.7063 25.1516 29.5996C24.8515 29.4013 24.7289 29.1121 24.7533 28.7665C24.7807 28.3794 25.012 28.1377 25.3743 28.0354C25.8091 27.9128 26.2409 27.9616 26.6644 28.1086C26.7473 28.1374 26.7489 28.183 26.7245 28.2562C26.659 28.4516 26.6625 28.4505 26.4689 28.3904C26.1696 28.2974 25.8656 28.2411 25.5535 28.3147C25.3447 28.3638 25.1771 28.4762 25.1357 28.6993C25.0893 28.9475 25.1382 29.1722 25.3691 29.3242C25.5387 29.4355 25.7274 29.5036 25.9156 29.5738C26.1298 29.6536 26.3399 29.7409 26.5276 29.8753C26.8027 30.0725 26.8855 30.3523 26.8534 30.67C26.8189 31.0137 26.6225 31.2464 26.3098 31.3846C26.0744 31.4889 25.8256 31.5078 25.5732 31.4976L25.5729 31.4982Z" fill="#74829A"/>
<path id="Vector_26" d="M11.0888 31.498C10.8433 31.5057 10.5986 31.4826 10.3605 31.4102C10.2396 31.3734 10.1644 31.171 10.2297 31.0654C10.2623 31.0124 10.3054 31.0462 10.3391 31.0577C10.6412 31.1595 10.9503 31.2025 11.2688 31.1916C11.3843 31.1877 11.4965 31.1699 11.604 31.1312C11.8281 31.0506 11.9719 30.9024 11.9952 30.6533C12.0171 30.4177 11.9376 30.2342 11.7384 30.1031C11.565 29.9887 11.3708 29.9204 11.1783 29.8488C10.9679 29.7706 10.7616 29.6855 10.5844 29.5429C10.312 29.3237 10.2245 29.0296 10.2692 28.6985C10.3166 28.3485 10.5443 28.1334 10.8699 28.0388C11.3088 27.9115 11.7461 27.9609 12.1743 28.109C12.2432 28.1329 12.2656 28.1641 12.2399 28.2409C12.1683 28.4538 12.1718 28.4563 11.9639 28.3874C11.7274 28.309 11.4852 28.2739 11.2361 28.2854C10.9094 28.3002 10.6853 28.4653 10.6357 28.7416C10.5956 28.9649 10.6584 29.158 10.8444 29.2996C10.9956 29.4145 11.1717 29.4795 11.347 29.5462C11.5689 29.6304 11.7925 29.7102 11.9916 29.8449C12.4928 30.1834 12.5018 30.9299 12.0056 31.2785C11.7307 31.4717 11.4169 31.5139 11.0886 31.4985L11.0888 31.498Z" fill="#74829A"/>
<path id="Vector_27" d="M49.677 31.4978C49.4303 31.5072 49.1818 31.4797 48.9399 31.4035C48.84 31.3719 48.7692 31.1396 48.834 31.0587C48.8699 31.0139 48.9116 31.0488 48.9465 31.0603C49.2487 31.1596 49.5579 31.2035 49.8764 31.1914C49.9921 31.187 50.1035 31.1673 50.2113 31.1289C50.4442 31.0458 50.5822 30.8809 50.6014 30.6326C50.6184 30.4112 50.5336 30.2321 50.3444 30.107C50.1674 29.9899 49.9694 29.9197 49.7721 29.847C49.5659 29.7707 49.3653 29.6848 49.19 29.5477C48.9237 29.3386 48.8326 29.0544 48.8642 28.7335C48.8984 28.3832 49.1127 28.1563 49.4375 28.0512C49.8887 27.9053 50.338 27.9602 50.7802 28.1119C50.856 28.1379 50.8598 28.1796 50.8373 28.2487C50.7704 28.4556 50.7731 28.4561 50.569 28.3906C50.2741 28.2957 49.9746 28.2433 49.6671 28.3151C49.4537 28.3648 49.2885 28.477 49.243 28.7093C49.1942 28.9595 49.2556 29.1702 49.4734 29.3214C49.6331 29.4319 49.8141 29.4961 49.9932 29.5644C50.194 29.6409 50.3943 29.7164 50.5756 29.8349C51.1237 30.1932 51.0993 31.0019 50.5301 31.3278C50.2665 31.4786 49.9795 31.5127 49.6767 31.4981L49.677 31.4978Z" fill="#74829A"/>
<path id="Vector_28" d="M41.1865 31.4967C40.8085 31.5121 40.4656 31.4411 40.1655 31.2183C39.8073 30.9525 39.6537 30.5723 39.5892 30.1501C39.5231 29.7191 39.5461 29.2917 39.722 28.8868C39.9694 28.3162 40.4201 28.0246 41.0321 27.9788C41.3665 27.9539 41.6976 27.9763 42.0174 28.096C42.1162 28.133 42.145 28.1706 42.0899 28.2729C41.9944 28.4504 42.001 28.4531 41.8095 28.3873C41.4452 28.2619 41.0757 28.2254 40.7114 28.3733C40.2536 28.5593 40.0501 28.939 39.9741 29.4026C39.9231 29.7131 39.945 30.0212 40.027 30.3246C40.1708 30.8559 40.5905 31.1783 41.1402 31.1898C41.389 31.195 41.6304 31.1527 41.8726 31.1058C41.925 31.0957 42.0136 31.0304 42.0218 31.1421C42.0284 31.2339 42.086 31.3615 41.9327 31.4062C41.6853 31.4786 41.4321 31.5069 41.1868 31.497L41.1865 31.4967Z" fill="#74829A"/>
<path id="Vector_29" d="M63.5594 29.8993C63.5594 29.4697 63.5594 29.0401 63.5594 28.6108C63.5594 28.4297 63.4666 28.3392 63.281 28.3392C63.0525 28.3392 62.8237 28.3315 62.5958 28.3419C62.4498 28.3485 62.4619 28.2632 62.4597 28.1672C62.4578 28.0692 62.4638 28.0048 62.5952 28.0059C63.3584 28.0114 64.1215 28.0119 64.8844 28.0059C65.0292 28.0048 65.0191 28.0843 65.0213 28.1806C65.0235 28.2791 65.0155 28.3469 64.8847 28.3419C64.6383 28.3329 64.3912 28.3392 64.1446 28.3392C63.9946 28.3392 63.9195 28.4122 63.9193 28.5584C63.9193 29.4631 63.9199 30.3678 63.918 31.2725C63.918 31.3331 63.9514 31.4187 63.8851 31.4495C63.7987 31.4895 63.6955 31.4774 63.6028 31.4555C63.5394 31.4407 63.5603 31.3724 63.56 31.3249C63.5589 30.8498 63.5592 30.3744 63.5592 29.8993H63.5594Z" fill="#74829A"/>
<path id="Vector_30" d="M85.2403 0.756436C85.172 0.786338 85.1668 0.844769 85.1482 0.892775C84.9251 1.46694 84.7035 2.04165 84.4794 2.61553C84.4511 2.68768 84.4432 2.77519 84.3258 2.77793C84.207 2.78067 84.1979 2.69509 84.1697 2.62184C83.9453 2.03835 83.7226 1.45432 83.4979 0.870829C83.4812 0.827486 83.4801 0.769878 83.4115 0.750401C83.3805 0.826663 83.3967 0.903748 83.4024 0.977816C83.4452 1.53908 83.4093 2.10117 83.4222 2.66271C83.4241 2.74501 83.3926 2.77656 83.3097 2.77683C83.2244 2.77683 83.1997 2.73898 83.2 2.6597C83.2016 1.98349 83.2019 1.307 83.1997 0.630796C83.1994 0.539172 83.2387 0.514482 83.3234 0.512013C83.5794 0.504607 83.5785 0.502138 83.668 0.736411C83.863 1.24803 84.0591 1.75937 84.255 2.27098C84.2649 2.29649 84.2739 2.32283 84.2874 2.34642C84.2981 2.36535 84.3126 2.39141 84.3293 2.39525C84.3612 2.40211 84.3743 2.37138 84.3845 2.34532C84.4377 2.20926 84.4912 2.07347 84.5439 1.9374C84.7106 1.50781 84.8769 1.07794 85.0437 0.648353C85.0897 0.529845 85.3133 0.45852 85.4197 0.526278C85.4573 0.550145 85.4557 0.587453 85.4557 0.623389C85.4562 1.30426 85.4554 1.98513 85.457 2.66601C85.457 2.75077 85.4197 2.77519 85.3405 2.77683C85.2425 2.77903 85.2283 2.72663 85.2302 2.6468C85.2431 2.08993 85.2063 1.53223 85.2524 0.975621C85.2582 0.905943 85.268 0.833521 85.2403 0.756162V0.756436Z" fill="#74829A"/>
<path id="Vector_31" d="M13.7501 29.7376C13.7501 30.2629 13.744 30.7882 13.7536 31.3133C13.7567 31.4801 13.665 31.4647 13.555 31.4694C13.4384 31.4743 13.3828 31.4518 13.3836 31.3144C13.3891 30.264 13.3893 29.2133 13.3833 28.163C13.3825 28.0118 13.4535 28.0063 13.5676 28.0069C13.6801 28.0074 13.7561 28.0093 13.7536 28.1619C13.7451 28.6869 13.7503 29.2122 13.7503 29.7376H13.7501Z" fill="#74829A"/>
<path id="Vector_32" d="M81.8947 1.73959C81.8947 2.0227 81.8966 2.3058 81.8931 2.58863C81.892 2.66626 81.9317 2.77626 81.7836 2.77325C81.6462 2.7705 81.6821 2.66763 81.6818 2.59384C81.6794 2.02763 81.6807 1.4617 81.6802 0.895498C81.6802 0.702923 81.6733 0.696888 81.4799 0.69579C81.3384 0.694967 81.1968 0.694967 81.0553 0.694967C80.9933 0.694967 80.9486 0.678782 80.9478 0.603617C80.9469 0.528178 80.9897 0.511719 81.0528 0.511719C81.5414 0.511993 82.0297 0.511719 82.5182 0.511719C82.5786 0.511719 82.6266 0.52132 82.6277 0.599228C82.6288 0.68372 82.5769 0.695516 82.5111 0.695516C82.3558 0.695516 82.2006 0.699631 82.0456 0.694967C81.9339 0.691675 81.8914 0.738036 81.8931 0.849137C81.8972 1.14568 81.8944 1.4425 81.8944 1.73932L81.8947 1.73959Z" fill="#74829A"/>
</g>
<defs>
<clipPath id="clip0_15862_12298">
<rect width="84.913" height="31" fill="white" transform="translate(0.543457 0.5)"/>
</clipPath>
</defs>
</svg>
