<svg width="120" height="24" viewBox="0 0 120 24" fill="none" xmlns="http://www.w3.org/2000/svg">
<g id="Group 7187">
<g id="Group 7182">
<path id="Vector" d="M0.958008 13.0734C1.00134 13.014 1.02366 12.9573 1.06567 12.9322C1.18253 12.8636 1.30595 12.8055 1.42936 12.7474C1.96112 12.5006 2.50994 12.2842 3.02331 12.0017C3.7809 11.5847 4.52929 11.1452 5.25143 10.6688C5.85408 10.2702 6.4331 9.8281 6.98717 9.36354C7.64629 8.81056 8.29489 8.2391 8.89755 7.62541C9.55666 6.95629 10.1659 6.23702 10.7843 5.52699C11.4723 4.73645 12.0749 3.88125 12.6435 3.00229C12.9888 2.4691 13.3039 1.9148 13.6151 1.35918C13.8251 0.983048 14.0063 0.591078 14.1941 0.204388C14.2676 0.0526152 14.3477 -0.0305299 14.5446 0.0103827C14.9136 0.0869289 15.2904 0.121243 15.662 0.185911C15.8208 0.213626 15.9745 0.270376 16.1294 0.320527C16.6218 0.482858 17.1207 0.624072 17.5999 0.818078C18.045 0.998885 18.4678 1.23512 18.9024 1.44628C18.9982 1.49248 18.9969 1.55582 18.9549 1.64029C18.4415 2.64859 17.8888 3.63181 17.2612 4.57544C16.6979 5.42141 16.1005 6.24494 15.4309 7.00513C14.7783 7.74551 14.0733 8.43971 13.3787 9.14314C12.696 9.83338 11.9266 10.422 11.1283 10.9657C10.4219 11.4474 9.69584 11.9014 8.96188 12.3396C8.39993 12.6748 7.81303 12.9718 7.23401 13.2766C6.78892 13.5102 6.33988 13.7399 5.88559 13.9537C5.36828 14.1965 4.84703 14.4301 4.31922 14.6479C3.69949 14.9039 3.07321 15.1428 2.4456 15.379C2.18564 15.4767 1.91779 15.5493 1.65388 15.6364C1.53572 15.6746 1.50289 15.5981 1.47926 15.5123C1.40442 15.2391 1.31908 14.9673 1.26262 14.6901C1.15364 14.1556 1.06173 13.6171 0.961947 13.0747L0.958008 13.0734Z" fill="#74829A"/>
<path id="Vector_2" d="M23.9802 7.04239C24.038 7.17436 24.0971 7.28523 24.1364 7.40136C24.3111 7.91343 24.4857 8.42682 24.6459 8.94285C24.7063 9.13817 24.7338 9.34405 24.7693 9.54598C24.8323 9.90363 24.8927 10.2613 24.9518 10.6189C24.9728 10.7456 24.9452 10.8539 24.8454 10.9476C24.2205 11.5401 23.6178 12.1578 22.9718 12.7253C22.2943 13.3205 21.5853 13.8827 20.8724 14.437C19.8916 15.1998 18.8386 15.8531 17.7515 16.451C17.3287 16.6833 16.9059 16.9182 16.4674 17.1148C15.9369 17.3524 15.3934 17.5609 14.8485 17.7628C14.3824 17.9357 13.9097 18.0941 13.4331 18.234C12.9814 18.3673 12.5206 18.4702 12.0637 18.5837C11.6159 18.6946 11.1682 18.8081 10.7179 18.9071C10.1494 19.0324 9.57821 19.1459 9.00838 19.2594C8.65913 19.3294 8.30988 19.398 7.958 19.4508C7.43019 19.53 6.90106 19.6092 6.37062 19.6593C5.6091 19.7306 4.84495 19.7715 4.08211 19.8322C3.9088 19.8454 3.79457 19.7781 3.69741 19.6422C3.40462 19.2317 3.10657 18.8252 2.81247 18.4148C2.73106 18.3013 2.74945 18.2459 2.89125 18.2195C3.2405 18.1548 3.59237 18.1007 3.94162 18.0373C4.17927 17.9951 4.41561 17.9502 4.65063 17.8948C5.34519 17.7325 6.03844 17.5688 6.73038 17.3986C6.96408 17.3405 7.19254 17.2613 7.42362 17.1927C7.75449 17.0937 8.08799 17.004 8.41492 16.8931C9.35632 16.5724 10.3043 16.2675 11.2312 15.9072C12.0322 15.5958 12.8134 15.2315 13.592 14.8659C14.062 14.6455 14.5124 14.3855 14.9666 14.1335C15.4761 13.851 15.9855 13.5673 16.4844 13.2677C16.9926 12.9628 17.502 12.6553 17.9878 12.3162C18.7204 11.8054 19.4531 11.292 20.1476 10.7324C20.8632 10.157 21.5551 9.5473 22.2156 8.90985C22.7959 8.34895 23.3198 7.72867 23.8699 7.13477C23.8975 7.10574 23.9303 7.08198 23.9841 7.03711L23.9802 7.04239Z" fill="#74829A"/>
<path id="Vector_3" d="M1.16748 9.79262C1.58763 7.26396 2.74567 5.12594 4.54444 3.3403C5.72743 2.16703 7.10999 1.28807 8.68293 0.706055C8.44922 1.29995 8.1433 1.84633 7.8098 2.37819C6.02154 5.23284 3.79868 7.69552 1.16748 9.7913V9.79262Z" fill="#74829A"/>
<path id="Vector_4" d="M21.3696 20.5985C20.7709 21.2109 20.0987 21.7335 19.3739 22.1849C17.7445 23.1985 15.9799 23.8253 14.0603 23.9613C11.802 24.121 9.62641 23.8148 7.59131 22.7115C7.63595 22.7022 7.6819 22.6864 7.72654 22.6864C8.75985 22.6785 9.79448 22.7009 10.8252 22.6574C11.7876 22.6164 12.7487 22.5175 13.7071 22.4172C14.4253 22.3419 15.1435 22.2496 15.8525 22.1163C16.5983 21.9764 17.3362 21.7929 18.0701 21.6002C18.5861 21.4656 19.0929 21.2901 19.5997 21.1238C20.1276 20.9509 20.6501 20.7648 21.1766 20.588C21.2318 20.5695 21.2922 20.5669 21.3499 20.5576C21.3565 20.5721 21.3618 20.5853 21.3683 20.5998L21.3696 20.5985Z" fill="#74829A"/>
</g>
<path id="Union" d="M48.4282 9.51465C49.0556 9.5147 49.6236 9.66325 50.1323 9.95996C50.6497 10.2483 51.0572 10.66 51.354 11.1943C51.6592 11.7201 51.812 12.348 51.812 13.0771C51.8119 13.8061 51.6591 14.4376 51.354 14.9717C51.0572 15.506 50.6497 15.9177 50.1323 16.2061C49.6236 16.4943 49.0556 16.6386 48.4282 16.6387C47.8432 16.6387 47.3428 16.5112 46.9272 16.2568C46.7739 16.1598 46.6341 16.0448 46.5073 15.9131V18.9922H44.0903V9.62891H46.3921V10.3203C46.5334 10.1523 46.6936 10.0102 46.8755 9.89648C47.291 9.64206 47.8091 9.51465 48.4282 9.51465ZM57.2729 9.51465C57.9005 9.51465 58.4692 9.66313 58.978 9.95996C59.4953 10.2483 59.9029 10.6601 60.1997 11.1943C60.5048 11.72 60.6567 12.348 60.6567 13.0771C60.6567 13.806 60.5047 14.4376 60.1997 14.9717C59.9029 15.506 59.4953 15.9177 58.978 16.2061C58.4692 16.4944 57.9005 16.6387 57.2729 16.6387C56.6879 16.6386 56.1874 16.5112 55.772 16.2568C55.6184 16.1596 55.479 16.0441 55.3521 15.9121V18.9922H52.9351V9.62891H55.2378V10.3203C55.3791 10.1523 55.5392 10.0102 55.7212 9.89648C56.1367 9.64211 56.654 9.5147 57.2729 9.51465ZM30.6333 7.44141C31.2182 7.44144 31.7906 7.50891 32.3501 7.64453C32.9183 7.77174 33.4228 7.96337 33.8638 8.21777L33.0884 10.0879C32.6643 9.85891 32.2442 9.68838 31.8286 9.57812C31.4133 9.45947 31.0105 9.40044 30.6206 9.40039C30.273 9.40039 29.9927 9.43839 29.7808 9.51465C29.5688 9.58249 29.416 9.67621 29.3228 9.79492C29.2295 9.91365 29.1831 10.0495 29.1831 10.2021C29.1832 10.3971 29.2717 10.5542 29.4497 10.6729C29.6363 10.7831 29.8785 10.8758 30.1753 10.9521C30.4805 11.02 30.8114 11.0926 31.1675 11.1689C31.532 11.2453 31.8925 11.3423 32.2485 11.4609C32.6131 11.5712 32.9439 11.7239 33.2407 11.9189C33.5376 12.1055 33.7755 12.3561 33.9536 12.6699C34.14 12.9751 34.2329 13.361 34.2329 13.8271C34.2329 14.3444 34.0844 14.8237 33.7876 15.2646C33.4992 15.6972 33.0622 16.0457 32.4771 16.3086C31.9005 16.5713 31.1712 16.7021 30.2896 16.7021C29.5602 16.7021 28.8557 16.6136 28.1772 16.4355C27.5074 16.249 26.9606 16.011 26.5366 15.7227L27.3638 13.8652C27.7624 14.1197 28.2205 14.3323 28.7378 14.502C29.2635 14.663 29.7851 14.7432 30.3022 14.7432C30.6499 14.7432 30.9301 14.7137 31.1421 14.6543C31.3539 14.5865 31.5069 14.5021 31.6001 14.4004C31.7018 14.2902 31.7524 14.1626 31.7524 14.0186C31.7524 13.815 31.6587 13.6539 31.4722 13.5352C31.2856 13.4165 31.0443 13.3185 30.7476 13.2422C30.4508 13.1659 30.1199 13.09 29.7554 13.0137C29.3992 12.9373 29.038 12.8394 28.6733 12.7207C28.3173 12.602 27.9906 12.4492 27.6938 12.2627C27.3973 12.0677 27.1557 11.8177 26.9692 11.5127C26.7827 11.1989 26.689 10.804 26.689 10.3291C26.689 9.79486 26.8333 9.31139 27.1216 8.87891C27.4184 8.4464 27.8597 8.09884 28.4448 7.83594C29.03 7.57303 29.7598 7.44141 30.6333 7.44141ZM37.6733 13.0898C37.6734 13.6239 37.7713 14.0055 37.9663 14.2344C38.1698 14.4634 38.4542 14.5781 38.8188 14.5781C39.0562 14.5781 39.2723 14.5223 39.4673 14.4121C39.6623 14.3019 39.8193 14.1281 39.938 13.8906C40.0567 13.6447 40.1167 13.3308 40.1167 12.9492V9.62891H42.5337V16.5244H40.231V15.8027C40.0615 15.9889 39.8666 16.1446 39.646 16.2695C39.1966 16.5154 38.7087 16.6386 38.1831 16.6387C37.6234 16.6387 37.1179 16.5281 36.6685 16.3076C36.2276 16.0871 35.8798 15.7437 35.6255 15.2773C35.3796 14.8024 35.2563 14.2042 35.2563 13.4834V9.62891H37.6733V13.0898ZM65.2407 9.51465C65.9954 9.51465 66.6654 9.66742 67.2505 9.97266C67.8441 10.2695 68.3065 10.6854 68.6372 11.2197C68.9678 11.7539 69.1332 12.3683 69.1333 13.0635C69.1333 13.7588 68.9679 14.3782 68.6372 14.9209C68.3065 15.4552 67.8441 15.8754 67.2505 16.1807C66.6654 16.4859 65.9954 16.6387 65.2407 16.6387C64.486 16.6387 63.8161 16.4859 63.231 16.1807C62.6458 15.8754 62.1835 15.4552 61.8442 14.9209C61.5136 14.3782 61.3481 13.7588 61.3481 13.0635C61.3482 12.3684 61.5137 11.7538 61.8442 11.2197C62.1835 10.6854 62.6458 10.2695 63.231 9.97266C63.8161 9.66739 64.486 9.51466 65.2407 9.51465ZM78.5142 9.88379H80.0923V11.6904H78.5142V13.9805C78.5142 14.2264 78.5826 14.4213 78.7183 14.5654C78.8539 14.7011 79.0278 14.7695 79.2397 14.7695C79.5279 14.7695 79.7736 14.6968 79.9771 14.5527L80.5757 16.2451C80.3722 16.3808 80.1215 16.4777 79.8247 16.5371C79.5279 16.605 79.2183 16.6387 78.896 16.6387C78.0141 16.6387 77.3273 16.4227 76.8354 15.9902C76.3436 15.5492 76.0972 14.8879 76.0972 14.0059V11.6904H75.0923V9.88379H76.0972V8.09082H78.5142V9.88379ZM93.4624 9.51465C94.1408 9.51466 94.7601 9.65471 95.3198 9.93457C95.8794 10.2059 96.3251 10.6084 96.6558 11.1426C96.9865 11.6769 97.1519 12.3266 97.1519 13.0898C97.1518 13.1745 97.1476 13.2719 97.1392 13.3818C97.1307 13.4921 97.1223 13.5942 97.1138 13.6875H92.1069C92.1402 13.8102 92.1825 13.9257 92.2407 14.0312C92.3849 14.2771 92.5892 14.4679 92.8521 14.6035C93.1149 14.7306 93.429 14.7939 93.7935 14.7939C94.1323 14.7939 94.4204 14.7474 94.6577 14.6543C94.9036 14.5525 95.1459 14.3998 95.3833 14.1963L96.6558 15.5195C96.325 15.8842 95.9174 16.1633 95.4341 16.3584C94.9507 16.545 94.3778 16.6387 93.7163 16.6387C92.9023 16.6386 92.1901 16.4859 91.5796 16.1807C90.9775 15.8669 90.5067 15.4425 90.1675 14.9082C89.8368 14.3655 89.6714 13.7503 89.6714 13.0635C89.6715 12.3768 89.8327 11.7665 90.1548 11.2324C90.4855 10.6896 90.9394 10.2695 91.5161 9.97266C92.0928 9.66739 92.7416 9.51465 93.4624 9.51465ZM100.683 10.2334C100.81 10.1027 100.95 9.99029 101.103 9.89648C101.519 9.64212 102.019 9.51467 102.604 9.51465C103.232 9.51465 103.8 9.65892 104.309 9.94727C104.826 10.2356 105.233 10.6474 105.53 11.1816C105.835 11.7075 105.988 12.3351 105.988 13.0645C105.988 13.8022 105.835 14.4384 105.53 14.9727C105.233 15.4982 104.826 15.9093 104.309 16.2061C103.8 16.4944 103.232 16.6387 102.604 16.6387C101.985 16.6387 101.468 16.5121 101.052 16.2578C100.87 16.144 100.71 16.0011 100.569 15.833V16.5244H98.2661V7.08496H100.683V10.2334ZM115.517 9.51465C116.637 9.51465 117.502 9.77368 118.113 10.291C118.732 10.7999 119.042 11.6014 119.042 12.6953V16.5244H116.79V15.6289C116.65 15.8984 116.456 16.1166 116.205 16.2822C115.84 16.5197 115.356 16.6386 114.754 16.6387C114.203 16.6387 113.737 16.545 113.355 16.3584C112.973 16.1718 112.681 15.9179 112.477 15.5957C112.282 15.2736 112.184 14.9131 112.184 14.5146C112.184 14.0906 112.29 13.7252 112.502 13.4199C112.723 13.1062 113.058 12.8691 113.507 12.708C113.957 12.5384 114.538 12.4531 115.25 12.4531H116.621C116.601 12.1211 116.484 11.8627 116.268 11.6777C116.039 11.4658 115.67 11.3594 115.162 11.3594C114.831 11.3594 114.496 11.4143 114.157 11.5244C113.818 11.6261 113.529 11.7706 113.292 11.957L112.477 10.3164C112.867 10.062 113.334 9.86714 113.876 9.73145C114.428 9.5873 114.974 9.51468 115.517 9.51465ZM74.8716 11.6904C74.7613 11.6735 74.6634 11.665 74.5786 11.665C74.5024 11.6566 74.4178 11.6524 74.3247 11.6523C73.8329 11.6523 73.4337 11.7873 73.1284 12.0586C72.8231 12.3215 72.6704 12.7544 72.6704 13.3564V16.5244H70.2534V9.62891H72.5562V10.4619C72.7329 10.2368 72.948 10.0518 73.2046 9.90918C73.6626 9.64627 74.2186 9.51465 74.8716 9.51465V11.6904ZM111.729 11.6904C111.619 11.6735 111.521 11.665 111.436 11.665C111.36 11.6566 111.275 11.6523 111.182 11.6523C110.69 11.6523 110.291 11.7872 109.986 12.0586C109.681 12.3215 109.528 12.7544 109.528 13.3564V16.5244H107.111V9.62891H109.414V10.4629C109.59 10.2375 109.805 10.0519 110.062 9.90918C110.52 9.64627 111.076 9.51465 111.729 9.51465V11.6904ZM88.9624 9.19629L84.4712 14.5264H89.1528V16.5234H81.1763V14.9463L85.6675 9.61621H81.2915V7.61914H88.9624V9.19629ZM115.581 13.7129C115.191 13.7129 114.915 13.7763 114.754 13.9033C114.602 14.0305 114.525 14.2002 114.525 14.4121C114.525 14.6241 114.606 14.7937 114.767 14.9209C114.928 15.0481 115.148 15.1123 115.428 15.1123C115.691 15.1123 115.929 15.0481 116.141 14.9209C116.361 14.7852 116.523 14.5818 116.625 14.3105V13.7129H115.581ZM47.9194 11.4355C47.6481 11.4355 47.4016 11.4988 47.1812 11.626C46.9691 11.7532 46.7954 11.9406 46.6597 12.1865C46.5325 12.4324 46.4692 12.7296 46.4692 13.0771C46.4693 13.4245 46.5326 13.721 46.6597 13.9668C46.7954 14.2127 46.9691 14.4001 47.1812 14.5273C47.4016 14.6545 47.6481 14.7178 47.9194 14.7178C48.1905 14.7177 48.4322 14.6544 48.644 14.5273C48.8645 14.4001 49.0383 14.2127 49.1655 13.9668C49.3011 13.721 49.3696 13.4246 49.3696 13.0771C49.3696 12.7295 49.3012 12.4324 49.1655 12.1865C49.0383 11.9406 48.8645 11.7532 48.644 11.626C48.4322 11.4989 48.1905 11.4356 47.9194 11.4355ZM56.7642 11.4355C56.493 11.4356 56.2472 11.499 56.0269 11.626C55.8148 11.7532 55.6411 11.9406 55.5054 12.1865C55.3782 12.4324 55.314 12.7295 55.314 13.0771C55.314 13.4246 55.3783 13.721 55.5054 13.9668C55.6411 14.2127 55.8148 14.4001 56.0269 14.5273C56.2472 14.6544 56.493 14.7177 56.7642 14.7178C57.0355 14.7178 57.2777 14.6545 57.4897 14.5273C57.7102 14.4001 57.884 14.2127 58.0112 13.9668C58.1467 13.721 58.2143 13.4245 58.2144 13.0771C58.2144 12.7296 58.1468 12.4324 58.0112 12.1865C57.884 11.9406 57.7102 11.7532 57.4897 11.626C57.2777 11.4988 57.0355 11.4355 56.7642 11.4355ZM65.2407 11.4355C64.9696 11.4356 64.7238 11.499 64.5034 11.626C64.2914 11.7532 64.1166 11.9406 63.981 12.1865C63.854 12.4238 63.7906 12.7162 63.7905 13.0635C63.7905 13.411 63.8539 13.7125 63.981 13.9668C64.1166 14.2127 64.2914 14.4001 64.5034 14.5273C64.7238 14.6543 64.9696 14.7178 65.2407 14.7178C65.5206 14.7178 65.767 14.6546 65.979 14.5273C66.1995 14.4001 66.3733 14.2127 66.5005 13.9668C66.6276 13.7125 66.6909 13.411 66.6909 13.0635C66.6909 12.7162 66.6275 12.4238 66.5005 12.1865C66.3733 11.9406 66.1995 11.7532 65.979 11.626C65.767 11.4988 65.5206 11.4355 65.2407 11.4355ZM102.095 11.4355C101.824 11.4356 101.578 11.4999 101.358 11.627C101.146 11.7542 100.971 11.9406 100.835 12.1865C100.708 12.424 100.645 12.7168 100.645 13.0645C100.645 13.4121 100.708 13.7134 100.835 13.9678C100.971 14.2137 101.146 14.4001 101.358 14.5273C101.578 14.6544 101.824 14.7178 102.095 14.7178C102.367 14.7178 102.609 14.6546 102.821 14.5273C103.041 14.4001 103.215 14.2136 103.342 13.9678C103.478 13.7134 103.545 13.4121 103.545 13.0645C103.545 12.7168 103.478 12.424 103.342 12.1865C103.215 11.9407 103.041 11.7542 102.821 11.627C102.609 11.4997 102.367 11.4355 102.095 11.4355ZM93.4751 11.2324C93.1868 11.2324 92.9319 11.2956 92.7114 11.4229C92.4995 11.5501 92.334 11.7324 92.2153 11.9697C92.146 12.1035 92.0996 12.2523 92.0708 12.415H94.8872C94.8597 12.2474 94.8111 12.0942 94.7349 11.957C94.6162 11.7282 94.4464 11.5501 94.2261 11.4229C94.0141 11.2956 93.7634 11.2324 93.4751 11.2324Z" fill="#74829A"/>
</g>
</svg>
