<svg width="80" height="42" viewBox="0 0 80 42" fill="none" xmlns="http://www.w3.org/2000/svg">
<g id="Group 6054">
<g id="layer1">
<g id="g881">
<path id="path14" d="M43.1278 31.6678L42.7711 25.7173L40.1762 31.6678H39.2948L36.686 25.7173L36.2873 31.6678H34.4678L35.1749 22.3496H37.0764L39.827 28.485L42.4764 22.3496H44.3398L45.0467 31.6678H43.1278Z" fill="#74829A"/>
<path id="path16" d="M0.507324 31.6678V22.3496H7.05021L6.56707 23.8968H2.44645V26.3305H6.2622V27.8697H2.44645V31.6678H0.507324Z" fill="#74829A"/>
<path id="path18" d="M50.0254 31.6678V22.3496H56.2975L55.8146 23.8967H51.9654V26.0398H55.7636V27.5796H51.9654V30.077H56.1836V31.6678H50.0254Z" fill="#74829A"/>
<path id="path20" d="M15.1781 28.32L13.7866 24.6928L12.4139 28.32H15.1781ZM16.3787 31.668L15.677 29.7841H11.9235L11.2311 31.668H9.25586L12.9553 22.3496H14.7675L18.506 31.668H16.3787Z" fill="#74829A"/>
<path id="path22" d="M64.2962 26.6125C65.5274 26.6125 66.0335 25.9892 66.0335 25.2328C66.0335 24.4767 65.5318 23.8528 64.3109 23.8528H63.1293V26.6125H64.2962ZM66.4973 31.668L63.998 28.0867H63.1293V31.668H61.1821V22.3496H64.4933C67.0798 22.3496 67.9917 23.7925 67.9917 25.1604C67.9917 26.3976 67.2429 27.3446 66.0267 27.7694L68.8668 31.668H66.4973Z" fill="#74829A"/>
<path id="path24" d="M25.726 26.6125C26.9572 26.6125 27.4635 25.9892 27.4635 25.2328C27.4635 24.4767 26.9618 23.8528 25.741 23.8528H24.5592V26.6125H25.726ZM27.9273 31.668L25.428 28.0867H24.5592V31.668H22.6123V22.3496H25.9235C28.5101 22.3496 29.4219 23.7925 29.4219 25.1604C29.4219 26.3976 28.6734 27.3446 27.4572 27.7694L30.2967 31.668H27.9273Z" fill="#74829A"/>
<path id="path26" d="M75.9865 31.8125C74.7378 31.8125 73.6964 31.519 72.5049 30.7434L73.3647 29.2808C74.2756 29.8889 74.9559 30.1867 75.9865 30.1867C77.007 30.1867 77.569 29.7825 77.569 29.0894C77.569 28.4406 76.9388 28.1795 76.5763 28.0454C76.2143 27.9115 75.3698 27.601 74.7769 27.3717C73.5682 26.9057 72.9583 26.074 72.9583 24.9136C72.9583 23.6634 73.839 22.2041 76.32 22.2041C77.1409 22.2041 78.1689 22.4204 78.8357 22.6893V24.4944C78.089 24.0576 77.1919 23.7428 76.2627 23.7428C75.619 23.7428 74.854 23.9347 74.854 24.7396C74.854 25.3479 75.419 25.601 75.7633 25.7369C76.1476 25.8885 77.0014 26.2011 77.5733 26.4133C78.8421 26.884 79.4926 27.7142 79.4926 28.886C79.4926 30.3427 78.4086 31.8125 75.9865 31.8125Z" fill="#74829A"/>
<path id="path28" d="M62.8525 41.9197V36.7949H66.3256L66.0721 37.5948H63.8864V38.8367H66.035V39.6441H63.8864V41.0963H66.2723V41.9197H62.8525Z" fill="#74829A"/>
<path id="path30" d="M13.6719 41.9197V36.7949H14.7054V41.9197H13.6719Z" fill="#74829A"/>
<path id="path32" d="M20.7498 41.9197L18.2976 38.4359V41.9197H17.3213V36.7949H18.2408L20.6507 40.2076V36.7949H21.6265V41.9197H20.7498Z" fill="#74829A"/>
<path id="path34" d="M52.8839 41.9197L50.4302 38.4359V41.9197H49.4546V36.7949H50.3742L52.7843 40.2076V36.7949H53.7598V41.9197H52.8839Z" fill="#74829A"/>
<path id="path36" d="M33.1447 36.7949H34.1776V39.8865C34.1776 40.5721 34.0714 41.0402 33.7184 41.4268C33.3739 41.8066 32.866 41.9997 32.1029 41.9997C31.3484 41.9997 30.8317 41.8145 30.4874 41.4268C30.1351 41.048 30.0205 40.5804 30.0205 39.8943V36.7949H31.0538V39.9421C31.0538 40.3863 31.1027 40.5882 31.2667 40.782C31.4389 40.9835 31.7091 41.1045 32.0949 41.1045C32.4889 41.1045 32.7589 40.9835 32.9311 40.782C33.0953 40.5882 33.1447 40.3863 33.1447 39.9421V36.7949Z" fill="#74829A"/>
<path id="path38" d="M39.0731 37.7399C38.8925 37.6186 38.6961 37.5708 38.4086 37.5708H37.8184V39.168H38.4003C38.6961 39.168 38.8925 39.1194 39.0731 38.9983C39.2534 38.8773 39.3848 38.6435 39.3848 38.3696C39.3848 38.095 39.2534 37.8612 39.0731 37.7399ZM39.6103 41.9197L38.2687 39.9264H37.8184V41.9197H36.7847V36.7949H38.5232C39.0485 36.7949 39.5158 36.8999 39.8359 37.1419C40.1716 37.4 40.4096 37.8047 40.4096 38.3288C40.4096 39.0552 39.9748 39.5554 39.3433 39.7647L40.8606 41.9197H39.6103Z" fill="#74829A"/>
<path id="path40" d="M25.983 36.7139C24.5893 36.7139 24.1132 37.5302 24.1132 38.1918C24.1132 38.9422 24.5972 39.33 25.1219 39.5313C25.2614 39.5878 25.9258 39.8212 26.1304 39.9024C26.3359 39.983 26.7213 40.1284 26.7213 40.5158C26.7213 40.9029 26.4093 41.1451 25.7947 41.1451C25.1793 41.1451 24.7741 40.9508 24.3224 40.6537L23.8677 41.4268C24.3971 41.7709 25.008 42.0002 25.7947 42.0002C27.2131 42.0002 27.7462 41.1372 27.7462 40.403C27.7462 39.8295 27.4588 39.3378 26.6803 39.0554C26.5324 38.9985 25.8762 38.7647 25.6879 38.6919C25.4991 38.6119 25.1219 38.4743 25.1219 38.0952C25.1219 37.716 25.4173 37.5216 25.9501 37.5216C26.4203 37.5216 26.9149 37.6609 27.3745 37.9176V36.9743C27.039 36.8421 26.4627 36.7139 25.983 36.7139Z" fill="#74829A"/>
<path id="path42" d="M58.6793 36.7139C57.3203 36.7139 56.1191 37.6594 56.1191 39.3539C56.1191 41.0482 57.1971 42.0002 58.6387 42.0002C59.3517 42.0002 59.9481 41.8142 60.4776 41.5038L60.0891 40.6604C59.7072 40.9242 59.2543 41.0804 58.7122 41.0804C57.8021 41.0804 57.1682 40.3865 57.1682 39.3378C57.1682 38.2885 57.8266 37.6025 58.729 37.6025C59.3558 37.6025 59.8428 37.7566 60.2598 38.0097V36.9933C59.8189 36.8225 59.3649 36.7139 58.6793 36.7139Z" fill="#74829A"/>
<path id="path44" d="M44.1744 40.0556L44.9154 37.9754L45.6673 40.0556H44.1744ZM46.3193 41.9197H47.4185L45.4231 36.7949H44.4886L42.5146 41.9197H43.5312L43.899 40.8713H45.9461L46.3193 41.9197Z" fill="#74829A"/>
<path id="path48" d="M39.9922 19.7899C43.8246 17.9381 45.192 14.442 45.3772 10.335H39.9922V19.7899Z" fill="#74829A"/>
<path id="path50" d="M39.9914 19.7899C36.1585 17.9381 34.791 14.442 34.606 10.335H39.9914V19.7899Z" fill="#A8AFBD"/>
<path id="path52" d="M32.1769 17.7684C31.1171 17.091 30.1113 16.3374 29.2601 15.6527C25.8853 16.5708 23.0693 17.7686 23.0693 17.7686L32.1769 17.7684ZM56.9154 17.7686C56.9154 17.7686 54.1006 16.5708 50.7243 15.6527C49.8732 16.3374 48.8675 17.091 47.8093 17.7684L56.9154 17.7686ZM33.6697 13.1741C33.2101 12.0013 32.8386 10.8008 32.553 9.74642C29.3082 8.51599 26.3045 7.81923 26.3045 7.81923C26.3041 7.81941 27.8792 10.4448 30.0686 13.1695C31.1584 13.1171 32.4148 13.0995 33.6697 13.1743V13.1741ZM46.3154 13.1741C47.5709 13.0995 48.8273 13.117 49.9171 13.1693C52.1068 10.4446 53.6817 7.81921 53.6815 7.81903C53.6815 7.81903 50.6764 8.51579 47.4332 9.74622C47.1458 10.8006 46.7758 12.0011 46.3154 13.1739V13.1741ZM42.4084 10.3348C43.3803 9.53636 44.4058 8.81107 45.319 8.21433C45.4888 4.72066 45.2213 1.6709 45.2213 1.6709C45.2213 1.6709 43.2009 3.99703 41.2978 6.90602C41.6865 7.9251 42.0911 9.11641 42.4083 10.3348H42.4084ZM34.765 1.6709C34.765 1.6709 36.7851 3.99703 38.688 6.90602C38.2995 7.9251 37.8951 9.11641 37.5777 10.3348C36.6058 9.53636 35.5786 8.81107 34.6654 8.21433C34.497 4.72066 34.765 1.6709 34.765 1.6709" fill="#A8AFBD"/>
<path id="path54" d="M56.9104 17.7666C56.9093 14.0468 55.7105 10.6091 53.6769 7.81836C53.6745 7.82194 52.1018 10.4429 49.9121 13.1676C51.827 13.2612 53.2328 13.4634 53.2328 13.4634C52.3582 14.2996 51.6347 14.9393 50.7193 15.6507C54.0956 16.5689 56.9104 17.7666 56.9104 17.7666Z" fill="#74829A"/>
<path id="path56" d="M53.6804 7.81923C51.6009 4.96546 48.6508 2.78414 45.2202 1.6709C45.2202 1.6709 45.4877 4.72066 45.3179 8.21433C46.9226 7.16435 48.1766 6.50214 48.1766 6.50214C48.1766 6.50214 47.9349 7.89949 47.4321 9.74642C50.6753 8.51599 53.6805 7.81923 53.6805 7.81923" fill="#74829A"/>
<path id="path58" d="M34.769 1.66994C34.769 1.66994 36.7891 3.99607 38.692 6.90506C39.367 5.1265 39.9961 3.84141 39.9961 3.84141C39.9961 3.84141 40.6267 5.1265 41.3019 6.90506C43.2049 3.99607 45.2254 1.66994 45.2254 1.66994C43.5775 1.13609 41.8205 0.84668 39.9967 0.84668C38.1722 0.84668 36.415 1.13609 34.769 1.66994Z" fill="#74829A"/>
<path id="path60" d="M26.3041 7.81836C24.2702 10.6091 23.0701 14.0468 23.0693 17.7666C23.0693 17.7666 25.8853 16.5689 29.2601 15.6507C28.3448 14.9393 27.6227 14.2996 26.748 13.4634C26.748 13.4634 28.1543 13.2612 30.0686 13.1676C27.8792 10.4429 26.3063 7.82165 26.3041 7.81836Z" fill="#74829A"/>
<path id="path62" d="M26.3028 7.81923C26.3028 7.81923 29.3065 8.51599 32.5513 9.74642C32.048 7.89949 31.8063 6.50214 31.8063 6.50214C31.8063 6.50214 33.0612 7.16435 34.6637 8.21433C34.4953 4.72066 34.7633 1.6709 34.7633 1.6709C31.3323 2.78414 28.3806 4.96546 26.3027 7.81923" fill="#74829A"/>
<path id="path64" d="M78.6539 19.4659H78.5029V19.812H78.6539C78.7703 19.812 78.8428 19.757 78.8428 19.6372C78.8452 19.5213 78.7704 19.4659 78.6539 19.4659ZM78.8746 20.3175L78.642 19.9281H78.5057V20.3175H78.3546V19.3498H78.6682C78.8457 19.3498 78.9998 19.4397 78.9998 19.6372C78.9998 19.838 78.8399 19.902 78.7993 19.9107L79.0488 20.3175H78.8746ZM78.651 19.1112C78.2437 19.1112 77.9275 19.4312 77.9275 19.8352C77.9275 20.242 78.2437 20.5616 78.651 20.5616C79.0578 20.5616 79.3745 20.242 79.3745 19.8352C79.3745 19.4312 79.0578 19.1112 78.651 19.1112ZM78.651 20.6751C78.1826 20.6751 77.8105 20.306 77.8105 19.838C77.8105 19.3672 78.1826 18.998 78.651 18.998C79.1188 18.998 79.4876 19.3672 79.4876 19.8352C79.4876 20.306 79.1188 20.6751 78.651 20.6751Z" fill="#74829A"/>
</g>
</g>
</g>
</svg>
