<svg width="98" height="44" viewBox="0 0 98 44" fill="none" xmlns="http://www.w3.org/2000/svg">
<g id="Group 7179">
<g id="Group">
<path id="Vector" d="M7.55543 38.878H5.9264C5.89907 38.6648 5.83347 38.4734 5.746 38.3095C5.65307 38.14 5.53827 37.9979 5.39068 37.8831C5.24855 37.7628 5.07908 37.6753 4.89322 37.6097C4.70736 37.5496 4.5051 37.5168 4.28644 37.5168C3.89285 37.5168 3.54845 37.6152 3.25326 37.812C2.95807 38.0088 2.73394 38.2931 2.56994 38.6702C2.40595 39.0474 2.32941 39.5012 2.32941 40.0369C2.32941 40.5726 2.41141 41.0482 2.57541 41.4254C2.73941 41.7971 2.96353 42.0814 3.25873 42.2727C3.55392 42.464 3.89285 42.557 4.2755 42.557C4.65816 42.557 4.69096 42.5296 4.87682 42.4695C5.06268 42.4094 5.22668 42.3274 5.36881 42.2126C5.51094 42.1032 5.6312 41.9666 5.7296 41.8026C5.82253 41.644 5.8936 41.4582 5.9264 41.2504H7.55543C7.51169 41.6112 7.40783 41.9556 7.23837 42.2836C7.0689 42.6116 6.84478 42.9068 6.56598 43.1637C6.28172 43.4207 5.94826 43.6229 5.56014 43.776C5.17202 43.9236 4.73469 44.0001 4.2427 44.0001C3.75072 44.0001 2.9526 43.8471 2.42235 43.5355C1.88663 43.2239 1.4657 42.7756 1.15411 42.1852C0.842516 41.5948 0.689453 40.8787 0.689453 40.0423C0.689453 39.206 0.847983 38.4844 1.15958 37.894C1.47117 37.3036 1.89756 36.8554 2.43328 36.5438C2.969 36.2322 3.57032 36.0791 4.2427 36.0791C4.91509 36.0791 5.09548 36.1392 5.47267 36.265C5.84987 36.3907 6.18879 36.5711 6.47852 36.8116C6.77371 37.0521 7.00877 37.3473 7.19463 37.6917C7.3805 38.0361 7.50076 38.4352 7.54996 38.8834L7.55543 38.878Z" fill="#74829A"/>
<path id="Vector_2" d="M13.5194 43.8906H15.2468L12.6174 36.1719H10.5401L7.90527 43.8906H9.6327L10.1958 42.1304H12.9509L13.5139 43.8906H13.5194ZM10.6112 40.8567L11.5515 37.9376H11.6116L12.5464 40.8567H10.6112Z" fill="#74829A"/>
<path id="Vector_3" d="M18.6415 43.8906H15.9355V36.1719H18.6633C19.4287 36.1719 20.0901 36.3249 20.6422 36.6311C21.1944 36.9372 21.6207 37.38 21.9214 37.954C22.2221 38.528 22.3697 39.2167 22.3697 40.0203C22.3697 40.8239 22.2221 41.5127 21.9214 42.0921C21.6207 42.6716 21.1944 43.1144 20.6368 43.4205C20.0792 43.7321 19.4123 43.8852 18.6415 43.8852V43.8906ZM17.5536 42.4912H18.5759C19.0515 42.4912 19.456 42.4037 19.7785 42.2343C20.1065 42.0648 20.3525 41.7969 20.5165 41.4307C20.6805 41.0699 20.7625 40.5998 20.7625 40.0258C20.7625 39.4518 20.6805 38.9871 20.5165 38.6264C20.3525 38.2656 20.1065 37.9977 19.7785 37.8282C19.456 37.6588 19.0515 37.5713 18.5759 37.5713H17.5482V42.4912H17.5536Z" fill="#74829A"/>
<path id="Vector_4" d="M28.0657 36.1719H29.6783V41.1847C29.6783 41.7477 29.5471 42.2397 29.2792 42.6607C29.0169 43.0816 28.6451 43.4096 28.1695 43.6446C27.6939 43.8797 27.1418 43.9945 26.5132 43.9945C25.8845 43.9945 25.3269 43.8797 24.8513 43.6446C24.3758 43.4096 24.0095 43.0816 23.7471 42.6607C23.4847 42.2397 23.3535 41.7477 23.3535 41.1847V36.1719H24.9661V41.0426C24.9661 41.3378 25.0317 41.6001 25.1575 41.8243C25.2832 42.0539 25.4636 42.2343 25.6987 42.3655C25.9337 42.4967 26.2016 42.5623 26.5132 42.5623C26.8248 42.5623 27.0981 42.4967 27.3332 42.3655C27.5627 42.2343 27.7431 42.0539 27.8743 41.8243C28.0001 41.5947 28.0657 41.3323 28.0657 41.0426V36.1719Z" fill="#74829A"/>
<path id="Vector_5" d="M37.3591 38.8116H35.7301C35.7028 38.5984 35.6372 38.407 35.5497 38.243C35.4568 38.0736 35.342 37.9315 35.1944 37.8167C35.0523 37.6964 34.8828 37.6089 34.6969 37.5433C34.5111 37.4832 34.3088 37.4504 34.0901 37.4504C33.6966 37.4504 33.3522 37.5488 33.057 37.7456C32.7618 37.9424 32.5376 38.2266 32.3737 38.6038C32.2097 38.981 32.1331 39.4347 32.1331 39.9705C32.1331 40.5062 32.2151 40.9818 32.3791 41.359C32.5431 41.7307 32.7672 42.015 33.0624 42.2063C33.3576 42.3976 33.6966 42.4905 34.0792 42.4905C34.4619 42.4905 34.4947 42.4632 34.6805 42.4031C34.8664 42.3429 35.0304 42.2609 35.1725 42.1461C35.3146 42.0368 35.4349 41.9002 35.5333 41.7362C35.6262 41.5776 35.6973 41.3918 35.7301 41.184H37.3591C37.3154 41.5448 37.2115 41.8892 37.0421 42.2172C36.8726 42.5452 36.6485 42.8404 36.3697 43.0973C36.0854 43.3543 35.752 43.5565 35.3638 43.7096C34.9757 43.8572 34.5384 43.9337 34.0464 43.9337C33.5544 43.9337 32.7563 43.7806 32.2261 43.4691C31.6903 43.1575 31.2694 42.7092 30.9578 42.1188C30.6462 41.5284 30.4932 40.8123 30.4932 39.9759C30.4932 39.1396 30.6517 38.418 30.9633 37.8276C31.2749 37.2372 31.7013 36.7889 32.237 36.4774C32.7727 36.1658 33.374 36.0127 34.0464 36.0127C34.7188 36.0127 34.8992 36.0728 35.2764 36.1986C35.6536 36.3243 35.9925 36.5047 36.2822 36.7452C36.5774 36.9857 36.8125 37.2809 36.9983 37.6253C37.1842 37.9697 37.3045 38.3688 37.3537 38.817L37.3591 38.8116Z" fill="#74829A"/>
<path id="Vector_6" d="M38.3921 43.8408V36.1221H43.9242V37.4668H40.125V39.3036H43.64V40.6484H40.125V42.4906H43.9406V43.8354H38.3921V43.8408Z" fill="#74829A"/>
<path id="Vector_7" d="M49.8386 36.1719H51.4513V41.1847C51.4513 41.7477 51.3201 42.2397 51.0522 42.6607C50.7898 43.0816 50.4181 43.4096 49.9425 43.6446C49.4669 43.8797 48.9148 43.9945 48.2861 43.9945C47.6575 43.9945 47.0999 43.8797 46.6243 43.6446C46.1487 43.4096 45.7825 43.0816 45.5201 42.6607C45.2577 42.2397 45.1265 41.7477 45.1265 41.1847V36.1719H46.7391V41.0426C46.7391 41.3378 46.8047 41.6001 46.9304 41.8243C47.0562 42.0539 47.2365 42.2343 47.4716 42.3655C47.7067 42.4967 47.9745 42.5623 48.2861 42.5623C48.5977 42.5623 48.871 42.4967 49.1061 42.3655C49.3357 42.2343 49.5161 42.0539 49.6473 41.8243C49.773 41.5947 49.8386 41.3323 49.8386 41.0426V36.1719Z" fill="#74829A"/>
<path id="Vector_8" d="M56.6833 38.3912C56.656 38.0851 56.5248 37.8501 56.3006 37.6806C56.0765 37.5111 55.7704 37.4291 55.3823 37.4291C54.9941 37.4291 54.8957 37.4674 54.7153 37.5385C54.5349 37.615 54.3983 37.7134 54.2999 37.8446C54.2069 37.9758 54.1578 38.1234 54.1578 38.2874C54.1578 38.424 54.1796 38.5443 54.2452 38.6482C54.3108 38.752 54.3983 38.8395 54.5076 38.916C54.6169 38.9926 54.7481 39.0527 54.8957 39.1074C55.0433 39.162 55.1964 39.2058 55.3659 39.244L56.0492 39.408C56.3826 39.4846 56.6888 39.583 56.9675 39.7087C57.2463 39.8344 57.4869 39.9875 57.6891 40.1733C57.8914 40.3592 58.0499 40.5724 58.1647 40.8239C58.2795 41.0699 58.3342 41.3596 58.3397 41.6766C58.3397 42.1468 58.2194 42.5568 57.9843 42.9011C57.7493 43.2455 57.4103 43.5134 56.973 43.7047C56.5302 43.896 56 43.989 55.3823 43.989C54.7645 43.989 54.2288 43.896 53.7751 43.7047C53.3214 43.5134 52.966 43.2291 52.7091 42.8574C52.4522 42.4802 52.321 42.0156 52.3101 41.4634H53.868C53.8844 41.7204 53.961 41.939 54.0921 42.1085C54.2233 42.278 54.3983 42.4092 54.6169 42.4966C54.8356 42.5841 55.0871 42.6278 55.3659 42.6278C55.6446 42.6278 55.8742 42.5895 56.0765 42.5076C56.2788 42.4256 56.4373 42.3162 56.5466 42.1741C56.656 42.032 56.7161 41.868 56.7161 41.6821C56.7161 41.4962 56.6669 41.365 56.563 41.2448C56.4646 41.1245 56.317 41.0261 56.1257 40.9441C55.9344 40.8621 55.6993 40.7856 55.4205 40.72L54.5896 40.5068C53.9446 40.3483 53.4416 40.1023 53.0644 39.7633C52.6927 39.4244 52.5069 38.9707 52.5069 38.4022C52.5069 37.9375 52.6271 37.5275 52.8786 37.1777C53.13 36.8278 53.469 36.5545 53.9063 36.3577C54.3436 36.1609 54.8411 36.0625 55.3932 36.0625C55.9453 36.0625 56.4537 36.1609 56.8746 36.3577C57.2955 36.5545 57.629 36.8278 57.8641 37.1777C58.0991 37.5275 58.2194 37.9321 58.2303 38.3912H56.6833Z" fill="#74829A"/>
<path id="Vector_9" d="M59.8105 43.8906V36.1719H60.5157V39.7087H64.8944V36.1719H65.5996V43.8906H64.8944V40.3428H60.5157V43.8906H59.8105Z" fill="#74829A"/>
<path id="Vector_10" d="M67.1733 43.8906V36.1719H72.2846V36.806H67.9824V39.7087H72.0167V40.3428H67.9824V43.2565H72.372V43.8906H67.1788H67.1733Z" fill="#74829A"/>
<path id="Vector_11" d="M79.1237 43.8906H79.8836L76.9918 36.1719H76.2155L73.3237 43.8906H74.0836L74.9364 41.5674H78.2709L79.1237 43.8906ZM75.1714 40.9332L76.5818 37.0903H76.6365L78.0468 40.9332H75.1769H75.1714Z" fill="#74829A"/>
<path id="Vector_12" d="M80.7905 43.8906V36.1719H81.5832V43.2565H85.7159V43.8906H80.7905Z" fill="#74829A"/>
<path id="Vector_13" d="M84.8413 36.806V36.1719H90.439V36.806H87.9955V43.8906H87.2903V36.806H84.8468H84.8413Z" fill="#74829A"/>
<path id="Vector_14" d="M91.2368 43.8906V36.1719H91.9748V39.7087H96.5722V36.1719H97.3101V43.8906H96.5722V40.3428H91.9748V43.8906H91.2368Z" fill="#74829A"/>
</g>
<g id="Group_2">
<path id="Vector_15" d="M47.9642 0.043728C58.3889 -0.737987 66.2443 9.09085 63.4564 19.1329C60.5865 29.4701 47.6472 33.4224 39.4364 26.469C29.214 17.81 34.6204 1.0441 47.9642 0.043728ZM47.68 1.04957C37.9495 1.92422 32.1714 12.6988 36.6048 21.3906C41.5629 31.1101 55.6064 31.5529 61.1167 22.1067C66.9112 12.1685 59.0613 0.021862 47.6854 1.04957H47.68Z" fill="#74829A"/>
<path id="Vector_16" d="M47.8382 8.64825L47.8546 10.2172C47.2861 10.7693 44.7715 8.46239 44.1811 8.35306C42.1202 7.96494 39.6438 10.485 38.6489 7.48388C39.2557 7.53855 39.6274 7.83374 40.2889 7.76267C41.3986 7.64241 42.8254 6.58737 44.1756 6.76776C45.2908 6.91536 46.5918 8.59359 47.8436 8.64825H47.8382Z" fill="#74829A"/>
<path id="Vector_17" d="M59.3623 7.48354C58.7337 10.4792 55.9239 7.98646 53.9723 8.35272C53.3874 8.46205 50.8619 10.7689 50.2988 10.2168L50.3152 8.64791C51.7475 8.51125 52.9774 6.70729 54.3933 6.76196C56.159 6.82756 57.6131 8.28712 59.3623 7.48354Z" fill="#74829A"/>
<path id="Vector_18" d="M48.2807 21.1498C47.2858 22.5328 44.9844 21.0569 46.0613 19.7176C47.1382 18.3783 51.9488 18.4001 52.1401 17.4599C52.2822 16.782 50.7461 16.6618 50.2979 16.4759C51.5661 15.7379 53.4083 16.1151 52.9983 17.8863C52.8781 18.4056 52.2603 18.6625 51.8121 18.8538C50.8226 19.2857 47.4389 19.7886 46.9851 20.215C46.351 20.8109 47.8379 21.1061 48.2807 21.1553V21.1498Z" fill="#74829A"/>
<path id="Vector_19" d="M48.8554 24.3154L48.8063 22.7957L49.506 22.5989C49.6208 23.7742 49.1014 24.463 48.0628 24.8894C46.5978 24.0913 45.5154 22.916 47.5599 21.9429C48.3471 21.5658 50.7086 21.1503 51.1514 20.7895C51.3427 20.6364 51.3591 20.4834 51.2334 20.2811C51.0311 19.9586 50.1893 20.0297 50.0034 19.7126C50.7851 19.7126 51.4849 18.9691 52.0807 19.7181C53.8683 21.9703 47.8332 22.3529 47.4779 23.0144C47.1772 23.572 48.7024 24.4576 48.85 24.31L48.8554 24.3154Z" fill="#74829A"/>
<path id="Vector_20" d="M47.1329 26.3263C47.532 25.3423 50.3472 24.1342 50.6643 23.4509C50.7463 23.2759 50.7627 23.1939 50.6643 23.019C50.4675 22.6527 49.9154 22.9206 50.0083 22.445L50.9431 22.21C53.4632 23.6531 48.4339 26.0639 47.1274 26.3263H47.1329Z" fill="#74829A"/>
<path id="Vector_21" d="M57.7766 9.92667C57.8313 10.2383 57.4923 10.4132 57.2409 10.4679C56.2186 10.7029 55.0433 10.2219 54.1741 9.71347C54.0047 9.61507 53.376 9.35268 53.458 9.13949C54.7044 7.73459 56.3116 9.872 57.7711 9.93213L57.7766 9.92667Z" fill="#74829A"/>
<path id="Vector_22" d="M44.6842 9.34862C43.3941 9.94994 41.7432 11.1635 40.3711 10.1413L43.4761 8.63797C43.9517 8.56691 44.6514 8.78557 44.6842 9.34862Z" fill="#74829A"/>
<path id="Vector_23" d="M52.8509 9.52306C53.3156 9.40826 53.7583 9.93305 54.1738 10.1462C54.7915 10.4578 55.4202 10.7148 56.0434 11.0045C54.7697 11.8627 53.2008 10.7804 52.1621 9.99865C52.1621 9.94945 52.7306 9.55039 52.8454 9.51759L52.8509 9.52306Z" fill="#74829A"/>
<path id="Vector_24" d="M45.8099 9.80839C45.8701 9.90678 45.8701 10.1036 45.8099 10.1965C45.553 10.6174 42.6503 11.9185 42.0981 11.011C42.6995 10.6776 43.35 10.4589 43.9677 10.1528C44.3996 9.93958 44.815 9.42026 45.2906 9.52959C45.3453 9.54053 45.7881 9.78652 45.8045 9.81385L45.8099 9.80839Z" fill="#74829A"/>
<path id="Vector_25" d="M54.3273 11.7972C53.223 11.8355 51.4737 11.6934 51.02 10.5071L51.9329 10.2393L54.3273 11.7972Z" fill="#74829A"/>
<path id="Vector_26" d="M47.1329 10.5071C46.6738 11.6988 44.9299 11.8355 43.8257 11.7972L46.22 10.2393L47.1329 10.5071Z" fill="#74829A"/>
<path id="Vector_27" d="M47.8491 10.792V12.2297L45.8374 12.0876L47.8491 10.792Z" fill="#74829A"/>
<path id="Vector_28" d="M52.3105 11.9454C52.3214 12.1586 51.7912 12.1969 51.6491 12.2133C51.2008 12.2625 50.7471 12.2188 50.2988 12.2297V10.792L52.3105 11.9454Z" fill="#74829A"/>
<path id="Vector_29" d="M49.5711 19.7441L49.5164 20.9741L48.7565 21.1764L48.7456 19.9355L49.5711 19.7441Z" fill="#74829A"/>
</g>
<path id="Vector_30" d="M50.4022 7.28777C50.4022 6.58805 49.8337 6.01953 49.134 6.01953C48.4342 6.01953 47.8657 6.58805 47.8657 7.28777C47.8657 7.98748 48.2429 8.33734 48.7568 8.49587V8.73093H48.3905L48.549 14.9191L49.6642 14.6949L49.7954 8.73093H49.4401V8.51774C49.9922 8.38108 50.4077 7.88362 50.4077 7.28777H50.4022Z" fill="#74829A"/>
<path id="Vector_31" d="M49.593 18.178L48.6419 18.424L48.5708 16.5161L49.6696 16.3467L49.593 18.178Z" fill="#74829A"/>
<path id="Vector_32" d="M49.3691 27.4757L48.9919 27.4811L48.8989 26.0052L49.3581 25.7373L49.3691 27.4757Z" fill="#74829A"/>
<path id="Vector_33" d="M49.4785 25.6817L49.976 25.2607C49.976 25.2607 51.0966 26.0971 51.1075 26.2229C51.1185 26.3486 50.6976 26.3978 50.2712 26.1846C49.8448 25.9714 49.484 25.6762 49.484 25.6762L49.4785 25.6817Z" fill="#74829A"/>
<path id="Vector_34" d="M44.6898 14.0277C45.2638 13.2186 48.008 14.875 47.8604 13.5958C47.7729 12.825 44.0338 12.1362 43.7113 13.9183C43.4707 15.2576 45.1107 15.6403 46.1603 15.6567L47.8494 14.9679C47.3574 15.0007 44.7062 14.547 44.6898 14.0331V14.0277ZM47.0513 13.1694C47.177 13.1694 47.2809 13.2733 47.2809 13.399C47.2809 13.5247 47.177 13.6286 47.0513 13.6286C46.9256 13.6286 46.8217 13.5247 46.8217 13.399C46.8217 13.2733 46.9256 13.1694 47.0513 13.1694Z" fill="#74829A"/>
<path id="Vector_35" d="M54.4037 13.8025C53.8789 12.1844 50.3803 12.8075 50.2874 13.5947C50.1398 14.8684 52.9387 13.2121 53.458 14.0266C53.0753 14.5076 52.4467 14.6115 51.8836 14.7482C50.2874 15.1363 46.5209 15.3112 45.4112 16.4811C44.471 17.4705 45.5096 18.9301 46.6248 18.9246C47.0512 18.9246 47.6252 18.4545 48.1336 18.5529C47.8657 18.121 45.2527 17.8696 46.1547 17.0058C46.7396 16.4483 50.7356 15.9836 51.7579 15.7759C52.7856 15.5681 54.8957 15.3221 54.3982 13.797L54.4037 13.8025ZM51.0855 13.6549C50.9598 13.6549 50.8559 13.551 50.8559 13.4253C50.8559 13.2995 50.9598 13.1957 51.0855 13.1957C51.2112 13.1957 51.3151 13.2995 51.3151 13.4253C51.3151 13.551 51.2112 13.6549 51.0855 13.6549Z" fill="#74829A"/>
</g>
</svg>
