<svg width="122" height="16" viewBox="0 0 122 16" fill="none" xmlns="http://www.w3.org/2000/svg">
<g id="5fd8eefdd28918919032a337_lean-staffing-logo 1">
<g id="Group">
<g id="Group_2">
<g id="Group_3">
<path id="Vector" d="M9.83125 0.888672C9.61006 0.888672 9.38887 0.932871 9.25615 1.10967L1.73558 8.75608C1.38167 9.10967 1.42591 9.68425 1.82406 10.1262C1.82406 10.1262 2.00101 10.3472 2.35492 10.745C2.75307 11.1428 2.97426 11.0102 3.37241 10.745C3.77056 10.4356 9.30039 6.63453 9.30039 6.63453C9.74278 6.32514 9.96397 6.36934 10.4506 6.63453C10.4506 6.63453 15.9804 10.4356 16.3343 10.7008C16.7325 10.966 16.9537 11.0986 17.3518 10.7008C17.75 10.303 17.8827 10.082 17.8827 10.082C18.2808 9.68425 18.2808 9.06547 17.9712 8.71188L10.4506 1.06547C10.2736 0.932871 10.0967 0.888672 9.83125 0.888672C9.87549 0.888672 9.87549 0.888672 9.83125 0.888672C9.87549 0.888672 9.83125 0.888672 9.83125 0.888672Z" fill="#74829A"/>
</g>
<g id="Group_4">
<path id="Vector_2" d="M9.44011 8.97635L3.15822 13.3078C2.89279 13.573 2.89279 14.1034 3.20246 14.457C3.20246 14.457 3.33517 14.6338 3.64484 14.9432C3.73332 15.0316 3.95451 15.2084 4.26419 15.12C5.54711 14.678 8.33414 13.4846 9.17468 13.131C9.44011 13.0426 9.57282 12.9984 9.74978 12.9984C9.92673 12.9984 10.0594 13.0426 10.3249 13.131C11.2097 13.4846 13.9525 14.678 15.2354 15.12C15.5893 15.2084 15.8105 15.0316 15.8547 14.9432C16.1644 14.6338 16.2971 14.457 16.2971 14.457C16.6068 14.1034 16.651 13.6172 16.3413 13.3078L10.1037 9.02055C9.92673 8.93215 9.79402 8.84375 9.6613 8.84375C9.70554 8.84375 9.57282 8.88795 9.44011 8.97635Z" fill="#74829A"/>
</g>
<path id="Vector_3" opacity="0.5" d="M10.2761 8.97727C9.96648 8.75627 9.74528 8.75627 9.43561 8.97727L3.2422 13.3088C2.97677 13.574 2.97677 14.1043 3.28644 14.4579C3.28644 14.4579 3.41916 14.6347 3.72883 14.9441C3.81731 15.0325 4.0385 15.2093 4.34817 15.1209C5.63109 14.6789 8.32965 13.4856 9.21442 13.132C9.3029 13.0878 9.43561 13.0436 9.52409 13.0436C9.52409 13.0436 10.7628 10.3032 13.0189 10.9662L10.2761 8.97727Z" fill="#74829A"/>
</g>
<g id="Group_5">
<g id="Group_6">
<path id="Vector_4" d="M30.2321 12.9079H27.3123C26.2064 12.9079 25.4101 12.6869 24.9234 12.2449C24.4368 11.8029 24.1714 11.1399 24.1714 10.1675V3.0957H26.0736V10.1675C26.0736 10.5653 26.1621 10.8305 26.3391 10.9631C26.516 11.0957 26.8257 11.1841 27.3123 11.1841H30.2321V12.9079Z" fill="#74829A"/>
<path id="Vector_5" d="M38.2428 12.9079H34.748C33.642 12.9079 32.8457 12.7311 32.4033 12.3333C31.9609 11.9355 31.7397 11.2725 31.7397 10.3001V3.0957H38.2428V4.81946H33.6862V7.1178H36.8714L36.7387 8.84156H33.6862V10.1675C33.6862 10.5653 33.7747 10.8305 33.9517 10.9631C34.1286 11.0957 34.4383 11.1841 34.9249 11.1841H38.2428V12.9079Z" fill="#74829A"/>
<path id="Vector_6" d="M47.5767 12.9079H45.586L45.0109 11.2283H41.693L41.1621 12.9079H39.1714L42.3123 3.89128C42.445 3.58189 42.622 3.3609 42.7547 3.2283C42.9759 3.1399 43.1971 3.0957 43.4183 3.0957C43.6837 3.0957 43.8607 3.1399 44.0376 3.2725C44.1704 3.3609 44.3473 3.58189 44.4358 3.93548L47.5767 12.9079ZM44.6127 9.59294L43.4625 5.70344L42.2239 9.59294H44.6127Z" fill="#74829A"/>
<path id="Vector_7" d="M56.5941 3.0957V11.9355C56.5941 12.2449 56.5056 12.5101 56.3287 12.7311C56.1517 12.9521 55.9305 13.0405 55.6651 13.0405C55.0458 13.0405 54.5149 12.6869 54.1167 11.9355L50.7104 6.63161V12.9521H48.8081V3.0957H50.6661L54.6918 9.54874V3.0957H56.5941Z" fill="#74829A"/>
<path id="Vector_8" d="M65.2233 9.99149C65.2233 10.9197 64.8694 11.671 64.2058 12.2014C63.5422 12.7318 62.6575 12.997 61.5957 12.997C60.7552 12.997 59.9589 12.776 59.1626 12.2898C58.7645 12.0688 58.4548 11.7152 58.1894 11.2733C57.9239 10.8313 57.8354 10.3451 57.8354 9.7705L59.5608 9.6821C59.5608 10.1683 59.782 10.5661 60.1801 10.8313C60.6225 11.0965 61.0649 11.2291 61.5957 11.2291C62.7459 11.2291 63.321 10.8313 63.321 10.0357C63.321 9.37271 62.9229 8.97492 62.1266 8.84232L60.534 8.66552C59.7377 8.53293 59.1184 8.26773 58.6317 7.82575C58.1451 7.38376 57.9239 6.72077 57.9239 5.88099C57.9239 5.04122 58.2778 4.33403 58.9414 3.80365C59.605 3.27326 60.4455 2.96387 61.5073 2.96387C62.5247 2.96387 63.3653 3.22906 63.9846 3.75945C64.604 4.28983 64.9136 4.95282 64.9136 5.7484L63.1883 5.83679C63.0114 5.04121 62.4805 4.64342 61.5515 4.64342C60.9764 4.64342 60.534 4.77602 60.2243 4.99702C59.9147 5.21801 59.7377 5.5274 59.7377 5.83679C59.7377 6.14619 59.8704 6.41138 60.0916 6.58818C60.3128 6.76497 60.6225 6.89757 60.9322 6.94177L62.5247 7.11856C64.3385 7.38376 65.2233 8.35613 65.2233 9.99149Z" fill="#74829A"/>
<path id="Vector_9" d="M73.1427 4.77526H70.5327V12.9079H68.5862V4.77526H65.9761V3.0957H73.1427V4.77526Z" fill="#74829A"/>
<path id="Vector_10" d="M82.1262 12.9081H80.1355L79.6046 11.2286H76.2867L75.7559 12.9081H73.7651L76.9061 3.89154C77.0388 3.58214 77.2157 3.36115 77.3485 3.22855C77.5254 3.09596 77.7466 3.05176 77.9678 3.05176C78.2332 3.05176 78.4102 3.09596 78.5871 3.22855C78.7199 3.31695 78.8968 3.53795 78.9853 3.89154L82.1262 12.9081ZM79.118 9.59319L77.9678 5.70369L76.7734 9.59319H79.118Z" fill="#74829A"/>
<path id="Vector_11" d="M89.9519 4.77526H86.5013C86.1031 4.77526 85.7935 4.86366 85.6608 4.99626C85.4838 5.17305 85.4396 5.43824 85.4396 5.79184V7.162H89.0671L88.9344 8.88576H85.4838V12.8637H83.5815V5.08465C83.5815 4.37747 83.7585 3.84708 84.0682 3.53769C84.3778 3.2283 84.9529 3.0957 85.705 3.0957H90.0846V4.77526H89.9519Z" fill="#74829A"/>
<path id="Vector_12" d="M98.0951 4.77526H94.6445C94.2463 4.77526 93.9366 4.86366 93.8039 4.99626C93.627 5.17305 93.5827 5.43824 93.5827 5.79184V7.162H97.2103L97.0776 8.88576H93.5385V12.8637H91.6362V5.08465C91.6362 4.37747 91.8132 3.84708 92.1229 3.53769C92.4325 3.2283 93.0076 3.0957 93.7597 3.0957H98.1393V4.77526H98.0951Z" fill="#74829A"/>
<path id="Vector_13" d="M101.675 3.0957H99.7729V12.9079H101.675V3.0957Z" fill="#74829A"/>
<path id="Vector_14" d="M111.68 3.0957V11.9355C111.68 12.2449 111.592 12.5101 111.415 12.7311C111.238 12.9521 111.016 13.0405 110.751 13.0405C110.132 13.0405 109.601 12.6869 109.203 11.9355L105.796 6.63161V12.9521H103.894V3.0957H105.752L109.778 9.54874V3.0957H111.68Z" fill="#74829A"/>
<path id="Vector_15" d="M113.042 8.2665V7.07313C113.042 5.79137 113.396 4.77479 114.06 4.06761C114.724 3.36043 115.653 3.00684 116.847 3.00684C118.041 3.00684 118.97 3.36043 119.723 4.06761C120.209 4.5538 120.475 5.34938 120.475 6.36595H118.661C118.661 5.26098 118.086 4.73059 116.891 4.73059C116.537 4.73059 116.228 4.81899 116.006 4.95159C115.741 5.08418 115.564 5.26098 115.476 5.39358C115.343 5.57037 115.254 5.83556 115.21 6.14496C115.166 6.49855 115.122 6.76374 115.077 6.98474C115.077 7.20573 115.077 7.51512 115.077 7.91291C115.077 8.3107 115.077 8.5759 115.077 8.70849C115.077 8.84109 115.077 9.06208 115.122 9.37148C115.166 9.68087 115.166 9.90186 115.21 10.0345C115.254 10.1671 115.343 10.3439 115.431 10.5206C115.52 10.7416 115.653 10.8742 115.785 10.9626C116.183 11.1836 116.582 11.3162 117.068 11.3162C117.864 11.3162 118.44 10.9626 118.749 10.2997V9.63667H117.555V8.04551H120.386V11.0068C120.121 11.6698 119.634 12.2002 119.015 12.5096C118.395 12.8632 117.688 13.04 116.935 13.04C115.564 13.04 114.547 12.6422 113.927 11.8908C113.352 11.051 113.042 9.85766 113.042 8.2665Z" fill="#74829A"/>
</g>
</g>
</g>
</g>
</svg>
