<svg width="80" height="28" viewBox="0 0 80 28" fill="none" xmlns="http://www.w3.org/2000/svg">
<g id="Layer_1" clip-path="url(#clip0_15862_12364)">
<path id="Vector" d="M0.652832 28V0C26.8842 0 53.1156 0 79.3471 0V28H0.652832ZM12.9998 15.8701C13.0038 15.86 13.0078 15.849 13.0109 15.8389H13.1284C14.889 15.8389 16.6495 15.8389 18.4101 15.8389C18.5648 15.8389 18.5648 15.8389 18.5648 15.9997C18.5648 17.7804 18.5648 19.561 18.5648 21.3417C18.5648 21.3969 18.5648 21.4512 18.5648 21.5095H23.6576V6.48148H23.5048C21.9131 6.48148 20.3214 6.48148 18.7296 6.48148C18.6198 6.48148 18.5648 6.53541 18.5648 6.64327C18.5648 8.49627 18.5648 10.3493 18.5648 12.2023C18.5648 12.2535 18.5648 12.3038 18.5648 12.358H13.6299C13.6299 12.2907 13.6299 12.2354 13.6299 12.1792C13.6299 10.3342 13.6299 8.48923 13.6299 6.64427C13.6299 6.53575 13.5746 6.48148 13.4641 6.48148C11.4503 6.48148 9.43649 6.48148 7.42271 6.48148H7.28906C7.31117 6.54479 7.33931 6.57694 7.36945 6.60709C7.69906 6.93669 8.02564 7.26931 8.36027 7.59388C8.45473 7.68533 8.4909 7.77778 8.4909 7.90841C8.48789 12.3902 8.48789 16.8719 8.48789 21.3537C8.48789 21.4643 8.54148 21.5195 8.64867 21.5195C10.2645 21.5195 11.8804 21.5195 13.4962 21.5215C13.6027 21.5215 13.6319 21.4924 13.6319 21.3859C13.6289 19.7941 13.6309 18.2024 13.6268 16.6107C13.6268 16.5474 13.5937 16.47 13.5495 16.4238C13.3716 16.2339 13.1837 16.054 12.9998 15.8701ZM48.7022 21.5135C48.7022 21.4472 48.7022 21.3949 48.7022 21.3437C48.7022 20.1258 48.7002 18.9078 48.7052 17.6899C48.7052 17.5623 48.6721 17.4719 48.5796 17.3864C48.4128 17.2327 48.257 17.0679 48.0762 16.888H48.2138C48.7565 16.888 49.2991 16.89 49.8417 16.886C49.9372 16.886 49.9925 16.9142 50.0427 16.9966C50.9531 18.4677 51.8666 19.9378 52.777 21.409C52.8272 21.4904 52.8795 21.5225 52.976 21.5225C54.7204 21.5195 56.4649 21.5205 58.2094 21.5205C58.2516 21.5205 58.2938 21.5205 58.3661 21.5205C57.1392 19.6424 55.9303 17.7894 54.7164 15.9304C54.7677 15.9083 54.8038 15.8922 54.84 15.8761C56.1393 15.3285 57.0387 14.409 57.4376 13.0413C57.71 12.1078 57.6939 11.1642 57.4849 10.2206C57.2889 9.33534 56.8608 8.58369 56.1715 7.9878C55.6098 7.50244 54.9556 7.1859 54.2532 6.96282C53.1327 6.6081 51.9771 6.48952 50.8105 6.4855C48.033 6.47545 45.2555 6.48249 42.478 6.48249C42.4368 6.48249 42.3956 6.48651 42.3262 6.49052C42.3765 6.54479 42.4046 6.57695 42.4348 6.6081C42.7815 6.95478 43.1261 7.30347 43.4768 7.64714C43.5492 7.71748 43.5753 7.78883 43.5753 7.88932C43.5733 12.3751 43.5733 16.8609 43.5733 21.3467C43.5733 21.4009 43.5733 21.4562 43.5733 21.5155H48.7012L48.7022 21.5135ZM42.0308 21.5205C42.0087 21.4582 41.9946 21.413 41.9775 21.3698C41.6098 20.3991 41.242 19.4294 40.8732 18.4587C39.3729 14.5105 37.8726 10.5623 36.3753 6.61312C36.3392 6.51665 36.2939 6.47947 36.1864 6.47947C34.0521 6.48349 31.9177 6.48249 29.7833 6.48249C29.7411 6.48249 29.6999 6.48651 29.6296 6.48952C29.6768 6.54177 29.7049 6.57393 29.7341 6.60307C29.9813 6.85027 30.2255 7.10049 30.4777 7.34266C30.548 7.40999 30.5551 7.46526 30.5219 7.55168C30.2285 8.31438 29.9401 9.0791 29.6497 9.84381C28.1936 13.6754 26.7365 17.508 25.2804 21.3396C25.2593 21.3939 25.2423 21.4502 25.2202 21.5145C25.2714 21.5165 25.3076 21.5195 25.3438 21.5195C27.04 21.5195 28.7362 21.5195 30.4325 21.5225C30.5289 21.5225 30.5631 21.4854 30.5902 21.403C30.7741 20.8432 30.9409 20.2775 31.158 19.7308C31.2705 19.4465 31.2454 19.2535 30.9972 19.0817C30.9299 19.0345 30.8786 18.9631 30.8043 18.8857C30.8636 18.8817 30.8907 18.8787 30.9188 18.8787C32.5106 18.8787 34.1023 18.8787 35.694 18.8757C35.7965 18.8757 35.8317 18.9189 35.8608 19.0053C36.1322 19.8012 36.4085 20.596 36.6788 21.3929C36.711 21.4874 36.7522 21.5225 36.8557 21.5225C38.5318 21.5185 40.208 21.5195 41.8841 21.5195C41.9273 21.5195 41.9705 21.5195 42.0328 21.5195L42.0308 21.5205ZM59.2675 6.48852C59.2625 6.49856 59.2575 6.50861 59.2525 6.51866C59.2846 6.55283 59.3158 6.588 59.3489 6.62015C59.6856 6.95478 60.0192 7.29141 60.3598 7.62102C60.4573 7.71447 60.4965 7.80993 60.4965 7.9466C60.4935 12.4002 60.4935 16.8529 60.4935 21.3065C60.4935 21.3738 60.4935 21.4411 60.4935 21.5105H72.6535C72.6566 21.4502 72.6606 21.3979 72.6606 21.3467C72.6606 20.3056 72.6606 19.2646 72.6606 18.2235C72.6606 18.0989 72.5963 18.0366 72.4676 18.0366C70.2448 18.0366 68.022 18.0366 65.7992 18.0366C65.745 18.0366 65.6907 18.0316 65.6294 18.0286C65.6294 17.6045 65.6093 17.1935 65.6365 16.7855C65.6555 16.4961 65.5732 16.2861 65.343 16.1153C65.2305 16.0319 65.14 15.9173 65.0396 15.8178C65.0446 15.8078 65.0496 15.7977 65.0546 15.7877H71.5291V12.554H65.6284C65.6284 12.0264 65.6113 11.5149 65.6355 11.0055C65.6495 10.716 65.5792 10.496 65.3481 10.3191C65.2305 10.2287 65.133 10.1111 65.0064 9.98651H72.6505C72.6535 9.93425 72.6586 9.89104 72.6586 9.84783C72.6586 8.77462 72.6576 7.70141 72.6606 6.62819C72.6606 6.51565 72.6324 6.47847 72.5129 6.47847C68.1436 6.48148 63.7754 6.48148 59.4062 6.48148C59.359 6.48148 59.3127 6.48651 59.2655 6.48852H59.2675Z" fill="#74829A"/>
<path id="Vector_2" d="M48.1109 9.96859C49.0092 9.96859 49.8684 9.96256 50.7276 9.97261C51.027 9.97562 51.3255 10.0239 51.6099 10.1344C52.0822 10.3173 52.3836 10.6499 52.5032 11.1443C52.6027 11.5573 52.6057 11.9733 52.4901 12.3823C52.3143 13.0074 51.8681 13.345 51.2521 13.4726C51.0572 13.5128 50.8552 13.5309 50.6552 13.5339C50.0523 13.5419 49.4504 13.5339 48.8474 13.5389C48.7339 13.5389 48.6977 13.5118 48.6987 13.3922C48.7037 12.5009 48.7007 11.6086 48.7027 10.7162C48.7027 10.6258 48.6816 10.5585 48.6143 10.4931C48.4485 10.3314 48.2928 10.1605 48.1099 9.96859H48.1109Z" fill="#74829A"/>
<path id="Vector_3" d="M35.1407 15.9281H32.106C32.6094 14.4399 33.1098 12.9617 33.6093 11.4845C33.6173 11.4825 33.6263 11.4805 33.6344 11.4785C34.1348 12.9567 34.6342 14.4349 35.1397 15.9281H35.1407Z" fill="#74829A"/>
</g>
<defs>
<clipPath id="clip0_15862_12364">
<rect width="78.6942" height="28" fill="white" transform="translate(0.652832)"/>
</clipPath>
</defs>
</svg>
