<svg width="92" height="20" viewBox="0 0 92 20" fill="none" xmlns="http://www.w3.org/2000/svg">
<g clip-path="url(#clip0_19596_3097)">
<path d="M18.622 9.43159C16.9126 11.8121 16.3781 15.6812 12.9912 16.3185C8.25718 17.2086 7.16473 12.4139 5.30519 9.26468L5.34059 17.7734C5.13997 18.1527 1.56251 19.5587 1.15115 19.4492C0.626839 19.3109 0.606608 18.1106 0.577948 17.6554C0.360468 14.0577 0.247513 7.57374 0.668986 4.08057C1.00448 1.30053 4.04246 -0.108873 6.54095 0.988642C8.96526 2.05413 10.5348 7.59734 11.7234 9.9677C11.7841 10.0891 11.951 10.5696 12.0892 10.5274C13.2693 8.12839 14.028 5.33487 15.2368 2.96788C17.2278 -0.933274 22.5417 0.0327421 23.2481 4.17329C23.4302 5.24552 23.4016 6.81846 23.4319 7.95138C23.5128 10.9927 23.5853 14.5516 23.4319 17.5694C23.4134 17.9487 23.3661 19.1322 23.179 19.3379C23.1031 19.4121 23.0071 19.466 22.9042 19.493C22.4423 19.6144 18.7586 18.2859 18.5816 17.8594L18.622 9.43159Z" fill="#74829A"/>
<path d="M40.9598 7.45612C40.9446 7.30776 41.0036 7.20155 40.7912 7.24539C40.7945 7.40555 40.7693 7.56402 40.7103 7.71406C40.2045 8.98523 39.0277 12.4683 38.3804 13.3921C38.0921 13.8018 37.6386 14.0446 37.1699 13.7748C36.305 13.2758 35.0153 8.42214 34.2162 7.41566L34.1302 13.527C33.9751 14.0142 33.0614 13.989 32.9501 13.527C33.0293 11.359 32.7208 9.10998 32.8624 6.94698C32.9181 6.09729 32.9113 5.27795 34.0038 5.30155C34.813 5.31841 35.0389 6.07706 35.3255 6.68398C35.9864 8.09002 36.7046 10.8937 37.4801 12.0283C37.534 12.1075 37.475 12.1783 37.6706 12.1362L40.4591 5.52409C41.1604 5.06721 41.9713 5.3319 42.2276 6.10404L42.1011 13.6568C41.7673 14.053 40.9581 13.8018 40.9581 13.441C40.9581 11.5916 41.1334 9.23811 40.9581 7.45612H40.9598Z" fill="#74829A"/>
<path d="M86.2259 10.6152V13.3547C86.2259 13.7897 85.0745 14.3814 84.8873 13.0917C84.7137 11.8981 84.8351 9.5817 84.8739 8.29368C84.9008 7.40522 84.9666 6.48304 85.0424 5.59626C85.3425 5.25065 88.7649 5.38721 89.3752 5.4833C91.8231 5.86937 92.3778 8.55331 90.444 9.99138C91.4117 10.9152 91.6865 12.3061 91.4421 13.5975L90.9009 13.8908C89.8809 13.8554 90.6025 11.625 89.591 10.9136C89.446 10.8107 88.9436 10.6135 88.7952 10.6135H86.2243L86.2259 10.6152ZM86.3524 6.56902C86.0658 6.56902 86.1315 9.06245 86.263 9.3558C87.4836 9.4502 90.5266 9.72332 90.3614 7.78623C90.3075 7.15908 89.5219 6.56902 88.9655 6.56902H86.3524Z" fill="#74829A"/>
<path d="M55.9644 10.6179V13.5261C55.9644 13.7318 54.8652 14.2409 54.705 13.3525C54.4876 12.1369 54.5971 7.98289 54.6966 6.61057C54.7202 6.29362 54.7826 5.9025 54.8585 5.59229C55.1164 5.26691 58.6298 5.38324 59.2013 5.48271C61.6577 5.90924 62.1179 8.56958 60.1808 9.98404C61.0457 10.5404 61.5835 12.7084 61.2311 13.5649C61.071 13.9543 60.5028 13.9931 60.2162 13.6559C59.7341 13.0895 60.3798 10.6162 58.5354 10.6162H55.9644V10.6179ZM57.861 6.5718C57.276 6.53471 56.6775 6.59877 56.0908 6.5718L55.9644 6.69824V9.43781H57.861C59.0108 9.43781 60.4287 8.9607 60.0291 7.52264C59.7897 6.66283 58.6062 6.619 57.861 6.5718Z" fill="#74829A"/>
<path d="M77.1889 5.24278C83.4267 4.70498 83.5346 14.5152 77.081 13.8981C72.2543 13.4362 72.17 5.67605 77.1889 5.24278ZM77.2715 6.4229C73.6519 6.80897 73.5693 13.5728 78.6607 12.7012C81.4981 12.2139 81.4829 5.97277 77.2715 6.4229Z" fill="#74829A"/>
<path d="M47.0295 6.65236V9.01261H50.9492C51.3471 9.01261 51.3471 10.1927 50.9492 10.1927H47.0295V12.5108L47.156 12.6373H51.3707C51.6337 12.6373 51.9641 13.6556 51.2847 13.8157C50.72 13.9472 47.8775 13.8697 47.1526 13.8208C46.8896 13.8022 45.9017 13.7331 45.8073 13.5645C45.8848 12.467 45.5038 6.11288 45.9253 5.59025C46.0433 5.44527 46.458 5.4048 46.6468 5.38457C47.4476 5.30197 50.489 5.25476 51.2055 5.38457C51.8697 5.50259 51.8326 6.43826 51.283 6.56638C50.9509 6.64393 47.0279 6.43994 47.0279 6.65236H47.0295Z" fill="#74829A"/>
<path d="M66.0262 7.44103C64.0267 9.65629 65.8728 13.2607 69.2867 12.5982C69.8161 12.4953 71.2929 11.7114 71.3013 12.6892C71.3081 13.3905 69.398 13.8609 68.8231 13.9047C61.8216 14.4307 62.7505 3.48761 69.7503 5.47022C70.4533 5.66916 72.0633 6.30136 70.9068 7.06002C69.344 6.58122 67.3041 6.02656 66.0262 7.44103Z" fill="#74829A"/>
</g>
<defs>
<clipPath id="clip0_19596_3097">
<rect width="91.227" height="19" fill="white" transform="translate(0.38623 0.5)"/>
</clipPath>
</defs>
</svg>
