<svg width="120" height="120" viewBox="0 0 120 120" fill="none" xmlns="http://www.w3.org/2000/svg">
<path d="M91.0887 10.0005H28.2315C25.8646 10.0005 23.9458 11.9193 23.9458 14.2862V105.715C23.9458 108.082 25.8646 110.001 28.2315 110.001H91.0887C93.4556 110.001 95.3744 108.082 95.3744 105.715V14.2862C95.3744 11.9193 93.4556 10.0005 91.0887 10.0005Z" fill="#003399"/>
<path d="M59.6599 22.8719L60.2313 24.6148H62.0742L60.5742 25.7005L61.1456 27.4576L59.6599 26.3719L58.1742 27.4576L58.7313 25.7005L57.2456 24.6148H59.0885L59.6599 22.8719Z" fill="#FFCC00"/>
<path d="M51.0744 25.1576L51.6316 26.9147H53.4744L51.9887 27.9862L52.5602 29.7433L51.0744 28.6576L49.5744 29.7433L50.1459 28.0005L48.6602 26.9147H50.503L51.0744 25.1576Z" fill="#FFCC00"/>
<path d="M44.7888 31.4434L45.3602 33.1862H47.2031L45.7031 34.2719L46.2745 36.0148L44.7888 34.9434L43.3031 36.0291L43.8602 34.2719L42.3745 33.1862H44.2174L44.7888 31.4434Z" fill="#FFCC00"/>
<path d="M68.2315 25.1862L68.803 26.9433L70.6458 26.9291L69.1601 28.0148L69.7315 29.7719L68.2458 28.7005L66.7458 29.7719L67.3172 28.0291L65.8315 26.9433H67.6744L68.2315 25.1862Z" fill="#FFCC00"/>
<path d="M76.6743 33.0577L75.1886 34.1434L75.76 35.8862L74.26 34.8148L72.7743 35.8862L73.3457 34.1434L71.8457 33.0577H73.6886L74.26 31.3005L74.8314 33.0577H76.6743Z" fill="#FFCC00"/>
<path d="M79.0459 41.6719L77.5459 42.7576L78.103 44.5004L76.6316 43.4147L75.1316 44.4862L75.703 42.7433L74.2173 41.6576H76.0601L76.6316 39.9147L77.203 41.6719H79.0459Z" fill="#FFCC00"/>
<path d="M75.9031 52.7862L74.4031 51.7004L72.9173 52.7862L73.4888 51.029L71.9888 49.9433H73.8316L74.4031 48.2004L74.9745 49.9433H76.8173L75.3316 51.029L75.9031 52.7862Z" fill="#FFCC00"/>
<path d="M58.3314 61.4148L58.8885 59.6576L57.4028 58.5862H59.2314L59.8028 56.8291L60.3743 58.5719H62.2171L60.7314 59.6576L61.3028 61.4148L59.8171 60.3291L58.3314 61.4148Z" fill="#FFCC00"/>
<path d="M49.717 59.1434L50.2885 57.3862L48.8027 56.3148L50.6313 56.3005L51.2027 54.5576L51.7742 56.3005H53.617L52.1313 57.3862L52.7027 59.1434L51.2027 58.0576L49.717 59.1434Z" fill="#FFCC00"/>
<path d="M69.6173 59.1005L68.1316 58.0148L66.6316 59.0862L67.203 57.3434L65.7173 56.2434L67.5601 56.2576L68.1316 54.5148L68.703 56.2576L70.5459 56.2719L69.0459 57.3434L69.6173 59.1005Z" fill="#FFCC00"/>
<path d="M40.2744 41.7147L42.1173 41.7004L42.6887 39.9576L43.2601 41.7004H45.103L43.6173 42.7862L44.1887 44.529L42.6887 43.4576L41.203 44.5433L41.7744 42.7862L40.2744 41.7147Z" fill="#FFCC00"/>
<path d="M43.4315 52.7719L44.0029 51.0147L42.5029 49.9433L44.3458 49.929L44.9172 48.1862L45.4886 49.929H47.3315L45.8458 51.0147L46.4172 52.7719L44.9172 51.6862L43.4315 52.7719Z" fill="#FFCC00"/>
<path d="M63.3888 40.1719V38.2719C63.3888 36.229 61.7031 34.5433 59.6602 34.5433C57.6174 34.5433 55.9317 36.229 55.9317 38.2719V40.1719C55.0031 40.5004 54.3174 41.4004 54.3174 42.4719V47.3147C54.3174 48.6433 55.4031 49.729 56.7317 49.729H62.546C63.8745 49.729 64.9602 48.6433 64.9602 47.3147V42.4719C64.9888 41.4004 64.3031 40.529 63.3745 40.1719H63.3888ZM60.6174 47.0147H58.7031L59.0317 44.9433C58.7031 44.729 58.4745 44.3576 58.4745 43.9433C58.4745 43.3004 59.0031 42.7576 59.6602 42.7576C60.3174 42.7576 60.846 43.2862 60.846 43.9433C60.846 44.3576 60.6174 44.7433 60.2888 44.9433L60.6174 47.0147ZM62.4174 40.029H56.9174V38.2433C56.9174 36.729 58.146 35.4862 59.6745 35.4862C61.2031 35.4862 62.4317 36.7147 62.4317 38.2433V40.029H62.4174Z" fill="white"/>
<path d="M23.9458 74.2862V105.715C23.9458 108.086 25.8601 110.001 28.2315 110.001H91.0887C93.4601 110.001 95.3744 108.086 95.3744 105.715V74.2862H23.9458Z" fill="#231F20"/>
<path d="M44.3885 85.5577C44.0171 85.2005 43.5885 84.9434 43.0742 84.7577C42.5599 84.5863 42.0599 84.4863 41.5885 84.4863C40.4456 84.4863 39.5313 84.8148 38.8456 85.4577C38.1599 86.1148 37.8171 87.0863 37.8171 88.4005C37.8171 88.8148 37.8742 89.2434 38.0028 89.6863C38.1313 90.1291 38.3456 90.5434 38.6313 90.9148C38.9313 91.2863 39.3171 91.5863 39.8028 91.8291C40.2885 92.072 40.8742 92.1863 41.5885 92.1863C42.0171 92.1863 42.4171 92.1291 42.8171 92.0291C43.2171 91.9291 43.6599 91.7005 44.1313 91.3434V89.4863H41.2742V87.2577H46.4456V92.4148C45.4028 93.9005 43.7742 94.6434 41.5599 94.6434C40.4028 94.6434 39.4171 94.4577 38.6171 94.1005C37.8028 93.7291 37.1456 93.2577 36.6313 92.672C36.1171 92.0863 35.7599 91.4148 35.5313 90.672C35.3028 89.9291 35.1885 89.172 35.1885 88.4005C35.1885 87.5577 35.3171 86.7434 35.5599 85.972C35.8171 85.2005 36.2028 84.5291 36.7313 83.9434C37.2599 83.3577 37.9171 82.9005 38.7313 82.5434C39.5313 82.2005 40.4885 82.0148 41.5885 82.0148C42.4171 82.0148 43.1885 82.1434 43.9313 82.4148C44.6742 82.672 45.3742 83.1577 46.0599 83.872L44.4028 85.5291L44.3885 85.5577Z" fill="white"/>
<path d="M53.5173 82.3577C54.5459 82.3577 55.4316 82.5148 56.1887 82.8434C56.9459 83.1577 57.5602 83.6005 58.0459 84.1434C58.5316 84.6862 58.8887 85.3148 59.1316 86.0291C59.3745 86.7434 59.4887 87.5005 59.4887 88.2862C59.4887 89.0719 59.3745 89.8291 59.1459 90.572C58.9173 91.3005 58.5602 91.9577 58.0887 92.5148C57.603 93.0862 56.9887 93.5291 56.2316 93.8719C55.4745 94.2148 54.5745 94.372 53.5173 94.372H48.603V82.3719H53.5173V82.3577ZM51.2316 91.8862H53.5173C54.1745 91.8862 54.703 91.772 55.1316 91.5577C55.5602 91.3434 55.903 91.0577 56.1459 90.7148C56.403 90.372 56.5745 89.972 56.6745 89.5434C56.7745 89.1148 56.8316 88.672 56.8316 88.2434C56.8316 87.8148 56.7745 87.4005 56.6602 86.9862C56.5459 86.5719 56.3602 86.2005 56.103 85.872C55.8459 85.5434 55.503 85.2862 55.0887 85.0862C54.6602 84.8862 54.1459 84.7862 53.5173 84.7862H51.2316V91.9005V91.8862Z" fill="white"/>
<path d="M64.1744 90.9577V94.3577H61.5029V82.3577H67.1601C67.9315 82.3577 68.6029 82.4719 69.1744 82.7005C69.7458 82.9291 70.2315 83.2434 70.6172 83.6291C71.0029 84.0291 71.2887 84.4862 71.4744 85.0005C71.6601 85.5148 71.7601 86.0719 71.7601 86.6577C71.7601 87.2434 71.6601 87.8291 71.4744 88.3434C71.2744 88.8577 70.9886 89.3148 70.6029 89.7005C70.2172 90.0862 69.7458 90.3862 69.1744 90.6148C68.6029 90.8434 67.9315 90.9577 67.1744 90.972H64.1887L64.1744 90.9577ZM64.1744 88.5005H67.1601C67.8029 88.5005 68.2744 88.3148 68.6029 87.9577C68.9172 87.6005 69.0887 87.1719 69.0887 86.7005C69.0887 86.2291 68.9315 85.8005 68.6029 85.4291C68.2886 85.0577 67.8029 84.8862 67.1601 84.8862H64.1744V88.5005Z" fill="white"/>
<path d="M84.1313 94.3577H81.1598L78.0884 90.4148H76.1455V94.3577H73.4741V82.3577H79.1598C79.8741 82.3577 80.517 82.472 81.0741 82.6862C81.6313 82.9148 82.0884 83.2148 82.4741 83.5862C82.8455 83.9577 83.1313 84.4005 83.317 84.8862C83.5027 85.3719 83.6027 85.8719 83.6027 86.4005C83.6027 86.7862 83.5598 87.172 83.4884 87.5291C83.417 87.9005 83.2741 88.2434 83.0741 88.5577C82.8741 88.872 82.5884 89.172 82.2313 89.4434C81.8741 89.7148 81.4027 89.9577 80.8313 90.1577L84.117 94.1291V94.3291L84.1313 94.3577ZM76.1598 84.6577V88.1577H79.217C79.5313 88.1577 79.7884 88.1005 80.017 88.0005C80.2456 87.9005 80.417 87.7577 80.5598 87.6005C80.7027 87.4291 80.8027 87.2577 80.8741 87.0577C80.9456 86.8577 80.9741 86.6719 80.9741 86.4719C80.9741 86.2719 80.9313 86.0577 80.8598 85.8434C80.7884 85.6291 80.6741 85.4291 80.5313 85.2577C80.3884 85.0862 80.2027 84.9434 79.9741 84.8291C79.7455 84.7148 79.4741 84.6577 79.1741 84.6577H76.1598Z" fill="white"/>
<path d="M40.3174 101.4C40.0317 101.686 39.7031 101.9 39.3317 102.043C38.9746 102.172 38.5888 102.243 38.1746 102.243C37.6603 102.243 37.2174 102.158 36.846 102.001C36.4746 101.843 36.1603 101.615 35.9174 101.343C35.6746 101.072 35.4888 100.758 35.3746 100.415C35.2603 100.072 35.2031 99.7005 35.2031 99.3291C35.2031 98.9576 35.2603 98.5862 35.3888 98.2291C35.5174 97.8719 35.6888 97.5576 35.946 97.2719C36.1888 96.9862 36.5031 96.7719 36.8746 96.6005C37.246 96.4291 37.6888 96.3434 38.2031 96.3434C38.5888 96.3434 38.9603 96.4148 39.3174 96.5576C39.6746 96.7005 39.9888 96.9148 40.2888 97.2005L39.6746 97.7862C39.4746 97.5862 39.246 97.4434 38.9888 97.3434C38.7317 97.2434 38.4746 97.2005 38.2174 97.2005C37.8603 97.2005 37.546 97.2576 37.2745 97.3862C37.0031 97.5005 36.7888 97.6719 36.6174 97.8719C36.446 98.0719 36.3174 98.3005 36.246 98.5434C36.1603 98.8005 36.1174 99.0576 36.1174 99.3148C36.1174 99.5719 36.1603 99.8291 36.246 100.072C36.3317 100.315 36.446 100.543 36.6174 100.729C36.7888 100.915 37.0031 101.072 37.2603 101.2C37.5174 101.315 37.8317 101.386 38.2031 101.386C38.4603 101.386 38.7317 101.329 39.0031 101.229C39.2745 101.129 39.5031 100.972 39.7031 100.772L40.3317 101.4H40.3174Z" fill="white"/>
<path d="M43.6603 96.3433C44.146 96.3433 44.5745 96.429 44.9317 96.5862C45.2888 96.7576 45.5888 96.9719 45.8317 97.2433C46.0745 97.5147 46.246 97.829 46.3745 98.1862C46.4888 98.5433 46.5603 98.9147 46.5603 99.3004C46.5603 99.6862 46.5031 100.058 46.3745 100.4C46.2603 100.758 46.0745 101.072 45.846 101.343C45.6031 101.615 45.3031 101.829 44.946 101.986C44.5888 102.143 44.1603 102.229 43.6603 102.229C43.1603 102.229 42.746 102.143 42.3745 101.986C42.0174 101.815 41.7031 101.6 41.4745 101.329C41.2317 101.058 41.0603 100.743 40.9317 100.386C40.8174 100.029 40.7603 99.6719 40.7603 99.3004C40.7603 98.8719 40.8317 98.4719 40.9745 98.1004C41.1174 97.729 41.3174 97.4147 41.5745 97.1576C41.8317 96.9004 42.146 96.6862 42.5031 96.5433C42.8603 96.4004 43.246 96.3147 43.6745 96.3147L43.6603 96.3433ZM41.646 99.329C41.646 99.5862 41.6888 99.829 41.7745 100.072C41.846 100.315 41.9745 100.543 42.1317 100.743C42.2888 100.943 42.5031 101.1 42.746 101.229C43.0031 101.343 43.3031 101.415 43.646 101.415C43.9888 101.415 44.3031 101.358 44.5602 101.243C44.8174 101.129 45.0174 100.972 45.1888 100.786C45.346 100.6 45.4745 100.372 45.546 100.115C45.6174 99.8576 45.6603 99.6004 45.6603 99.329C45.6603 99.0576 45.6174 98.8147 45.546 98.5576C45.4745 98.3004 45.346 98.0719 45.1888 97.8719C45.0317 97.6719 44.8174 97.5004 44.5745 97.3719C44.3174 97.2433 44.0174 97.1719 43.6745 97.1719C43.346 97.1719 43.0603 97.229 42.8031 97.329C42.546 97.4433 42.346 97.5862 42.1745 97.7862C42.0031 97.9719 41.8745 98.2004 41.7888 98.4719C41.7031 98.7433 41.6603 99.029 41.6603 99.329H41.646Z" fill="white"/>
<path d="M52.56 97.772L50.6315 100.458H50.4315L48.5315 97.772V102.129H47.6172V96.4577H48.6743L50.5458 99.1148L52.4172 96.4577H53.4743V102.129H52.56V97.772Z" fill="white"/>
<path d="M55.803 100.386V102.129H54.8887V96.4577C55.3315 96.4577 55.7601 96.4577 56.203 96.4577C56.6458 96.4577 57.0744 96.4577 57.5172 96.4577C57.9601 96.4577 58.3458 96.5577 58.6458 96.7434C58.9458 96.9434 59.1744 97.1863 59.3315 97.472C59.4887 97.7577 59.5601 98.0863 59.5601 98.4148C59.5601 98.7434 59.4887 99.072 59.3315 99.3577C59.1744 99.6434 58.9601 99.8863 58.6601 100.086C58.3601 100.286 57.9887 100.372 57.5315 100.372H55.8172L55.803 100.386ZM55.803 99.5577H57.5172C57.7601 99.5577 57.9744 99.5006 58.1458 99.3863C58.3172 99.272 58.4315 99.1291 58.5172 98.9577C58.603 98.7863 58.6315 98.6006 58.6315 98.4148C58.6315 98.2291 58.5887 98.0434 58.503 97.872C58.4172 97.7006 58.2887 97.5577 58.1315 97.4434C57.9601 97.3291 57.7601 97.272 57.5172 97.272H55.803V99.5434V99.5577Z" fill="white"/>
<path d="M61.4172 96.4434V101.272H64.4029V102.115H60.5029V96.4434H61.4172Z" fill="white"/>
<path d="M65.2598 102.129V96.4577H66.1598V102.129H65.2598Z" fill="white"/>
<path d="M71.5171 100.929H68.4457L67.9171 102.115H66.96L69.5028 96.4434H70.4885L73.0314 102.115H72.0742L71.5314 100.929H71.5171ZM69.9885 97.4005L68.7885 100.101H71.1885L69.9885 97.4005Z" fill="white"/>
<path d="M77.7315 100.486V96.4434H78.6458V102.115H77.9601L74.7458 98.1148V102.115H73.8315V96.4434H74.5315L77.7458 100.486H77.7315Z" fill="white"/>
<path d="M81.3602 97.272H79.4888V96.4577H84.1316V97.272H82.2745V102.129H81.3602V97.272Z" fill="white"/>
</svg>
