<svg width="120" height="120" viewBox="0 0 120 120" fill="none" xmlns="http://www.w3.org/2000/svg">
<path d="M32.1605 104.692C31.9889 103.968 31.684 103.453 31.2266 103.129C30.7692 102.824 30.1784 102.672 29.4542 102.672C28.9396 102.672 28.5013 102.767 28.1201 102.977C27.739 103.187 27.434 103.453 27.2053 103.816C26.9576 104.159 26.786 104.559 26.6717 105.016C26.5573 105.474 26.5002 105.95 26.5002 106.465C26.5002 106.941 26.5573 107.398 26.6526 107.875C26.7479 108.332 26.9194 108.752 27.1481 109.095C27.3768 109.457 27.6818 109.743 28.082 109.971C28.4632 110.2 28.9587 110.295 29.5495 110.295C29.9116 110.295 30.2546 110.238 30.5405 110.124C30.8454 110.009 31.1123 109.838 31.3219 109.628C31.5506 109.419 31.7412 109.171 31.8936 108.885C32.0461 108.599 32.1605 108.294 32.2367 107.951H33.0753C32.98 108.37 32.8466 108.752 32.656 109.114C32.4654 109.476 32.2367 109.8 31.9318 110.086C31.6268 110.372 31.2838 110.581 30.8454 110.753C30.4262 110.924 29.9306 111 29.3589 111C28.7109 111 28.1392 110.886 27.6818 110.638C27.2053 110.391 26.8242 110.067 26.5383 109.666C26.2334 109.247 26.0237 108.771 25.8903 108.237C25.7569 107.703 25.6807 107.113 25.6807 106.503C25.6807 105.683 25.776 104.997 25.9856 104.425C26.1952 103.854 26.4621 103.396 26.8242 103.034C27.1863 102.672 27.6055 102.405 28.082 102.253C28.5585 102.081 29.0921 102.005 29.6638 102.005C30.1022 102.005 30.5024 102.062 30.8836 102.177C31.2647 102.291 31.5887 102.462 31.8746 102.691C32.1605 102.92 32.4082 103.206 32.5797 103.549C32.7703 103.892 32.9037 104.273 32.9609 104.711H32.1605V104.692Z" fill="#444444"/>
<path d="M34.5811 106.502C34.5811 105.873 34.6573 105.283 34.8288 104.749C35.0003 104.196 35.2481 103.72 35.5911 103.32C35.9151 102.919 36.3344 102.595 36.8299 102.348C37.3254 102.119 37.8781 101.986 38.5261 101.986C39.1931 101.986 39.7649 102.1 40.2795 102.329C40.775 102.557 41.1943 102.881 41.5373 103.282C41.8804 103.682 42.1281 104.177 42.2996 104.711C42.4712 105.264 42.5474 105.854 42.5474 106.483C42.5474 107.093 42.4712 107.684 42.2996 108.218C42.1281 108.751 41.8804 109.228 41.5373 109.647C41.2133 110.047 40.794 110.371 40.2985 110.619C39.803 110.848 39.2313 110.981 38.5642 110.981C37.9162 110.981 37.3254 110.867 36.8299 110.619C36.3344 110.39 35.9151 110.066 35.5911 109.647C35.2672 109.247 35.0003 108.77 34.8479 108.218C34.6573 107.703 34.5811 107.112 34.5811 106.502ZM38.5642 110.295C39.1169 110.295 39.5934 110.2 39.9936 109.971C40.3938 109.761 40.7178 109.475 40.9846 109.132C41.2324 108.789 41.423 108.389 41.5564 107.913C41.6707 107.455 41.7469 106.979 41.7469 106.483C41.7469 105.893 41.6707 105.359 41.5182 104.882C41.3658 104.406 41.1561 104.006 40.8893 103.682C40.6225 103.358 40.2795 103.091 39.8792 102.919C39.479 102.748 39.0407 102.653 38.5452 102.653C37.9925 102.653 37.5351 102.767 37.1349 102.977C36.7346 103.186 36.4106 103.472 36.1438 103.834C35.877 104.177 35.7055 104.597 35.5721 105.054C35.4577 105.511 35.3815 105.988 35.3815 106.483C35.3815 106.998 35.4387 107.474 35.5721 107.932C35.6864 108.389 35.877 108.789 36.1438 109.151C36.3916 109.495 36.7346 109.78 37.1349 109.99C37.516 110.2 37.9925 110.295 38.5642 110.295Z" fill="#444444"/>
<path d="M44.3389 110.771V102.233H45.5777L48.3792 109.78H48.3983L51.1617 102.233H52.3814V110.771H51.581V103.148H51.5619L48.7604 110.771H47.998L45.1774 103.148H45.1584V110.771H44.3389Z" fill="#444444"/>
<path d="M54.4775 110.771V102.233H57.6031C58.1558 102.233 58.6132 102.29 58.9753 102.424C59.3374 102.557 59.6233 102.729 59.8329 102.938C60.0425 103.167 60.195 103.415 60.2712 103.701C60.3475 103.987 60.4046 104.292 60.4046 104.616C60.4046 105.092 60.3094 105.473 60.1188 105.797C59.9282 106.102 59.6804 106.35 59.3564 106.521C59.0515 106.693 58.6894 106.826 58.3082 106.903C57.908 106.979 57.5269 107.017 57.1266 107.017H55.297V110.79H54.4775V110.771ZM57.1266 106.293C57.5078 106.293 57.8508 106.274 58.1558 106.216C58.4607 106.178 58.7085 106.083 58.9181 105.95C59.1277 105.816 59.2993 105.645 59.4136 105.416C59.528 105.187 59.5851 104.901 59.5851 104.539C59.5851 104.006 59.4136 103.586 59.0515 103.32C58.7085 103.034 58.1367 102.9 57.3744 102.9H55.278V106.293H57.1266Z" fill="#444444"/>
<path d="M62.0059 110.771V102.233H62.8063V110.085H67.3803V110.771H62.0059Z" fill="#444444"/>
<path d="M69.1143 110.771V102.233H69.9147V110.771H69.1143Z" fill="#444444"/>
<path d="M71.5918 110.771L74.946 102.233H75.8608L79.1389 110.771H78.3003L77.3093 108.084H73.4214L72.4113 110.771H71.5918ZM73.7073 107.398H77.0615L75.3844 102.919L73.7073 107.398Z" fill="#444444"/>
<path d="M81.3302 103.301H81.3112V110.752H80.5107V102.214H81.4255L86.3616 109.685H86.3807V102.214H87.1811V110.752H86.2473L81.3302 103.301Z" fill="#444444"/>
<path d="M88.5732 102.214H94.7862V102.9H92.08V110.752H91.2795V102.9H88.5732V102.214Z" fill="#444444"/>
<path d="M27.8154 99.0125V81.7457H31.3984V88.3208H38.1069V81.7457H41.6898V99.0125H38.1069V91.313H31.3984V99.0125H27.8154Z" fill="#008FC2"/>
<path d="M47.5029 99.0125H43.9199V81.7457H47.5029V99.0125Z" fill="#008FC2"/>
<path d="M61.5102 91.5417C60.5001 92.3802 59.0517 92.7995 57.184 92.7995H53.582V99.0125H49.999V81.7457H57.4127C59.1279 81.7457 60.481 82.1841 61.4911 83.0798C62.5012 83.9755 63.0158 85.3477 63.0158 87.2154C63.0158 89.2547 62.5203 90.7031 61.5102 91.5417ZM58.7467 85.3287C58.2893 84.9475 57.6414 84.7569 56.8219 84.7569H53.5629V89.8455H56.8219C57.6414 89.8455 58.2893 89.6358 58.7467 89.2165C59.2041 88.7973 59.4328 88.1493 59.4328 87.2536C59.4328 86.3578 59.2041 85.7098 58.7467 85.3287Z" fill="#008FC2"/>
<path d="M67.2471 81.7457H71.3256L77.4242 99.0125H73.5173L72.3738 95.4676H66.0083L64.8458 99.0125H61.0723L67.2471 81.7457ZM67.0184 92.4946H71.4399L69.2482 85.7098L67.0184 92.4946Z" fill="#008FC2"/>
<path d="M84.5704 81.7457H88.6488L94.7475 99.0125H90.8405L89.697 95.4676H83.3316L82.169 99.0125H78.3955L84.5704 81.7457ZM84.3417 92.4946H88.7632L86.5715 85.7098L84.3417 92.4946Z" fill="#008FC2"/>
<mask id="mask0_544_24591" style="mask-type:luminance" maskUnits="userSpaceOnUse" x="32" y="9" width="56" height="69">
<path d="M87.2769 26.8009C87.2197 25.543 86.4002 24.4567 85.2186 24.0565C79.9586 22.3031 73.8599 19.4444 71.0012 17.672C69.0954 16.4904 67.3611 15.2135 65.8555 13.8794C63.74 11.9926 62.8252 10.6204 62.7299 10.487C62.1963 9.57223 61.2243 9.00049 60.1571 9.00049C59.0898 9.00049 58.1369 9.57223 57.5842 10.487C57.4889 10.6204 56.5741 11.9926 54.4587 13.8794C52.9531 15.2135 51.2188 16.4904 49.3129 17.691C46.4542 19.4635 40.3556 22.3222 35.0955 24.0755C33.9139 24.4758 33.0944 25.5621 33.0372 26.8199C33.0182 27.4679 32.4464 43.0004 34.7525 54.2828C37.0204 65.3556 46.6448 74.5417 59.2613 77.6863C59.5091 77.7435 59.7378 77.7816 59.9855 77.7816C60.0427 77.7816 60.0999 77.7816 60.1571 77.7816C60.462 77.8007 60.7479 77.7625 61.0528 77.7054C73.6693 74.5608 83.2938 65.3747 85.5617 54.3019C87.8868 42.9813 87.315 27.4488 87.2769 26.8009Z" fill="white"/>
</mask>
<g mask="url(#mask0_544_24591)">
<path d="M84.2845 26.9152C78.9864 25.1619 72.6019 22.1888 69.4382 20.2258C67.075 18.7583 65.2454 17.348 63.8732 16.1092C61.205 13.746 60.1759 12.0498 60.1759 12.0498C60.1759 12.0498 59.1468 13.746 56.4977 16.1092C55.1064 17.348 53.2959 18.7583 50.9327 20.2258C47.769 22.1888 41.3845 25.1428 36.0863 26.9152C36.0863 26.9152 35.4764 42.6001 37.7444 53.6539C39.7645 63.5642 48.417 71.8545 60.0234 74.7323C60.0806 74.6942 60.1378 74.6751 60.195 74.637C60.2521 74.6751 60.3093 74.6942 60.3665 74.7323C71.9729 71.8355 80.6254 63.5451 82.6455 53.6539C84.8944 42.6001 84.2845 26.9152 84.2845 26.9152Z" stroke="#444444" stroke-width="6.0199" stroke-miterlimit="10" stroke-linecap="round" stroke-linejoin="round"/>
<path d="M84.2845 26.9152C78.9864 25.1619 72.6019 22.1888 69.4382 20.2258C67.075 18.7583 65.2454 17.348 63.8732 16.1092C61.205 13.746 60.1759 12.0498 60.1759 12.0498C60.1759 12.0498 59.1468 13.746 56.4977 16.1092C55.1064 17.348 53.2959 18.7583 50.9327 20.2258C47.769 22.1888 41.3845 25.1428 36.0863 26.9152C36.0863 26.9152 35.4764 42.6001 37.7444 53.6539C39.7645 63.5642 48.417 71.8545 60.0234 74.7323C60.0806 74.6942 60.1378 74.6751 60.195 74.637C60.2521 74.6751 60.3093 74.6942 60.3665 74.7323C71.9729 71.8355 80.6254 63.5451 82.6455 53.6539C84.8944 42.6001 84.2845 26.9152 84.2845 26.9152Z" fill="#6DCEEC"/>
<path d="M82.6264 53.6539C84.8943 42.6001 84.2844 26.9152 84.2844 26.9152C78.9862 25.1619 72.6017 22.1888 69.4381 20.2258C67.0749 18.7583 65.2453 17.348 63.8731 16.1092C61.2049 13.746 60.1758 12.0498 60.1758 12.0498V74.6561C60.233 74.6942 60.2901 74.7132 60.3473 74.7513C71.9538 71.8354 80.5871 63.5451 82.6264 53.6539Z" fill="#008FC2"/>
</g>
<mask id="mask1_544_24591" style="mask-type:luminance" maskUnits="userSpaceOnUse" x="32" y="9" width="56" height="69">
<path d="M87.2769 26.8009C87.2197 25.543 86.4002 24.4567 85.2186 24.0565C79.9586 22.3031 73.8599 19.4444 71.0012 17.672C69.0954 16.4904 67.3611 15.2135 65.8555 13.8794C63.74 11.9926 62.8252 10.6204 62.7299 10.487C62.1963 9.57223 61.2243 9.00049 60.1571 9.00049C59.0898 9.00049 58.1369 9.57223 57.5842 10.487C57.4889 10.6204 56.5741 11.9926 54.4587 13.8794C52.9531 15.2135 51.2188 16.4904 49.3129 17.691C46.4542 19.4635 40.3556 22.3222 35.0955 24.0755C33.9139 24.4758 33.0944 25.5621 33.0372 26.8199C33.0182 27.4679 32.4464 43.0004 34.7525 54.2828C37.0204 65.3556 46.6448 74.5417 59.2613 77.6863C59.5091 77.7435 59.7378 77.7816 59.9855 77.7816C60.0427 77.7816 60.0999 77.7816 60.1571 77.7816C60.462 77.8007 60.7479 77.7625 61.0528 77.7054C73.6693 74.5608 83.2938 65.3747 85.5617 54.3019C87.8868 42.9813 87.315 27.4488 87.2769 26.8009Z" fill="white"/>
</mask>
<g mask="url(#mask1_544_24591)">
<path d="M67.4178 27.6394C64.6162 26.9915 62.7676 31.6417 62.7676 31.6417V39.8558C73.2496 40.6181 73.1352 37.7975 73.1352 37.7975C83.1789 37.6831 89.4491 29.6024 89.4491 29.6024C80.1677 32.2134 70.2384 28.2874 67.4178 27.6394Z" fill="white"/>
<path d="M57.5648 39.8367V31.6226C57.5648 31.6226 55.7352 26.9724 52.9146 27.6204C50.1131 28.2683 40.1647 32.2134 30.8643 29.5834C30.8643 29.5834 37.1344 37.664 47.1781 37.7784C47.1972 37.7974 47.1019 40.599 57.5648 39.8367Z" fill="white"/>
<path d="M58.746 27.9253V49.3467C59.1843 49.4039 59.6608 49.4611 60.1754 49.5183C60.6709 49.4611 61.1473 49.4039 61.5666 49.3467V27.9253C62.9388 27.3726 63.8917 26.0195 63.8917 24.4567C63.8917 22.3984 62.2146 20.7213 60.1563 20.7213C58.079 20.7213 56.4209 22.3984 56.4209 24.4567C56.4209 26.0195 57.3929 27.3535 58.746 27.9253Z" fill="white"/>
<path d="M60.1755 60.248C60.3089 60.1909 60.4423 60.1527 60.5757 60.0956C60.8997 59.9622 61.2237 59.8097 61.5667 59.6382V55.4454C61.1284 55.3501 60.671 55.2929 60.1755 55.2548C59.6609 55.2929 59.2035 55.3691 58.7461 55.4644V59.6382C59.0891 59.8097 59.4322 59.9622 59.7562 60.0956C59.8896 60.1527 60.0421 60.1909 60.1755 60.248Z" fill="white"/>
<path d="M61.5095 75.5518C61.5286 75.5328 61.5476 75.5328 61.5667 75.5137V74.7704C61.3952 74.6751 61.1093 74.5608 60.7281 74.4655C60.5566 74.4083 60.366 74.3702 60.1755 74.3321C59.9849 74.3702 59.8134 74.4083 59.6418 74.4655C59.2226 74.5608 58.9367 74.6942 58.7461 74.7895V75.4946C58.7652 75.5137 58.8033 75.5328 58.8414 75.5518C59.2035 75.7805 59.6609 76.0092 60.1755 76.257C60.69 76.0092 61.1665 75.7805 61.5095 75.5518Z" fill="white"/>
<path d="M60.1755 69.4913C60.1945 69.4913 60.2136 69.4913 60.2326 69.4722C60.4613 69.415 60.671 69.3769 60.8806 69.3198C61.1284 69.2626 61.3571 69.2054 61.5667 69.1482V66.3467C61.1284 66.0989 60.6519 65.9083 60.1755 65.7368C59.6418 65.9465 59.1654 66.1752 58.7461 66.4229V69.1292C59.1654 69.2435 59.6228 69.3579 60.1183 69.4532C60.1373 69.4722 60.1564 69.4913 60.1755 69.4913Z" fill="white"/>
<path d="M74.4502 46.2975L74.4121 45.8401C74.3168 45.2302 74.1643 44.6966 73.9166 44.201C73.6498 43.6674 73.2495 43.1719 72.7921 42.8098C71.8392 42.0475 70.8673 41.8569 70.1049 41.7616C69.3998 41.6854 68.6184 41.7235 68.1419 41.7807C68.0276 41.7997 67.9132 41.8188 67.8179 41.8188C66.5601 41.4185 64.6352 41.247 63.3011 43.1147C61.1857 46.0878 64.1016 47.1551 64.9211 47.0598C65.6072 46.9645 67.6655 46.6405 68.7899 45.1921C69.0948 45.154 69.4379 45.1349 69.7428 45.154C69.9906 45.173 70.3527 45.2302 70.6004 45.3827C70.7148 45.4398 70.8101 45.5161 70.8863 45.6304C70.9054 45.6495 70.9244 45.6685 70.9244 45.6876C71.0007 45.821 71.0578 45.9735 71.096 46.1259C71.1341 46.2022 71.1531 46.3165 71.1722 46.4309C71.1722 46.4309 71.1722 46.469 71.1722 46.488C71.1722 46.5262 71.1722 46.5643 71.1722 46.6024V46.793C71.1722 46.8883 71.1722 46.9645 71.1722 47.0026C71.1531 47.0788 71.1341 47.1551 71.096 47.2313C71.0388 47.3647 70.9816 47.4791 70.9054 47.5934C70.7148 47.9174 70.2955 48.2795 69.7428 48.6035C69.5713 48.6988 69.3998 48.7941 69.2092 48.8894C68.0085 49.4992 66.3314 49.9948 64.235 50.3759C63.9682 50.4331 63.7014 50.4712 63.4346 50.5093C63.1868 50.5474 62.92 50.5856 62.6341 50.6237C62.2911 50.6808 61.929 50.719 61.5478 50.7761C61.1095 50.8333 60.6521 50.8905 60.1565 50.9477C60.0994 50.9477 60.0422 50.9667 59.985 50.9667C59.5657 51.0048 59.1465 51.062 58.7462 51.1382C57.7743 51.3098 56.8595 51.5575 56.04 51.8815C55.2586 52.1864 54.6487 52.5295 54.077 52.9297C54.0388 52.9678 54.0007 52.9869 53.9436 53.025C53.6958 53.2156 53.4671 53.4062 53.2765 53.5968C53.0859 53.7873 52.9144 53.997 52.7429 54.2066C52.6095 54.3972 52.4761 54.5878 52.3617 54.7974C52.1711 55.1405 52.0377 55.5026 51.9615 55.8837C51.9424 55.96 51.9234 56.0553 51.9043 56.1315C51.8853 56.2458 51.8662 56.3602 51.8662 56.4936V56.7795C51.8662 56.7795 51.8662 56.7795 51.8662 56.7985L51.8853 57.1606C51.8853 57.1797 51.8853 57.2178 51.8853 57.2559C51.8853 57.294 51.8853 57.3131 51.9043 57.3893C51.9424 57.6562 51.9996 57.9611 52.0568 58.1136C52.0759 58.1707 52.0949 58.247 52.114 58.3232C52.1711 58.4757 52.2093 58.6281 52.2664 58.7234C52.2664 58.7425 52.2855 58.7425 52.2855 58.7615C52.438 59.1236 52.6476 59.5048 52.8954 59.8478C53.7149 60.9913 54.744 61.7727 55.716 62.3635C56.5927 61.7727 57.4693 61.3344 58.2888 60.9913C58.0601 60.877 57.8124 60.7436 57.5456 60.6102C56.364 59.9431 55.4682 59.1618 54.9727 58.3994C54.42 57.5418 54.4772 56.8557 54.6106 56.4174C54.6678 56.2268 54.7631 56.0553 54.8774 55.9028H54.8012C55.068 55.5407 55.5444 55.1976 56.059 54.9118C56.0971 54.8927 56.1353 54.8737 56.1734 54.8546C56.1924 54.8546 56.1924 54.8355 56.2115 54.8355C56.3068 54.7974 56.4021 54.7402 56.4783 54.7021C56.5164 54.6831 56.5355 54.6831 56.5736 54.664C56.707 54.6068 56.8595 54.5497 56.9929 54.4925C56.9929 54.4925 57.0119 54.4925 57.0119 54.4734C57.1835 54.4163 57.374 54.3591 57.5646 54.3019C57.9267 54.1876 58.3079 54.1113 58.7272 54.0351C58.9749 53.997 59.2036 53.9589 59.4704 53.9207C59.6991 53.9017 59.9278 53.8636 60.1565 53.8445C60.1947 53.8445 60.2328 53.8445 60.2709 53.8255C60.7283 53.7873 61.1476 53.7492 61.5478 53.7111C62.4054 53.6349 63.1677 53.5396 63.8538 53.4443C64.6733 53.3299 65.531 53.1965 66.3886 53.025C66.6744 52.9678 66.9794 52.8916 67.2653 52.8344C67.5321 52.7772 67.7989 52.701 68.0657 52.6248C68.9043 52.3961 69.7428 52.0912 70.5623 51.729C71.5534 51.2526 72.6016 50.6618 73.4401 49.5374C73.4973 49.4611 73.5354 49.3849 73.5926 49.3087C73.9356 48.8131 74.1834 48.2605 74.2977 47.7459C74.2977 47.7268 74.2977 47.7078 74.3168 47.6887C74.3359 47.5934 74.374 47.3838 74.393 47.2313L74.4311 46.4499L74.4502 46.2975Z" fill="white"/>
<path d="M66.332 66.3849C66.0461 65.6416 65.5888 64.9746 64.9027 64.3266C64.7883 64.2122 64.6549 64.1169 64.5406 64.0217C63.8354 64.3838 63.1684 64.6887 62.5204 64.9364C62.406 64.9936 62.2726 65.0317 62.1392 65.0699C62.9015 65.4701 63.6067 66.0228 64.045 66.8423C64.1022 66.9566 64.1594 67.09 64.1975 67.2044C64.1975 67.2234 64.1975 67.2234 64.2166 67.2425C64.2356 67.2615 64.2356 67.2997 64.2547 67.3187C64.2928 67.4521 64.3119 67.5855 64.3309 67.738C64.35 68.0239 64.3309 68.3098 64.2356 68.5956C64.2356 68.6147 64.2166 68.6337 64.2166 68.6528C64.1975 68.729 64.1594 68.7862 64.1403 68.8624C64.1213 68.9196 64.1022 68.9768 64.0641 69.053C64.045 69.0911 64.045 69.1293 64.026 69.1483L63.9879 69.2245L63.9688 69.2436C63.9497 69.2817 63.9116 69.3198 63.8735 69.358C63.5686 69.7582 63.2255 70.044 62.8063 70.2346C62.7872 70.2537 62.7681 70.2537 62.7491 70.2537C62.6538 70.2918 62.5585 70.349 62.4441 70.3871C62.2154 70.4633 61.9677 70.5396 61.7009 70.6158C61.6628 70.6349 61.6246 70.6349 61.5865 70.6539C61.5865 70.6539 61.5865 70.6539 61.5675 70.6539C61.2435 70.7301 60.9004 70.8064 60.5574 70.8826C60.5574 70.8826 60.5574 70.8826 60.5383 70.8826C60.424 70.9017 60.2906 70.9398 60.1762 70.9588C59.7188 71.0541 59.2424 71.1685 58.7659 71.3019C58.1751 71.4734 57.5462 71.7021 56.8982 72.1404C56.8601 72.1595 56.822 72.1976 56.7839 72.2167C56.6123 72.3501 56.4408 72.4835 56.2883 72.655C56.1549 72.7884 56.0406 72.9409 55.9262 73.0934C55.9072 73.1315 55.8691 73.1887 55.85 73.2268C55.6785 73.5126 55.5451 73.8557 55.4498 74.2369C55.4307 74.3703 55.3735 74.599 55.3735 74.7895L55.3545 75.2088L55.3735 75.3803L55.3926 75.59C55.4117 75.7234 55.4307 75.8377 55.4498 75.9521C55.507 76.1808 55.5641 76.3523 55.6594 76.562C56.0025 77.2481 56.517 77.6864 56.9744 78.0104C57.489 77.6292 58.0417 77.3052 58.5753 77.0194C58.4038 76.9241 58.2323 76.8288 58.0798 76.7144C57.813 76.5429 57.3556 76.1808 57.2031 75.7615L57.1841 75.7234C57.1841 75.7043 57.165 75.6662 57.165 75.6281C57.146 75.5519 57.1269 75.4756 57.1269 75.3613C57.1269 75.3422 57.1269 75.3041 57.1269 75.2851C57.1269 75.266 57.1269 75.2469 57.1269 75.2469C57.1269 75.2279 57.1269 75.2088 57.1269 75.1707V75.1517C57.1269 75.1326 57.1269 75.1135 57.1269 75.0945C57.1269 75.0373 57.1269 74.9801 57.146 74.923C57.146 74.8467 57.165 74.7895 57.1841 74.7324L57.2031 74.6943C57.2031 74.6561 57.2222 74.618 57.2222 74.5799C57.3365 74.2559 57.47 74.0463 57.7177 73.8366C57.7749 73.7985 57.813 73.7413 57.8892 73.7032C58.0989 73.5698 58.3657 73.4364 58.6706 73.3221C58.7087 73.303 58.7659 73.2839 58.804 73.2649C58.9755 73.2077 59.1471 73.1505 59.3377 73.1124C59.6235 73.0362 59.9094 72.979 60.2334 72.9028C60.424 72.8647 60.6146 72.8265 60.8242 72.7884C61.091 72.7313 61.3578 72.6931 61.6246 72.636C62.1011 72.5407 62.5966 72.4263 63.1112 72.2739C63.2446 72.2357 63.378 72.1786 63.5114 72.1404C63.7592 72.0452 64.0069 71.9499 64.2547 71.8165C64.4643 71.7021 64.674 71.5878 64.8836 71.4353C64.9789 71.3591 65.0932 71.2828 65.1885 71.1875L65.4363 70.9588C65.5316 70.8636 65.6078 70.7492 65.684 70.6539C65.7603 70.5586 65.7793 70.5205 65.8175 70.4633L66.008 70.1393C66.2177 69.7582 66.3511 69.3961 66.4654 68.9958C66.637 68.4241 66.656 67.7952 66.5798 67.2234C66.4845 66.8994 66.4273 66.6326 66.332 66.3849Z" fill="white"/>
<path d="M65.6459 87.4441C65.6268 87.4441 65.6268 87.4441 65.6268 87.4441C65.4744 87.4441 65.1694 87.406 64.7311 87.3488C64.4262 87.3107 64.064 87.2535 63.6638 87.1773C63.378 87.1201 63.0921 87.063 62.7681 86.9867C62.5775 86.9295 62.3679 86.8914 62.1582 86.8343C62.0629 86.8152 61.9676 86.7771 61.8724 86.739C61.7771 86.7199 61.7008 86.6818 61.6055 86.6627C61.1672 86.5103 60.6907 86.3387 60.2143 86.1291C59.9475 85.9957 59.6807 85.8623 59.4138 85.7098C59.2042 85.5764 58.9946 85.443 58.7849 85.2905C58.7659 85.2715 58.7277 85.2524 58.7087 85.2334C58.6896 85.2143 58.6515 85.1953 58.6325 85.1762C58.0226 84.6807 57.6224 84.0518 57.489 83.4228C57.489 83.4038 57.489 83.3847 57.489 83.3657C57.4699 83.3085 57.4509 83.2513 57.4509 83.1751L57.4318 82.832C57.4318 82.7367 57.4318 82.6414 57.4509 82.5652C57.4509 82.4318 57.4699 82.3365 57.489 82.2603C57.5652 81.8791 57.6986 81.5361 57.9273 81.2311C58.0988 80.9834 58.3466 80.7356 58.6706 80.4879C58.7087 80.4688 58.7468 80.4307 58.7849 80.4116C58.9565 80.2782 59.1661 80.1639 59.3948 80.0305C59.6235 79.9161 59.8712 79.7827 60.119 79.6684C60.1381 79.6493 60.1762 79.6493 60.2143 79.6302C60.4811 79.4968 60.767 79.3825 61.0719 79.2491C61.2434 79.1729 61.434 79.0966 61.6055 79.0204C61.758 78.9632 61.9105 78.887 62.0629 78.8107C62.2916 78.6964 62.5394 78.582 62.7872 78.4486C62.9396 78.3533 63.0921 78.2771 63.2636 78.1818C63.3208 78.1437 63.378 78.1056 63.4542 78.0675C63.9116 77.7625 64.4452 77.3051 64.7692 76.6C64.8645 76.4094 64.9217 76.2379 64.9788 76.0092C64.9979 75.8948 65.036 75.7614 65.0551 75.6471L65.0741 75.4374L65.0932 75.285L65.0741 74.8466C65.0551 74.6751 65.017 74.4464 64.9788 74.2749C64.8836 73.9128 64.7501 73.5888 64.5786 73.3029C64.1975 73.4744 63.8544 73.6079 63.5304 73.7031C63.2636 73.7794 62.9968 73.8556 62.73 73.9128C62.9777 74.1224 63.1111 74.3321 63.2255 74.6561C63.2445 74.6942 63.2445 74.7323 63.2445 74.7704V74.8276C63.2636 74.8847 63.2636 74.9419 63.2827 75.0182C63.3017 75.0944 63.3017 75.1706 63.3017 75.2469C63.3017 75.2659 63.3017 75.285 63.3017 75.304C63.3017 75.3231 63.3017 75.3422 63.3017 75.3612V75.4565V75.5708C63.3017 75.6661 63.2636 75.7614 63.2255 75.8567C63.073 76.2951 62.6156 76.6381 62.3488 76.8287C62.1963 76.924 62.0248 77.0383 61.8533 77.1336C61.7771 77.1717 61.7008 77.2099 61.6246 77.248C61.434 77.3433 61.2625 77.4386 61.0719 77.5338C60.8813 77.6291 60.6717 77.7244 60.4811 77.8197C60.4049 77.8578 60.3286 77.896 60.2524 77.9341C59.9856 78.0484 59.7378 78.1628 59.471 78.2962C59.2614 78.4105 59.0517 78.5249 58.823 78.6392C58.6896 78.7155 58.5372 78.7917 58.4038 78.887C58.1751 79.0204 57.9654 79.1919 57.7558 79.3444C57.5652 79.4968 57.3746 79.6684 57.2031 79.8589C57.0316 80.0495 56.86 80.2401 56.7076 80.4497C56.3836 80.9262 56.1549 81.517 56.0787 82.1078C56.0596 82.2222 56.0405 82.3746 56.0405 82.508L56.0215 82.8511L56.0596 83.3085C56.0787 83.48 56.1168 83.6325 56.1549 83.804C56.3455 84.6235 56.7838 85.2715 57.2412 85.7479C57.4508 85.9576 57.6414 86.1482 57.832 86.2816C57.8511 86.3006 57.8511 86.3006 57.8701 86.3197C58.1179 86.5103 58.3847 86.6818 58.6325 86.8343C58.7087 86.8914 58.7849 86.9295 58.8612 86.9677C59.2614 87.1964 59.6425 87.3679 59.9856 87.5013C60.0809 87.5394 60.1762 87.5775 60.2715 87.6156C60.5955 87.73 60.9385 87.8443 61.3006 87.9587C61.415 87.9968 61.5484 88.0349 61.6818 88.054C61.758 88.073 61.8342 88.0921 61.9295 88.1112C62.082 88.1493 62.2154 88.1874 62.3488 88.2064C63.2827 88.4161 64.045 88.5304 64.6739 88.6067C64.9979 88.6448 65.2457 88.6638 65.4172 88.6829L65.7031 88.702C66.008 88.702 66.2557 88.4733 66.2748 88.1683C66.1986 87.73 65.9508 87.4632 65.6459 87.4441Z" fill="white"/>
<path d="M68.4856 56.4555C68.4856 56.3602 68.4665 56.2268 68.4474 56.0934C68.4284 56.0172 68.4093 55.9409 68.4093 55.8647C68.3331 55.5026 68.1806 55.1214 67.99 54.7784C67.8757 54.5687 67.7423 54.3781 67.6089 54.1876C66.4463 54.4734 65.3028 54.664 64.1784 54.8165C64.7883 55.1214 65.2266 55.4645 65.5125 55.8647C65.6078 56.0171 65.7031 56.1506 65.7602 56.3221C65.9127 56.7223 65.9889 57.3322 65.5506 58.1136C65.036 59.0093 64.1212 59.8479 62.7681 60.5911C62.5203 60.7245 62.2726 60.8579 62.0248 60.9723C61.8533 61.0485 61.7008 61.1248 61.5293 61.201C61.3959 61.2582 61.2625 61.3153 61.1291 61.3725C61.11 61.3725 61.091 61.3916 61.0719 61.3916C60.767 61.525 60.443 61.6393 60.119 61.7537C60.0999 61.7537 60.0809 61.7727 60.0809 61.7727C59.8141 61.868 59.5473 61.9633 59.2233 62.0967C59.0517 62.173 58.8802 62.2301 58.7087 62.3064C58.1751 62.5351 57.6414 62.8019 57.0887 63.1068C56.86 63.2402 56.6123 63.3927 56.3836 63.5451C56.1739 63.6976 55.9643 63.8501 55.7547 64.0216C55.6403 64.1169 55.5069 64.2312 55.3926 64.3265C54.7065 64.9555 54.2491 65.6225 53.9632 66.3658C53.8679 66.6135 53.7917 66.8994 53.7536 67.1853C53.6773 67.7761 53.6964 68.405 53.8679 68.9577C53.9823 69.3388 54.1347 69.72 54.3253 70.1012L54.4206 70.2536L54.4396 70.2727L54.5349 70.4252C54.554 70.4633 54.5921 70.5014 54.6684 70.5967C54.7446 70.711 54.8399 70.8063 54.9352 70.9016L55.202 71.1684C55.2973 71.2447 55.3926 71.3209 55.4879 71.3971C55.6213 71.2637 55.7737 71.1494 55.9262 71.035C56.4598 70.6539 57.0125 70.387 57.508 70.1965C56.7076 69.8153 56.1549 69.1483 55.9834 68.3669C55.9071 67.9667 55.9453 67.5664 56.0787 67.1853C56.2311 66.7469 56.517 66.3276 56.9172 65.9655C57.2984 65.6225 57.7558 65.3366 58.2322 65.0889C58.4038 64.9936 58.5562 64.9173 58.7087 64.8411C58.8421 64.7839 58.9755 64.7077 59.1089 64.6505C59.452 64.4981 59.7569 64.3837 60.0428 64.2694C60.0618 64.2694 60.0999 64.2503 60.119 64.2503C60.2905 64.1931 60.5002 64.1169 60.7479 64.0407C60.9957 63.9644 61.2625 63.8691 61.5103 63.7738C61.6627 63.7167 61.7961 63.6786 61.9486 63.6214C62.3488 63.4689 62.749 63.2974 63.1493 63.1068C63.397 62.9925 63.6448 62.8781 63.8925 62.7447C63.8925 62.7447 63.9116 62.7447 63.9116 62.7256C64.1212 62.6113 64.3499 62.4779 64.5596 62.3445C65.5315 61.7537 66.5607 60.9913 67.3802 59.8288C67.6279 59.4857 67.8376 59.1046 67.99 58.7425C67.99 58.7234 68.0091 58.7234 68.0091 58.7044C68.0663 58.59 68.1044 58.4566 68.1616 58.3041C68.1806 58.247 68.1997 58.1707 68.2187 58.1136C68.2759 57.942 68.3331 57.6371 68.3712 57.3893C68.3903 57.294 68.3903 57.275 68.3903 57.2369C68.3903 57.1988 68.3903 57.1606 68.3903 57.1225L68.4093 56.7795C68.4093 56.7604 68.4093 56.7604 68.4093 56.7414L68.4856 56.4555Z" fill="white"/>
<path d="M53.2574 51.7672C53.9244 51.2907 54.6486 50.9095 55.5253 50.5665C55.7159 50.4903 55.9065 50.4331 56.1161 50.3569C54.0197 49.9566 52.3426 49.4611 51.1419 48.8703C50.9513 48.775 50.7798 48.6797 50.6273 48.5844C50.0937 48.2605 49.6744 47.8983 49.4648 47.5553C49.4076 47.46 49.3314 47.3457 49.2742 47.2122C49.2361 47.1551 49.217 47.0788 49.217 47.0217C49.198 46.9264 49.198 46.8692 49.198 46.793V46.7549V46.6024C49.198 46.5643 49.198 46.5262 49.198 46.488V46.469V46.4309C49.198 46.3356 49.2361 46.2593 49.2551 46.1831C49.2933 46.0306 49.3504 45.8591 49.4267 45.7067C49.4457 45.6876 49.4457 45.6685 49.4648 45.6495C49.541 45.5351 49.6363 45.4589 49.7507 45.4017C49.9794 45.2683 50.3605 45.1921 50.6083 45.173C50.7036 45.173 50.8179 45.154 50.9132 45.154C51.1228 45.154 51.3515 45.173 51.5421 45.1921C52.6666 46.6405 54.7248 46.9836 55.4109 47.0598C56.2304 47.1551 59.1464 46.1069 57.0309 43.1147C55.6968 41.247 53.7529 41.4185 52.5141 41.8188C52.3997 41.7997 52.3045 41.7807 52.1901 41.7807C51.7327 41.7235 50.9513 41.6854 50.2271 41.7616C49.5029 41.8569 48.5119 42.0475 47.559 42.8098C47.1016 43.1719 46.7013 43.6674 46.4345 44.201C46.1868 44.6966 46.0343 45.2302 45.939 45.8591L45.8818 46.4499L45.92 47.2122C45.939 47.3457 45.9581 47.5744 45.9962 47.6506C45.9962 47.6696 46.0152 47.6887 46.0152 47.7078C46.0724 47.9936 46.1677 48.2795 46.3011 48.5654C46.4536 48.8894 46.6442 49.2134 46.8729 49.5183C47.7305 50.6237 48.7596 51.2145 49.7697 51.71C50.5892 52.0721 51.4087 52.377 52.2473 52.6057C52.5522 52.3198 52.8762 52.034 53.2574 51.7672Z" fill="white"/>
</g>
</svg>
