<svg width="80" height="73" viewBox="0 0 80 73" fill="none" xmlns="http://www.w3.org/2000/svg">
<g id="Group">
<path id="Vector" fill-rule="evenodd" clip-rule="evenodd" d="M64.9121 14.084C66.519 10.955 68.8771 8.36707 68.8771 6.72686C68.8771 6.72686 71.7909 6.6385 71.6711 13.5065C71.5621 19.7392 70.2561 24.1496 70.2561 24.1496L65.5473 25.2778L60.6172 21.8655" fill="#D6DCE0"/>
<g id="Group_2">
<mask id="mask0_13831_2866" style="mask-type:alpha" maskUnits="userSpaceOnUse" x="61" y="11" width="17" height="29">
<g id="b">
<path id="Vector_2" d="M61.5117 11.0259H77.5518V39.569H61.5117V11.0259Z" fill="white"/>
</g>
</mask>
<g mask="url(#mask0_13831_2866)">
<path id="Vector_3" fill-rule="evenodd" clip-rule="evenodd" d="M62.635 27.7477C65.5573 25.2183 66.9118 24.0518 66.9118 24.0518L68.0729 23.8171L67.4681 23.5173C67.4681 23.5173 69.1613 22.108 69.5726 21.6462L71.1689 21.3791L70.2257 20.9418C70.2257 20.9418 71.6531 19.4353 71.8947 18.779H72.717L72.3302 17.7827C72.3302 17.7827 73.7089 15.1342 74.4586 11.2461C74.4586 11.2461 75.9697 9.61479 77.1681 15.2315C77.676 17.6128 77.5065 19.8726 77.5065 19.8726L76.7081 20.5043H77.534C77.534 20.5043 77.6273 22.9831 77.3857 24.538C77.3857 24.538 76.7325 25.0241 75.4989 25.0482L77.192 26.0447C77.192 26.0447 76.9809 28.8993 76.0486 32.1331L72.7191 32.2126L75.4124 34.0642C75.021 35.1051 74.5474 36.1357 73.9749 37.0765C73.9749 37.0765 71.3041 41.5072 64.7367 38.5547C59.0298 35.989 62.635 27.7477 62.635 27.7477" fill="#C6CED3"/>
</g>
</g>
<path id="Vector_4" fill-rule="evenodd" clip-rule="evenodd" d="M64.4626 35.5855C59.5657 36.3205 54.4197 30.8056 54.4197 30.8056C53.5093 29.9562 52.2993 28.5449 51.509 27.4964C51.509 27.4964 55.1354 26.1815 54.8085 25.489C54.568 24.9788 50.1358 25.411 50.1358 25.411C48.9682 23.589 48.2276 22.1521 48.2276 22.1521C48.2276 22.1521 53.0513 22.1952 52.4844 20.9857C52.146 20.2628 47.55 20.4995 47.55 20.4995C47.55 20.4995 47.2115 19.8194 46.9213 18.6043C46.631 17.3895 46.5826 16.9034 46.5826 16.9034C46.5826 16.9034 49.8721 17.2437 51.0331 16.0774L46.2921 15.3968C46.2921 15.3968 46.171 14.5466 46.2921 12.7241C46.4214 10.7821 46.4966 10.5372 46.4966 10.5372C47.7921 10.7558 49.2434 10.6585 49.2434 10.6585C49.2434 10.6585 48.4919 9.59788 46.5324 9.47609C46.5324 9.47609 46.71 3.21099 49.6302 1.35202C55.5146 -2.39327 63.0741 7.79512 63.0741 7.79512C58.8838 8.78968 59.0881 9.17631 59.0881 9.17631C60.8781 10.0025 63.6841 9.32215 63.6841 9.32215C63.6841 9.32215 64.0225 9.92957 64.3852 10.9745C64.7483 12.0192 64.8207 12.7725 64.8207 12.7725C64.8207 12.7725 62.402 12.6755 62.1117 13.7688C62.1117 13.7688 62.3533 14.5221 65.1594 13.9389C65.1594 13.9389 65.4469 14.8196 65.5679 16.4233C65.6889 18.0271 65.7159 19.0416 65.7159 19.0416C65.7159 19.0416 62.7528 19.129 62.8194 19.7675C62.9011 20.5512 65.7949 20.3327 65.7949 20.3327C65.7949 20.3327 65.8367 26.1372 66.2238 30.5112C66.2238 30.5112 66.8908 35.2209 64.4626 35.5852" fill="#B5C2C9"/>
<path id="Vector_5" d="M49.25 0.967285C55.2729 1.47748 55.5336 16.1895 57.3309 21.4233C59.0982 26.5708 64.0821 35.201 64.0821 35.201" stroke="white" stroke-width="0.589996" stroke-linecap="round"/>
<path id="Vector_6" d="M69.2333 6.78174C69.2333 6.78174 69.8502 10.9005 68.6498 16.0576L68.6468 16.05C67.4459 21.2071 65.8443 23.7606 65.8443 23.7606M62.7656 37.0803C67.6723 30.8638 69.0853 32.0219 72.5685 25.4611C76.0516 18.9005 75.0358 11.3188 75.0358 11.3188L62.7656 37.0803Z" stroke="white" stroke-width="0.589996" stroke-linecap="round"/>
<g id="Group_3">
<g id="Group_4">
<path id="Vector_7" d="M48.7545 8.09741H46.7991C31.2001 8.09741 18.5547 20.7937 18.5547 36.4555V38.4188C18.5547 54.0805 31.2001 66.7768 46.7991 66.7768H48.7545C64.3535 66.7768 76.999 54.0805 76.999 38.4188V36.4555C76.999 20.7937 64.3535 8.09741 48.7545 8.09741Z" fill="white" stroke="#131625" stroke-width="4.97264"/>
<g id="Group_5">
<mask id="mask1_13831_2866" style="mask-type:alpha" maskUnits="userSpaceOnUse" x="21" y="11" width="53" height="53">
<g id="d">
<path id="Vector_8" d="M21.707 11.2612H73.8508V63.6147H21.707V11.2612Z" fill="white"/>
</g>
</mask>
<g mask="url(#mask1_13831_2866)">
<path id="Vector_9" d="M58.5678 51.4142H36.99C32.8389 48.1794 30.167 43.122 30.167 37.4377C30.167 27.6719 38.052 19.7552 47.7787 19.7552C57.5056 19.7552 65.3906 27.6719 65.3906 37.438C65.3906 43.1223 62.7187 48.1794 58.5678 51.4144V51.4142ZM47.7787 11.2612C33.3798 11.2612 21.707 22.981 21.707 37.438C21.707 51.8948 33.3798 63.6145 47.7787 63.6145C62.178 63.6145 73.8505 51.8948 73.8505 37.438C73.8508 22.981 62.178 11.2612 47.7787 11.2612Z" fill="#131625"/>
</g>
</g>
<path id="Vector_10" fill-rule="evenodd" clip-rule="evenodd" d="M30.4259 51.1169C30.5416 51.26 30.6902 51.324 30.8718 51.3094C31.0533 51.2942 31.2468 51.203 31.4518 51.0359C31.8785 50.6885 31.9602 50.3515 31.6969 50.0256C31.6187 49.9287 31.527 49.8435 31.4245 49.773C31.3201 49.7013 31.212 49.6351 31.1007 49.5747L31.6074 49.162C31.8394 49.281 32.05 49.458 32.2396 49.6922C32.5112 50.0282 32.6219 50.3649 32.5727 50.7019C32.5236 51.0394 32.3155 51.3577 31.9486 51.6565C31.7191 51.8433 31.482 51.9644 31.2382 52.0193C31.0042 52.0748 30.759 52.0583 30.5346 51.9717C30.3094 51.8849 30.1079 51.7314 29.9299 51.5109C29.7365 51.2725 29.5992 50.9934 29.5284 50.6943L30.1487 50.4943C30.177 50.6077 30.2113 50.7164 30.2511 50.8199C30.2915 50.9237 30.3495 51.0225 30.4259 51.1169V51.1169ZM30.1556 46.6105L30.557 47.2764L29.5614 47.8816L30.0254 48.6513L31.021 48.0461L31.4225 48.7121L28.9801 50.1966L28.5787 49.5306L29.484 48.9804L29.02 48.2105L28.1146 48.7607L27.7132 48.0948L30.1556 46.6105ZM29.9397 46.1074L27.3513 47.3167L27.0242 46.611L29.6126 45.4018L29.9397 46.1074ZM29.3814 44.8928L26.6938 45.86L26.4336 45.1311L28.5345 44.3748L28.1636 43.3359L28.7499 43.1248L29.3814 44.8928Z" fill="white"/>
<path id="Vector_11" d="M26.8662 41.4909C26.6107 41.5471 26.4322 41.6393 26.3311 41.7679C26.2297 41.8965 26.2014 42.0641 26.2466 42.2712L26.2945 42.4915L27.8568 42.1484L27.8199 41.9801C27.77 41.7502 27.6671 41.5962 27.5108 41.5182C27.3544 41.44 27.1396 41.4309 26.8662 41.4909ZM26.6685 40.7115C27.134 40.6095 27.5209 40.6594 27.8285 40.8614C28.1362 41.0635 28.341 41.3974 28.4423 41.8636L28.6395 42.7695L25.8504 43.3815L25.6396 42.4123C25.5417 41.9628 25.5808 41.5906 25.7563 41.2957C25.9321 41.0012 26.236 40.8062 26.6685 40.7115V40.7115ZM26.4022 39.324L26.3911 39.1792C26.3701 38.9095 26.241 38.7839 26.0035 38.8027C25.8075 38.8179 25.7198 38.9576 25.7402 39.2222L25.752 39.3747L26.4022 39.324ZM26.9804 39.2789L28.0161 39.1979L28.0759 39.9702L25.2295 40.1922L25.1571 39.2559C25.0971 38.4791 25.3473 38.0689 25.9081 38.0254C26.2377 37.9995 26.5053 38.1413 26.7106 38.4502L27.8865 37.521L27.9544 38.3968L26.9653 39.0835L26.9804 39.2789V39.2789Z" fill="white"/>
<path id="Vector_12" fill-rule="evenodd" clip-rule="evenodd" d="M27.9869 35.6376L27.9188 37.338L25.0664 37.2228L25.1345 35.5224L25.7528 35.5474L25.7155 36.4741L26.1644 36.4919L26.199 35.6343L26.8173 35.6591L26.783 36.5172L27.3217 36.5387L27.3587 35.612L27.9869 35.6376ZM28.4719 32.5362L28.2961 33.5363L26.1347 34.2171L26.1316 34.2346C26.4474 34.265 26.6872 34.2949 26.8514 34.324L28.1186 34.5483L28 35.2241L25.1885 34.7266L25.3635 33.7302L27.4977 33.0486L27.4995 33.0372C27.2695 33.0129 27.0403 32.9817 26.8123 32.9436L25.541 32.7185L25.6603 32.0389L28.4719 32.5359V32.5362ZM26.0893 30.6197L26.1387 30.6035C26.5634 30.8517 26.8821 31.0643 27.0955 31.2416L26.9449 31.7652C26.6064 31.581 26.2591 31.4137 25.9042 31.2639L26.0893 30.6197V30.6197ZM28.7644 29.0403C28.9298 29.1033 29.0612 29.2011 29.1578 29.3345C29.2544 29.4674 29.3084 29.6272 29.3195 29.813C29.3311 29.9991 29.2963 30.1992 29.2156 30.4131C29.1482 30.5914 29.0794 30.7364 29.0088 30.8481C28.9382 30.9595 28.8471 31.0689 28.7357 31.176L28.0928 30.9317C28.215 30.8211 28.3249 30.6977 28.4207 30.5635C28.5165 30.4293 28.5879 30.3002 28.635 30.1754C28.6754 30.0678 28.6867 29.9819 28.6686 29.9176C28.6615 29.8882 28.6472 29.861 28.6271 29.8384C28.607 29.8158 28.5817 29.7986 28.5533 29.7882C28.5193 29.7744 28.4816 29.7721 28.4462 29.7819C28.4111 29.7918 28.3713 29.8135 28.3264 29.8475C28.2815 29.8814 28.1796 29.9786 28.0202 30.1386C27.8752 30.2835 27.7489 30.3855 27.6419 30.4445C27.5345 30.504 27.4251 30.5362 27.3128 30.5417C27.2009 30.5476 27.0788 30.5253 26.9474 30.4751C26.7016 30.3817 26.5437 30.2189 26.4738 29.987C26.404 29.7551 26.4284 29.4819 26.547 29.1676C26.6514 28.8904 26.8218 28.6316 27.0589 28.3918L27.532 28.8253C27.3232 29.0324 27.1845 29.2271 27.1156 29.4092C27.0803 29.5034 27.0708 29.5778 27.0876 29.6333C27.0938 29.6583 27.106 29.6814 27.123 29.7007C27.1401 29.7199 27.1615 29.7348 27.1855 29.7439C27.2379 29.7639 27.2949 29.7545 27.357 29.7161C27.419 29.6773 27.5501 29.5583 27.7504 29.3591C27.941 29.1674 28.1128 29.0494 28.2653 29.0046C28.4179 28.9598 28.5841 28.9717 28.7647 29.04" fill="white"/>
<path id="Vector_13" d="M29.2937 26.7583C29.7651 27.0467 30.1007 27.0262 30.3007 26.6971C30.4021 26.5295 30.4202 26.3705 30.3549 26.2193C30.2894 26.0684 30.1355 25.9187 29.8932 25.7704C29.6496 25.6218 29.4451 25.5526 29.2791 25.5638C29.1132 25.5744 28.9805 25.6615 28.8817 25.8246C28.6807 26.1562 28.8179 26.4674 29.2937 26.7583ZM30.3158 25.0741C30.7261 25.3248 30.9766 25.6167 31.0673 25.9491C31.1581 26.2818 31.0855 26.6429 30.8492 27.0326C30.6162 27.4164 30.3305 27.6453 29.9915 27.7187C29.6526 27.7924 29.2781 27.7038 28.8678 27.4529C28.462 27.2047 28.2139 26.9133 28.1236 26.5786C28.0331 26.2444 28.1057 25.8825 28.3415 25.4941C28.5778 25.1045 28.863 24.8741 29.1974 24.8029C29.5318 24.732 29.9045 24.8224 30.3158 25.0738" fill="white"/>
<path id="Vector_14" fill-rule="evenodd" clip-rule="evenodd" d="M33.5454 23.4096L32.8893 24.1824L30.6822 23.6699L30.6708 23.6833C30.9275 23.8704 31.1197 24.0181 31.2463 24.1267L32.226 24.9645L31.7827 25.4869L29.6094 23.6281L30.263 22.8579L32.4469 23.3557L32.4545 23.3468C32.2684 23.2089 32.0865 23.0653 31.909 22.9164L30.9265 22.0758L31.3721 21.5507L33.5454 23.4096V23.4096ZM33.9381 23.0559L32.0384 20.9164L32.6144 20.4009L34.0997 22.0738L34.9203 21.3392L35.3347 21.8061L33.9381 23.0559ZM35.6628 21.575L33.9631 19.2716L34.5859 18.8083L36.2857 21.1116L35.6628 21.575ZM39.0624 19.4048L38.1861 19.9117L36.2783 18.6842L36.2632 18.6931C36.4428 18.9559 36.5736 19.16 36.6569 19.3048L37.2992 20.4244L36.7071 20.767L35.2822 18.2831L36.1553 17.7783L38.0456 18.9835L38.0557 18.9777C37.9265 18.7851 37.8033 18.5886 37.686 18.3885L37.0417 17.2653L37.6376 16.9209L39.0624 19.4048V19.4048ZM41.1235 18.5634L39.5542 19.2063L38.4759 16.552L40.0452 15.9094L40.279 16.4849L39.4238 16.8354L39.5935 17.2526L40.3854 16.9285L40.6192 17.5038L39.8273 17.8279L40.0308 18.3292L40.886 17.9791L41.1235 18.5634Z" fill="white"/>
<path id="Vector_15" d="M42.8955 16.4162L43.0327 16.3853C43.1459 16.36 43.2286 16.3078 43.2811 16.2291C43.3335 16.1506 43.3474 16.0549 43.3222 15.9427C43.28 15.7538 43.155 15.6829 42.9464 15.73L42.7522 15.7733L42.8955 16.4164V16.4162ZM44.0832 15.7672C44.1534 16.0797 44.1153 16.342 43.9698 16.5534C43.8243 16.7651 43.5824 16.9087 43.2445 16.9849L43.0332 17.0325L43.2399 17.9602L42.4874 18.1298L41.8633 15.3325L42.8274 15.1158C43.1794 15.0365 43.4609 15.0542 43.6717 15.1689C43.8828 15.2834 44.0202 15.4829 44.0835 15.7672H44.0832ZM45.4942 15.9316L45.6379 15.9182C45.9063 15.8928 46.0291 15.7614 46.0074 15.5232C45.989 15.3267 45.8485 15.2406 45.5852 15.2654L45.4337 15.2796L45.4942 15.9316V15.9316ZM45.5477 16.5114L45.6437 17.5498L44.8756 17.6217L44.6116 14.7676L45.5429 14.6805C46.3153 14.6084 46.7279 14.8535 46.7798 15.4158C46.8103 15.7462 46.6734 16.0172 46.3688 16.2278L47.3119 17.394L46.4409 17.4756L45.7421 16.4932L45.5479 16.5111L45.5477 16.5114Z" fill="white"/>
<path id="Vector_16" fill-rule="evenodd" clip-rule="evenodd" d="M47.5 17.4331L47.5464 14.5669L48.3214 14.5795L48.2752 17.4457L47.5 17.4331ZM50.73 14.758L51.5881 14.8499L50.355 17.6004L49.4522 17.5037L48.8293 14.5542L49.6912 14.6466L49.924 16.1326C49.9701 16.4623 49.9903 16.6907 49.9845 16.8173C50.0034 16.7274 50.0337 16.6157 50.0753 16.482C50.1172 16.3486 50.1525 16.244 50.1815 16.1681L50.73 14.7578V14.758Z" fill="white"/>
<path id="Vector_17" d="M53.1894 16.9709L53.1839 16.4843C53.1814 16.3759 53.1801 16.2362 53.1806 16.0653C53.1811 15.8943 53.1836 15.7723 53.1882 15.6994C53.1609 15.7612 53.1118 15.8619 53.0414 16.002C52.971 16.142 52.824 16.4154 52.6003 16.8228L53.1894 16.9709V16.9709ZM53.1978 18.1815L53.1912 17.6262L52.2914 17.4001L52.0213 17.886L51.1992 17.6794L52.7988 15.1145L53.7969 15.3652L54.0161 18.3871L53.1978 18.1815V18.1815Z" fill="white"/>
<path id="Vector_18" fill-rule="evenodd" clip-rule="evenodd" d="M56.2355 16.8486C56.0652 16.7802 55.9044 16.7969 55.753 16.8987C55.6017 17.0007 55.4769 17.1747 55.3791 17.4213C55.175 17.9333 55.2671 18.2672 55.6552 18.4229C55.7725 18.47 55.8928 18.4989 56.0158 18.5105C56.1386 18.5219 56.265 18.527 56.3946 18.5255L56.1525 19.1332C55.8923 19.143 55.6224 19.0916 55.343 18.9797C54.943 18.8192 54.6823 18.5797 54.562 18.2609C54.4414 17.9421 54.4687 17.5626 54.6442 17.122C54.7539 16.8465 54.9019 16.6252 55.0885 16.4579C55.2659 16.2949 55.4881 16.1895 55.7261 16.1553C55.9649 16.1209 56.2153 16.1563 56.4776 16.2616C56.7622 16.3752 57.0175 16.552 57.2245 16.7787L56.7797 17.257C56.7023 17.1736 56.6198 17.0953 56.5325 17.0225C56.4432 16.9493 56.3429 16.8906 56.2355 16.8486V16.8486ZM58.2973 18.3723L59.2422 17.6846L59.9723 18.0933L58.3046 19.16L57.7617 20.1378L57.0828 19.7578L57.6144 18.8007L57.6527 16.7951L58.3861 17.2053L58.2973 18.3723Z" fill="white"/>
<path id="Vector_19" d="M61.1841 20.5861L61.2931 20.6754C61.3829 20.7489 61.4747 20.7823 61.5687 20.7752C61.6628 20.7679 61.746 20.7197 61.8186 20.6309C61.9407 20.481 61.919 20.3384 61.7536 20.2025L61.5997 20.0759L61.1841 20.5861V20.5861ZM62.4259 21.1241C62.2241 21.372 61.9954 21.5039 61.7397 21.5191C61.484 21.5348 61.2222 21.4328 60.9542 21.2127L60.7862 21.0747L60.187 21.811L59.5898 21.3208L61.3967 19.1016L62.1616 19.7295C62.4408 19.9586 62.6004 20.1918 62.641 20.4293C62.6814 20.6668 62.6097 20.8983 62.4259 21.1241V21.1241ZM63.1676 22.3379L63.2669 22.4433C63.4525 22.6395 63.6316 22.6554 63.8046 22.4909C63.9471 22.3552 63.9274 22.1908 63.7458 21.9984L63.6409 21.8875L63.1676 22.3379ZM62.7467 22.7385L61.9926 23.4563L61.462 22.8942L63.534 20.9221L64.1773 21.6037C64.7114 22.1691 64.7742 22.6458 64.3662 23.0342C64.1261 23.2626 63.8295 23.3219 63.476 23.2115L63.1456 24.677L62.5437 24.0397L62.8813 22.881L62.7467 22.7385V22.7385ZM64.8214 24.56C64.3707 24.88 64.2565 25.1975 64.4784 25.5123C64.5911 25.6723 64.7293 25.752 64.8935 25.7518C65.0574 25.7513 65.2551 25.6687 65.4869 25.5042C65.7196 25.3388 65.8636 25.1775 65.9196 25.0201C65.9751 24.8628 65.9484 24.7061 65.8384 24.5504C65.6152 24.2339 65.2761 24.2367 64.8214 24.56V24.56ZM65.9562 26.1701C65.5638 26.4486 65.1979 26.5638 64.8577 26.5157C64.5175 26.4676 64.2161 26.2574 63.9539 25.8852C63.6951 25.5181 63.5993 25.1636 63.6664 24.8223C63.7335 24.4805 63.9629 24.1706 64.3553 23.8918C64.7429 23.6163 65.1076 23.5031 65.4498 23.5525C65.7915 23.6019 66.0931 23.8123 66.3551 24.1835C66.6174 24.5557 66.715 24.9102 66.6472 25.2464C66.5796 25.5829 66.3493 25.8905 65.9562 26.1701Z" fill="white"/>
<path id="Vector_20" fill-rule="evenodd" clip-rule="evenodd" d="M65.5597 28.5077L65.2031 27.8208L67.1752 26.7885L66.8529 26.1682L67.4122 25.8752L68.4124 27.8013L67.8533 28.0943L67.5318 27.4752L65.5597 28.5077ZM66.6143 31.024L66.0028 29.437L68.6656 28.4029L69.2771 29.9899L68.6996 30.2143L68.3668 29.3494L67.9476 29.5122L68.2563 30.313L67.6788 30.5371L67.3704 29.7362L66.8675 29.9315L67.2009 30.7964L66.6143 31.024ZM69.2567 32.0981C69.2111 31.9193 69.1026 31.799 68.9314 31.7365C68.7599 31.674 68.5466 31.6757 68.2906 31.7418C67.7585 31.879 67.5441 32.151 67.6483 32.5574C67.6798 32.6802 67.7272 32.7949 67.7908 32.9012C67.8541 33.0075 67.9247 33.1126 68.0026 33.2169L67.3706 33.38C67.2092 33.1744 67.0915 32.9255 67.0166 32.6331C66.9091 32.214 66.9482 31.8616 67.1331 31.5757C67.3179 31.2899 67.6392 31.0881 68.0969 30.9701C68.3832 30.8961 68.6487 30.8852 68.8931 30.9377C69.1288 30.9852 69.3449 31.103 69.5129 31.2757C69.6816 31.4489 69.8009 31.6727 69.8713 31.9474C69.948 32.2451 69.9566 32.5564 69.8965 32.8579L69.2497 32.7799C69.2713 32.665 69.2855 32.552 69.2918 32.4411C69.2983 32.33 69.2867 32.2158 69.2565 32.0981H69.2567ZM67.4987 35.1377L67.3989 34.3697L69.6042 34.0803L69.5139 33.3863L70.1394 33.3043L70.4198 35.4582L69.7944 35.5403L69.7041 34.848L67.4987 35.1377ZM67.5863 36.1773L70.4392 36.0651L70.4695 36.8427L67.6168 36.9551L67.5863 36.1773Z" fill="white"/>
<path id="Vector_21" d="M69.0407 38.3132C68.4902 38.274 68.2014 38.4466 68.1742 38.8312C68.1603 39.027 68.2171 39.1766 68.3442 39.2807C68.471 39.3847 68.6763 39.4468 68.9593 39.467C69.2437 39.4873 69.4571 39.4544 69.5998 39.3683C69.742 39.2819 69.82 39.1437 69.8333 38.9533C69.8608 38.5659 69.5965 38.3527 69.0407 38.3132V38.3132ZM68.902 40.2805C68.4226 40.2466 68.0668 40.1023 67.834 39.8488C67.6015 39.5951 67.5011 39.2407 67.5332 38.7857C67.5649 38.337 67.7147 38.002 67.982 37.7807C68.2494 37.5594 68.6231 37.4658 69.1022 37.4997C69.5761 37.5336 69.9297 37.6784 70.1629 37.9342C70.3959 38.1899 70.4966 38.5446 70.4645 38.9984C70.4325 39.4534 70.284 39.7893 70.0194 40.0063C69.7546 40.2233 69.3822 40.3147 68.902 40.2805" fill="white"/>
<path id="Vector_22" fill-rule="evenodd" clip-rule="evenodd" d="M66.7891 43.2489L67.0196 42.2599L69.2156 41.7008L69.2196 41.6836C68.9061 41.6355 68.6681 41.5924 68.5059 41.5542L67.2528 41.2597L67.4087 40.5913L70.1885 41.2448L69.9588 42.2297L67.79 42.7916L67.7875 42.803C68.0717 42.8508 68.2986 42.8949 68.4686 42.9346L69.7255 43.2301L69.5686 43.9021L66.7891 43.2489V43.2489Z" fill="white"/>
<path id="Vector_23" d="M66.7205 46.5005L67.1974 46.5863C67.3038 46.6041 67.4408 46.6294 67.608 46.6618C67.7751 46.6942 67.8942 46.7195 67.9645 46.738C67.8736 46.6726 67.7841 46.6053 67.696 46.5362C67.5724 46.4405 67.3323 46.244 66.9757 45.9473L66.7205 46.5005V46.5005ZM65.5345 46.2815L66.0792 46.3792L66.4688 45.5343L66.0442 45.1768L66.4005 44.4048L68.6099 46.4633L68.1771 47.4009L65.1797 47.0499L65.5345 46.2815Z" fill="white"/>
<path id="Vector_24" fill-rule="evenodd" clip-rule="evenodd" d="M66.2694 49.528C66.3682 49.3725 66.3816 49.2107 66.3105 49.0426C66.2389 48.8742 66.0919 48.7185 65.8692 48.576C65.4062 48.2792 65.0622 48.3076 64.8372 48.661C64.7694 48.7679 64.7185 48.8813 64.6842 49.0003C64.6501 49.1193 64.6216 49.2434 64.5989 49.3712L64.0492 49.019C64.0885 48.7603 64.1891 48.5038 64.3508 48.2493C64.5828 47.8847 64.866 47.6725 65.2004 47.6133C65.5345 47.5538 65.9007 47.6518 66.2991 47.907C66.5481 48.0668 66.7372 48.2541 66.8661 48.4694C66.9947 48.6846 67.0537 48.9132 67.0428 49.155C67.032 49.3968 66.9503 49.6374 66.7982 49.8764C66.6338 50.1358 66.4131 50.3545 66.1526 50.5162L65.7681 49.988C65.8664 49.9257 65.9584 49.8589 66.0437 49.788C66.1289 49.7171 66.2041 49.6303 66.2694 49.528V49.528ZM62.8594 50.3119L63.3496 49.7141L65.067 51.133L65.5098 50.5927L65.9965 50.9953L64.6219 52.6724L64.1349 52.2698L64.5765 51.731L62.8594 50.3119Z" fill="white"/>
<path id="Vector_25" fill-rule="evenodd" clip-rule="evenodd" d="M36.3831 34.5052C35.9877 34.5052 35.679 34.6678 35.4576 34.9929C35.2362 35.318 35.1255 35.7664 35.1255 36.3379C35.1255 37.5259 35.5754 38.1199 36.4757 38.1199C36.7473 38.1199 37.0111 38.0819 37.2663 38.0059C37.521 37.93 37.7777 37.8383 38.0359 37.7315V39.1418C37.5227 39.3697 36.9425 39.4838 36.2946 39.4838C35.3666 39.4838 34.6549 39.2137 34.1601 38.6731C33.6651 38.1325 33.418 37.3514 33.418 36.3295C33.418 35.6905 33.5378 35.1289 33.7776 34.6445C34.0172 34.1604 34.3619 33.7879 34.812 33.5276C35.2622 33.2671 35.7913 33.137 36.3998 33.137C37.0643 33.137 37.6995 33.282 38.305 33.572L37.7964 34.8853C37.5751 34.7807 37.3474 34.6904 37.1147 34.6149C36.8779 34.5403 36.631 34.5033 36.3829 34.5052" fill="#131625"/>
<path id="Vector_26" d="M40.7575 36.304C40.7575 37.4976 41.1708 38.0944 41.9982 38.0944C42.4186 38.0944 42.7305 37.9495 42.9338 37.6594C43.1373 37.3695 43.2389 36.9175 43.2389 36.304C43.2389 35.6875 43.1358 35.2322 42.9298 34.9378C42.7235 34.6438 42.4158 34.4967 42.0065 34.4967C41.1738 34.4967 40.7575 35.099 40.7575 36.304V36.304ZM44.9886 36.304C44.9886 37.3429 44.7346 38.1323 44.2272 38.6729C43.7196 39.2135 42.9764 39.4837 41.9979 39.4837C41.0333 39.4837 40.2939 39.212 39.7795 38.6689C39.265 38.1253 39.0078 37.3345 39.0078 36.2954C39.0078 35.2679 39.2635 34.483 39.7752 33.9412C40.2869 33.3993 41.0306 33.1284 42.0065 33.1284C42.985 33.1284 43.7267 33.3973 44.2315 33.9348C44.7359 34.4726 44.9886 35.2624 44.9886 36.304V36.304ZM47.7601 35.9913H48.0629C48.3126 35.9913 48.5111 35.9209 48.6581 35.7804C48.8054 35.6396 48.879 35.4454 48.879 35.1975C48.879 34.781 48.649 34.5724 48.1893 34.5724H47.7601V35.9913ZM50.5613 35.1892C50.5613 35.8789 50.3588 36.4116 49.9535 36.7874C49.5483 37.1634 48.9728 37.3512 48.2271 37.3512H47.7601V39.3991H46.0989V33.2254H48.2271C49.0038 33.2254 49.5869 33.3958 49.9767 33.7363C50.3664 34.0771 50.5613 34.5613 50.5613 35.1892V35.1892ZM53.2027 35.9913H53.5053C53.7549 35.9913 53.9534 35.9209 54.1004 35.7804C54.2477 35.6396 54.3213 35.4454 54.3213 35.1975C54.3213 34.781 54.0914 34.5724 53.6316 34.5724H53.2027V35.9913ZM56.0037 35.1892C56.0037 35.8789 55.8012 36.4116 55.3959 36.7874C54.9906 37.1634 54.4154 37.3512 53.6695 37.3512H53.2027V39.3991H51.5413V33.2254H53.6695C54.4462 33.2254 55.0292 33.3958 55.4191 33.7363C55.8087 34.0771 56.0037 34.5613 56.0037 35.1892ZM60.1087 36.874L59.8439 35.8607C59.7821 35.6353 59.7072 35.3441 59.6187 34.9864C59.5304 34.6289 59.4722 34.3729 59.4442 34.2179C59.419 34.3612 59.369 34.5977 59.2949 34.9274C59.2205 35.2565 59.0556 35.9055 58.8006 36.874H60.1087V36.874ZM60.7565 39.3993L60.4537 38.2422H58.4559L58.1444 39.3993H56.3191L58.3252 33.2001H60.5419L62.5733 39.3993H60.7565Z" fill="#131625"/>
<path id="Vector_27" fill-rule="evenodd" clip-rule="evenodd" d="M40.7935 41.7821C40.6523 41.7821 40.5419 41.8404 40.4632 41.9563C40.3837 42.0725 40.3444 42.2326 40.3444 42.4366C40.3444 42.861 40.505 43.0732 40.8266 43.0732C40.9237 43.0732 41.0177 43.0595 41.109 43.0327C41.1998 43.0053 41.2916 42.9724 41.3839 42.9344V43.4383C41.2006 43.5193 40.9933 43.5603 40.762 43.5603C40.4304 43.5603 40.1762 43.4638 39.9997 43.2707C39.8226 43.0777 39.7344 42.7987 39.7344 42.4336C39.7344 42.2055 39.7772 42.0049 39.863 41.8317C39.9434 41.6646 40.0722 41.5256 40.2324 41.433C40.3931 41.34 40.5822 41.2937 40.7996 41.2937C41.0366 41.2937 41.2636 41.3454 41.48 41.4489L41.2981 41.9178C41.2192 41.8804 41.1379 41.8482 41.0548 41.8214C40.9703 41.7946 40.8821 41.7814 40.7935 41.7821" fill="#131625"/>
<path id="Vector_28" d="M42.2995 42.6716C42.2995 42.8185 42.319 42.9304 42.358 43.0074C42.3971 43.0843 42.4627 43.1226 42.5548 43.1226C42.646 43.1226 42.7103 43.0843 42.7479 43.0074C42.7855 42.9304 42.8042 42.8185 42.8042 42.6716C42.8042 42.526 42.7852 42.4159 42.7472 42.3415C42.7091 42.267 42.6438 42.2301 42.552 42.2301C42.4619 42.2301 42.3971 42.2668 42.358 42.3407C42.319 42.4146 42.2995 42.5248 42.2995 42.6716ZM43.4021 42.6716C43.4021 42.9512 43.3272 43.1692 43.1776 43.3254C43.0276 43.4819 42.8183 43.5601 42.549 43.5601C42.2905 43.5601 42.0849 43.4801 41.9321 43.3203C41.7795 43.1603 41.7031 42.9441 41.7031 42.6716C41.7031 42.3931 41.778 42.1769 41.9276 42.0224C42.0774 41.868 42.2874 41.791 42.558 41.791C42.7252 41.791 42.8728 41.8265 43.0011 41.8981C43.1292 41.9695 43.2281 42.0718 43.2977 42.205C43.3673 42.3382 43.4021 42.4936 43.4021 42.6716" fill="#131625"/>
<path id="Vector_29" fill-rule="evenodd" clip-rule="evenodd" d="M45.824 43.53V42.6007C45.824 42.4853 45.8081 42.3984 45.7765 42.3407C45.7627 42.3133 45.7412 42.2905 45.7147 42.2751C45.6882 42.2597 45.6578 42.2523 45.6272 42.2539C45.537 42.2539 45.4709 42.2926 45.4288 42.3701C45.3867 42.4476 45.3657 42.5686 45.3657 42.7337V43.53H44.7769V42.6007C44.7769 42.4853 44.7618 42.3984 44.7318 42.3407C44.7188 42.3134 44.698 42.2906 44.6721 42.2751C44.6462 42.2597 44.6163 42.2523 44.5862 42.2539C44.5442 42.252 44.5026 42.2628 44.4667 42.2848C44.4309 42.3069 44.4024 42.3392 44.385 42.3777C44.3429 42.4602 44.322 42.5947 44.322 42.7818V43.53H43.7344V41.8211H44.1777L44.2511 42.0323H44.2856C44.331 41.9538 44.3961 41.8941 44.4816 41.8528C44.5673 41.8115 44.6647 41.791 44.7741 41.791C45.0192 41.791 45.1915 41.8657 45.2906 42.0156H45.3372C45.3852 41.9455 45.4522 41.8903 45.5377 41.8505C45.6235 41.8108 45.7178 41.791 45.8209 41.791C46.0222 41.791 46.171 41.8429 46.267 41.9462C46.3631 42.05 46.411 42.2073 46.411 42.4184V43.53H45.824V43.53Z" fill="#131625"/>
<path id="Vector_30" d="M47.6374 42.2539C47.5509 42.2539 47.4909 42.2847 47.4561 42.3468C47.4218 42.4086 47.4031 42.5002 47.3998 42.622V42.6688C47.3998 42.8157 47.4193 42.9215 47.4583 42.9869C47.4974 43.0522 47.5592 43.0851 47.6432 43.0851C47.677 43.0868 47.7106 43.0785 47.7398 43.0612C47.769 43.0438 47.7924 43.0183 47.8071 42.9876C47.8409 42.9228 47.8581 42.8154 47.8581 42.6658C47.8581 42.519 47.8409 42.4136 47.8071 42.3498C47.7728 42.286 47.7163 42.2539 47.6371 42.2539H47.6374ZM47.8339 43.5601C47.7547 43.5613 47.6761 43.5467 47.6026 43.5171C47.5345 43.4884 47.4669 43.437 47.3998 43.3626H47.3729C47.3908 43.4821 47.3998 43.5566 47.3998 43.5857V44.2718H46.8125V41.8209H47.2901L47.3729 42.0384H47.3998C47.5088 41.8736 47.6596 41.791 47.852 41.791C48.0401 41.791 48.1879 41.8695 48.2951 42.0262C48.4023 42.1832 48.4557 42.3984 48.4557 42.6719C48.4557 42.9471 48.4 43.1641 48.2883 43.3226C48.1766 43.4808 48.025 43.5601 47.8339 43.5601" fill="#131625"/>
<path id="Vector_31" fill-rule="evenodd" clip-rule="evenodd" d="M48.7893 43.531H49.3766V41.1843H48.7891L48.7893 43.531Z" fill="#131625"/>
<path id="Vector_32" d="M49.7927 43.5308H50.3798V41.822H49.7925V43.5308H49.7927ZM49.7776 41.3966C49.7776 41.308 49.8018 41.2421 49.851 41.1991C49.9002 41.1561 49.9791 41.1343 50.0883 41.1343C50.1975 41.1343 50.2772 41.1563 50.3271 41.2006C50.3773 41.2449 50.4022 41.3103 50.4022 41.3966C50.4022 41.5695 50.2976 41.6559 50.0883 41.6559C49.881 41.6559 49.7773 41.5695 49.7773 41.3966H49.7776ZM51.4642 43.1447C51.5353 43.1447 51.5961 43.1219 51.6468 43.0768C51.6972 43.0315 51.7227 42.9727 51.7227 42.9003V42.7677L51.5875 42.7737C51.3941 42.7806 51.2975 42.852 51.2975 42.9877C51.2975 43.0925 51.353 43.1447 51.4642 43.1447ZM51.9 43.5308L51.7872 43.3044H51.7751C51.6959 43.4032 51.6152 43.4703 51.5333 43.5065C51.4511 43.5427 51.3452 43.5609 51.215 43.5609C51.0546 43.5609 50.9286 43.5128 50.8365 43.4161C50.7442 43.3196 50.6983 43.1839 50.6983 43.009C50.6983 42.8269 50.7614 42.6914 50.8874 42.6023C51.0135 42.5134 51.1964 42.4633 51.4357 42.4524L51.7196 42.4433V42.4193C51.7196 42.2785 51.6505 42.2081 51.5124 42.2081C51.388 42.2081 51.2304 42.2504 51.039 42.3347L50.8695 41.9455C51.0678 41.843 51.3179 41.7918 51.6205 41.7918C51.8387 41.7918 52.0076 41.846 52.1274 41.9546C52.247 42.0633 52.307 42.2152 52.307 42.4101V43.5308H51.9V43.5308Z" fill="#131625"/>
<path id="Vector_33" fill-rule="evenodd" clip-rule="evenodd" d="M53.7769 43.5304V42.5984C53.7769 42.4844 53.7605 42.3989 53.7283 42.3411C53.6955 42.2832 53.6433 42.2543 53.5711 42.2543C53.472 42.2543 53.4004 42.2943 53.3565 42.3735C53.3121 42.4531 53.2902 42.5893 53.2902 42.7822V43.5304H52.7031V41.8216H53.146L53.2196 42.0327H53.2544C53.3043 41.9522 53.3737 41.892 53.4622 41.8517C53.5586 41.8099 53.6628 41.7894 53.7678 41.7914C53.9562 41.7914 54.1025 41.8461 54.2074 41.956C54.3118 42.0654 54.3643 42.2199 54.3643 42.4189V43.5304H53.7769V43.5304ZM55.5974 43.0944C55.6766 43.0944 55.7712 43.0749 55.8814 43.0357V43.4653C55.8088 43.4976 55.7331 43.5222 55.6554 43.5388C55.5725 43.5543 55.4882 43.5616 55.4038 43.5605C55.2063 43.5605 55.0643 43.5119 54.9771 43.415C54.8901 43.318 54.8464 43.1688 54.8464 42.9678V42.2634H54.6406V42.0236L54.9022 41.838L55.0537 41.4792H55.4383V41.8216H55.8559V42.2634H55.4383V42.9286C55.4383 43.0392 55.4913 43.0944 55.5974 43.0944" fill="#131625"/>
<path id="Vector_34" fill-rule="evenodd" clip-rule="evenodd" d="M37.6581 56.98C37.4198 56.745 37.3008 56.4113 37.3008 55.9798V54.3695H38.1191V55.9548C38.1191 56.4197 38.3022 56.6521 38.6689 56.6521C39.0328 56.6521 39.2143 56.4197 39.2143 55.9548V54.3695H40.0206V55.9798C40.0206 56.4113 39.9013 56.745 39.663 56.98C39.4247 57.2155 39.0905 57.3329 38.6608 57.3329C38.2308 57.3329 37.8967 57.2152 37.6581 56.98ZM40.9095 57.2456C40.6889 57.1876 40.5096 57.1101 40.3721 57.0131L40.6407 56.4072C40.7802 56.4977 40.932 56.5677 41.0913 56.6149C41.2546 56.6661 41.4246 56.6926 41.5957 56.6934C41.9099 56.6934 42.0668 56.6149 42.0668 56.4571C42.0668 56.3741 42.0219 56.3128 41.9324 56.2723C41.8428 56.2323 41.6991 56.19 41.5006 56.1457C41.283 56.0986 41.1009 56.0485 40.9549 55.9943C40.8097 55.941 40.6803 55.8517 40.5787 55.7348C40.474 55.6158 40.4215 55.4555 40.4215 55.2537C40.4215 55.0764 40.4697 54.9164 40.5665 54.7741C40.6626 54.6316 40.8066 54.5189 40.9983 54.4358C41.1897 54.3528 41.4247 54.3113 41.7031 54.3113C41.8933 54.3113 42.0807 54.3328 42.2653 54.3756C42.4365 54.4132 42.601 54.4769 42.753 54.5645L42.5008 55.1747C42.2254 55.0253 41.9581 54.9504 41.6988 54.9504C41.5362 54.9504 41.4179 54.9747 41.3433 55.023C41.2691 55.0716 41.2318 55.1344 41.2318 55.2119C41.2318 55.2894 41.2759 55.3476 41.3642 55.3864C41.4525 55.4251 41.5942 55.4648 41.7901 55.5066C42.0103 55.5537 42.1931 55.6041 42.3376 55.658C42.482 55.7117 42.6111 55.8 42.7136 55.9153C42.8198 56.033 42.873 56.1928 42.873 56.3948C42.873 56.569 42.8248 56.727 42.7283 56.8678C42.6317 57.0091 42.4872 57.1218 42.2943 57.2063C42.1013 57.2907 41.8671 57.3329 41.5917 57.3329C41.3571 57.3329 41.1299 57.3038 40.9095 57.2456V57.2456ZM45.5724 56.6399V57.2747H43.249V54.3693H45.5187V55.0043H44.0593V55.4942H45.3449V56.1085H44.0593V56.6397L45.5724 56.6399Z" fill="white"/>
<path id="Vector_35" d="M47.6809 55.129C47.5952 55.0543 47.4686 55.0168 47.3004 55.0168H46.8457V55.8678H47.3004C47.4686 55.8678 47.5954 55.8311 47.6809 55.7579C47.7664 55.6845 47.809 55.5799 47.809 55.4445C47.809 55.309 47.7661 55.2039 47.6809 55.129V55.129ZM47.2923 56.5028H46.8459V57.2751H46.0273V54.3696H47.3503C47.6118 54.3696 47.8393 54.4132 48.0322 54.5003C48.2251 54.5874 48.3739 54.712 48.4786 54.8737C48.5835 55.0358 48.6357 55.2257 48.6357 55.4445C48.6357 55.6546 48.587 55.8379 48.4891 55.9944C48.391 56.1509 48.2513 56.2732 48.0693 56.3615L48.6937 57.2748H47.8173L47.2923 56.5028V56.5028Z" fill="white"/>
<path id="Vector_36" fill-rule="evenodd" clip-rule="evenodd" d="M53.1727 54.3696L52.1933 57.2748H51.9701L51.0731 54.6684L50.1715 57.2748H49.9483L48.9648 54.3696H49.188L50.0681 56.9841L50.9735 54.3696H51.1762L52.0773 56.9884L52.9662 54.3696H53.1727Z" fill="white"/>
<path id="Vector_37" d="M55.402 56.2787L54.6414 54.6021L53.8849 56.2787H55.402ZM55.4807 56.4572H53.8024L53.4342 57.2748H53.207L54.5381 54.3696H54.7491L56.0799 57.2748H55.8529L55.4807 56.457V56.4572Z" fill="white"/>
<path id="Vector_38" fill-rule="evenodd" clip-rule="evenodd" d="M57.3298 56.2744V57.2748H57.119V56.2747L55.9531 54.3696H56.1846L57.2304 56.0795L58.2765 54.3696H58.4956L57.3298 56.2744Z" fill="white"/>
</g>
</g>
<g id="Group_6">
<g id="Group_7">
<mask id="mask2_13831_2866" style="mask-type:alpha" maskUnits="userSpaceOnUse" x="5" y="28" width="25" height="39">
<g id="f">
<path id="Vector_39" d="M5.36352 33.498L17.82 28.9341L29.806 61.9169L17.3493 66.4809L5.36352 33.498Z" fill="white"/>
</g>
</mask>
<g mask="url(#mask2_13831_2866)">
<path id="Vector_40" fill-rule="evenodd" clip-rule="evenodd" d="M9.86222 31.8403C13.6445 30.4531 23.2987 45.5785 25.9931 51.6244C28.0811 56.3101 28.1893 62.0057 23.5415 64.2054C19.8838 65.9361 11.2776 50.7909 9.75276 45.5093C8.22802 40.2274 7.79942 32.5968 9.86245 31.8402" fill="#D6DCE0"/>
</g>
</g>
<path id="Vector_41" d="M11.0781 34.1086C11.0781 34.1086 16.1291 45.8939 18.7485 50.9736" stroke="white" stroke-width="0.557289" stroke-linecap="round"/>
<path id="Vector_42" fill-rule="evenodd" clip-rule="evenodd" d="M23.3125 64.1052C26.7286 61.9738 25.8487 54.9997 17.8575 50.1305C9.86637 45.2615 3.40067 43.9224 2.02728 46.1789C0.807978 48.1821 4.99219 48.9901 7.05076 52.5219C9.10932 56.0538 17.2828 67.8664 23.3125 64.1052" fill="#C6CED3"/>
<path id="Vector_43" d="M5.53906 47.8154C5.53906 47.8154 17.2459 53.2741 23.5464 64.2135" stroke="white" stroke-width="0.557289" stroke-linecap="round"/>
<path id="Vector_44" fill-rule="evenodd" clip-rule="evenodd" d="M8.35427 58.4722C4.32818 54.8801 0.10589 54.1932 0.148761 56.1643C0.198189 58.4472 6.13759 57.7243 8.35427 58.4722" fill="#C6CED3"/>
<g id="Group_8">
<mask id="mask3_13831_2866" style="mask-type:alpha" maskUnits="userSpaceOnUse" x="0" y="61" width="10" height="7">
<g id="h">
<path id="Vector_45" d="M0.960938 64.1169L8.60961 61.3209L9.66623 64.2225L2.01756 67.0186L0.960938 64.1169Z" fill="white"/>
</g>
</mask>
<g mask="url(#mask3_13831_2866)">
<path id="Vector_46" fill-rule="evenodd" clip-rule="evenodd" d="M9.66149 64.2195C5.31512 61.765 0.737909 63.528 1.40804 65.3479C2.36198 67.9394 7.15372 63.9477 9.66157 64.2197" fill="#CCD4DA"/>
</g>
</g>
<path id="Vector_47" fill-rule="evenodd" clip-rule="evenodd" d="M9.90831 64.9131C5.9846 65.2311 5.17384 68.8629 6.52478 69.2653C8.4333 69.8337 7.80763 66.3624 9.90831 64.9131" fill="#D6DCE0"/>
<path id="Vector_48" d="M6.68883 68.3056C6.68883 68.3056 7.24161 65.6622 9.90995 64.9135M8.62407 58.6165C8.62407 58.6165 4.39624 56.4129 1.61719 56.26L8.62407 58.6165ZM3.46316 64.8419C3.46316 64.8419 6.76045 63.5328 9.66029 64.2256L3.46316 64.8419Z" stroke="#F7F7F7" stroke-width="0.743266" stroke-linecap="round"/>
</g>
<g id="Group_9">
<g id="Group_10">
<path id="Vector_49" d="M30.633 59.9717C30.633 53.9587 25.778 49.0842 19.7892 49.0842C13.8003 49.0842 8.94531 53.9587 8.94531 59.9717C8.94531 65.9847 13.8003 70.8592 19.7892 70.8592C25.778 70.8592 30.633 65.9847 30.633 59.9717Z" fill="#2D68FF" stroke="#FAFAFA" stroke-width="3.8478"/>
<path id="Vector_50" opacity="0.4" d="M28.1128 59.9715C28.1128 55.3569 24.3869 51.616 19.7908 51.616C15.1946 51.616 11.4688 55.3569 11.4688 59.9715C11.4688 64.5861 15.1946 68.327 19.7908 68.327C24.3869 68.327 28.1128 64.5861 28.1128 59.9715Z" fill="#2D68FF" stroke="#FAFAFA" stroke-width="1.2826"/>
<path id="Vector_51" fill-rule="evenodd" clip-rule="evenodd" d="M19.7462 57.6601L19.7613 57.6596C20.8351 57.6181 21.9084 57.5654 22.9817 57.5231C23.2394 57.513 23.5044 57.4877 23.7513 57.5358C23.882 57.5611 24.0804 57.7376 24.0703 57.832C24.0552 57.9728 23.9079 58.1548 23.7715 58.2219C23.592 58.3106 23.3693 58.3202 23.1637 58.3366C22.582 58.3832 21.9989 58.4108 21.4171 58.4556C20.7166 58.5093 20.5501 58.6903 20.5527 59.3833C20.5534 59.5651 20.568 59.7464 20.5804 59.9277C20.6861 61.4874 21.0101 62.997 21.4946 64.4706C21.5717 64.7058 21.6847 65.0134 21.3508 65.1491C21.0192 65.2846 20.8212 65.0517 20.6891 64.7785C20.6341 64.664 20.5963 64.5387 20.564 64.4146C20.3842 63.7295 20.2155 63.041 20.0271 62.3584C19.9865 62.2111 19.9035 61.9996 19.779 61.7242C19.7758 61.7172 19.7712 61.7109 19.7656 61.7057C19.76 61.7006 19.7534 61.6966 19.7462 61.694C19.739 61.6966 19.7323 61.7006 19.7267 61.7059C19.7211 61.7111 19.7165 61.7174 19.7134 61.7244C19.5888 61.9996 19.5061 62.2111 19.4652 62.3584C19.2769 63.041 19.1082 63.7295 18.9284 64.4146C18.8961 64.5387 18.8582 64.664 18.8033 64.7785C18.6714 65.0519 18.4734 65.2846 18.1415 65.1494C17.8077 65.0134 17.9206 64.7058 17.9978 64.4708C18.4822 62.9972 18.8063 61.4877 18.9122 59.9275C18.9243 59.7464 18.9389 59.5654 18.94 59.3833C18.9425 58.6903 18.776 58.5093 18.075 58.4556C17.4934 58.4108 16.9104 58.3832 16.3286 58.3366C16.1231 58.3202 15.9004 58.3103 15.7208 58.2219C15.5847 58.1548 15.4374 57.9728 15.4223 57.832C15.4119 57.7376 15.6104 57.5611 15.741 57.5358C15.9879 57.4877 16.253 57.513 16.5107 57.5231C17.584 57.5654 18.6573 57.6181 19.731 57.6596L19.7462 57.6601V57.6601ZM19.7462 57.3028L19.727 57.3036V57.3018C19.0302 57.2588 18.4205 56.6673 18.4071 55.9495C18.3937 55.2127 19.0237 54.6177 19.727 54.605C19.7398 54.6046 19.7526 54.6046 19.7653 54.605C20.4687 54.6177 21.0989 55.2127 21.0853 55.9495C21.0719 56.6673 20.4621 57.2585 19.7653 57.3016V57.3036L19.7462 57.3028V57.3028Z" fill="white"/>
</g>
</g>
</g>
</svg>
