<svg width="50" height="70" viewBox="0 0 50 70" fill="none" xmlns="http://www.w3.org/2000/svg">
<g id="Group 3031">
<path id="Vector" d="M47 0H3C1.34315 0 0 1.34315 0 3V67C0 68.6568 1.34315 70 3 70H47C48.6569 70 50 68.6568 50 67V3C50 1.34315 48.6569 0 47 0Z" fill="#003399"/>
<path id="Vector_2" d="M24.9986 9.01001L25.3986 10.23H26.6886L25.6386 10.99L26.0386 12.22L24.9986 11.46L23.9586 12.22L24.3486 10.99L23.3086 10.23H24.5986L24.9986 9.01001Z" fill="#FFCC00"/>
<path id="Vector_3" d="M18.9908 10.6099L19.3808 11.8399H20.6708L19.6308 12.5899L20.0308 13.8199L18.9908 13.0599L17.9408 13.8199L18.3408 12.5999L17.3008 11.8399H18.5908L18.9908 10.6099Z" fill="#FFCC00"/>
<path id="Vector_4" d="M14.5884 15.01L14.9884 16.23H16.2784L15.2284 16.99L15.6284 18.21L14.5884 17.46L13.5484 18.22L13.9384 16.99L12.8984 16.23H14.1884L14.5884 15.01Z" fill="#FFCC00"/>
<path id="Vector_5" d="M31.0003 10.6301L31.4003 11.8601L32.6903 11.8501L31.6503 12.6101L32.0503 13.8401L31.0103 13.0901L29.9603 13.8401L30.3603 12.6201L29.3203 11.8601H30.6103L31.0003 10.6301Z" fill="#FFCC00"/>
<path id="Vector_6" d="M36.9112 16.1399L35.8712 16.8999L36.2712 18.1199L35.2212 17.3699L34.1812 18.1199L34.5812 16.8999L33.5312 16.1399H34.8213L35.2212 14.9099L35.6212 16.1399H36.9112Z" fill="#FFCC00"/>
<path id="Vector_7" d="M38.5714 22.1699L37.5214 22.9299L37.9114 24.1499L36.8814 23.3899L35.8314 24.1399L36.2314 22.9199L35.1914 22.1599H36.4814L36.8814 20.9399L37.2814 22.1699H38.5714Z" fill="#FFCC00"/>
<path id="Vector_8" d="M36.3728 29.95L35.3228 29.19L34.2828 29.95L34.6828 28.72L33.6328 27.96H34.9228L35.3228 26.74L35.7228 27.96H37.0128L35.9728 28.72L36.3728 29.95Z" fill="#FFCC00"/>
<path id="Vector_9" d="M24.0719 35.9898L24.4619 34.7598L23.4219 34.0098H24.7019L25.1019 32.7798L25.5019 33.9998H26.7919L25.7519 34.7598L26.1519 35.9898L25.1119 35.2298L24.0719 35.9898Z" fill="#FFCC00"/>
<path id="Vector_10" d="M18.0384 34.4002L18.4384 33.1702L17.3984 32.4202L18.6784 32.4102L19.0784 31.1902L19.4784 32.4102H20.7684L19.7284 33.1702L20.1284 34.4002L19.0784 33.6402L18.0384 34.4002Z" fill="#FFCC00"/>
<path id="Vector_11" d="M31.9722 34.3699L30.9322 33.6099L29.8822 34.3599L30.2822 33.1399L29.2422 32.3699L30.5322 32.3799L30.9322 31.1599L31.3322 32.3799L32.6222 32.3899L31.5722 33.1399L31.9722 34.3699Z" fill="#FFCC00"/>
<path id="Vector_12" d="M11.4297 22.2002L12.7197 22.1902L13.1197 20.9702L13.5197 22.1902H14.8097L13.7697 22.9502L14.1697 24.1702L13.1197 23.4202L12.0797 24.1802L12.4797 22.9502L11.4297 22.2002Z" fill="#FFCC00"/>
<path id="Vector_13" d="M13.6422 29.94L14.0422 28.71L12.9922 27.96L14.2822 27.95L14.6822 26.73L15.0822 27.95H16.3722L15.3322 28.71L15.7322 29.94L14.6822 29.18L13.6422 29.94Z" fill="#FFCC00"/>
<path id="Vector_14" d="M27.6117 21.1202V19.7902C27.6117 18.3602 26.4317 17.1802 25.0017 17.1802C23.5717 17.1802 22.3917 18.3602 22.3917 19.7902V21.1202C21.7417 21.3502 21.2617 21.9802 21.2617 22.7302V26.1202C21.2617 27.0502 22.0217 27.8102 22.9517 27.8102H27.0217C27.9517 27.8102 28.7117 27.0502 28.7117 26.1202V22.7302C28.7317 21.9802 28.2517 21.3702 27.6017 21.1202H27.6117ZM25.6717 25.9102H24.3317L24.5617 24.4602C24.3317 24.3102 24.1717 24.0502 24.1717 23.7602C24.1717 23.3102 24.5417 22.9302 25.0017 22.9302C25.4617 22.9302 25.8317 23.3002 25.8317 23.7602C25.8317 24.0502 25.6717 24.3202 25.4417 24.4602L25.6717 25.9102ZM26.9317 21.0202H23.0817V19.7702C23.0817 18.7102 23.9417 17.8402 25.0117 17.8402C26.0817 17.8402 26.9417 18.7002 26.9417 19.7702V21.0202H26.9317Z" fill="white"/>
<path id="Vector_15" d="M0 45V67C0 68.66 1.34 70 3 70H47C48.66 70 50 68.66 50 67V45H0Z" fill="#231F20"/>
<path id="Vector_16" d="M14.3072 52.8902C14.0472 52.6402 13.7472 52.4602 13.3872 52.3302C13.0272 52.2102 12.6772 52.1402 12.3472 52.1402C11.5472 52.1402 10.9072 52.3702 10.4272 52.8202C9.94718 53.2802 9.70719 53.9602 9.70719 54.8802C9.70719 55.1702 9.74719 55.4702 9.83719 55.7802C9.92719 56.0902 10.0772 56.3802 10.2772 56.6402C10.4872 56.9002 10.7572 57.1102 11.0972 57.2802C11.4372 57.4502 11.8472 57.5302 12.3472 57.5302C12.6472 57.5302 12.9272 57.4902 13.2072 57.4202C13.4872 57.3502 13.7972 57.1902 14.1272 56.9402V55.6402H12.1272V54.0802H15.7472V57.6902C15.0172 58.7302 13.8772 59.2502 12.3272 59.2502C11.5172 59.2502 10.8272 59.1202 10.2672 58.8702C9.69719 58.6102 9.23719 58.2802 8.87719 57.8702C8.51719 57.4602 8.26719 56.9902 8.10719 56.4702C7.94719 55.9502 7.86719 55.4202 7.86719 54.8802C7.86719 54.2902 7.95719 53.7202 8.12719 53.1802C8.30719 52.6402 8.57719 52.1702 8.94719 51.7602C9.31719 51.3502 9.77719 51.0302 10.3472 50.7802C10.9072 50.5402 11.5772 50.4102 12.3472 50.4102C12.9272 50.4102 13.4672 50.5002 13.9872 50.6902C14.5072 50.8702 14.9972 51.2102 15.4772 51.7102L14.3172 52.8702L14.3072 52.8902Z" fill="white"/>
<path id="Vector_17" d="M20.6978 50.6499C21.4178 50.6499 22.0378 50.7599 22.5678 50.9899C23.0978 51.2099 23.5278 51.5199 23.8678 51.8999C24.2078 52.2799 24.4578 52.7199 24.6278 53.2199C24.7978 53.7199 24.8778 54.2499 24.8778 54.7999C24.8778 55.3499 24.7978 55.8799 24.6378 56.3999C24.4778 56.9099 24.2278 57.3699 23.8978 57.7599C23.5578 58.1599 23.1278 58.4699 22.5978 58.7099C22.0678 58.9499 21.4378 59.0599 20.6978 59.0599H17.2578V50.6599H20.6978V50.6499ZM19.0978 57.3199H20.6978C21.1578 57.3199 21.5278 57.2399 21.8278 57.0899C22.1278 56.9399 22.3678 56.7399 22.5378 56.4999C22.7178 56.2599 22.8378 55.9799 22.9078 55.6799C22.9778 55.3799 23.0178 55.0699 23.0178 54.7699C23.0178 54.4699 22.9778 54.1799 22.8978 53.8899C22.8178 53.5999 22.6878 53.3399 22.5078 53.1099C22.3278 52.8799 22.0878 52.6999 21.7978 52.5599C21.4978 52.4199 21.1378 52.3499 20.6978 52.3499H19.0978V57.3299V57.3199Z" fill="white"/>
<path id="Vector_18" d="M28.1591 56.6699V59.0499H26.2891V50.6499H30.2491C30.7891 50.6499 31.2591 50.7299 31.6591 50.8899C32.0591 51.0499 32.3991 51.2699 32.6691 51.5399C32.9391 51.8199 33.1391 52.1399 33.2691 52.4999C33.3991 52.8599 33.4691 53.2499 33.4691 53.6599C33.4691 54.0699 33.3991 54.4799 33.2691 54.8399C33.1291 55.1999 32.9291 55.5199 32.6591 55.7899C32.3891 56.0599 32.0591 56.2699 31.6591 56.4299C31.2591 56.5899 30.7891 56.6699 30.2591 56.6799H28.1691L28.1591 56.6699ZM28.1591 54.9499H30.2491C30.6991 54.9499 31.0291 54.8199 31.2591 54.5699C31.4791 54.3199 31.5991 54.0199 31.5991 53.6899C31.5991 53.3599 31.4891 53.0599 31.2591 52.7999C31.0391 52.5399 30.6991 52.4199 30.2491 52.4199H28.1591V54.9499Z" fill="white"/>
<path id="Vector_19" d="M42.1319 59.0499H40.0519L37.9019 56.2899H36.5419V59.0499H34.6719V50.6499H38.6519C39.1519 50.6499 39.6019 50.7299 39.9919 50.8799C40.3819 51.0399 40.7019 51.2499 40.9719 51.5099C41.2319 51.7699 41.4319 52.0799 41.5619 52.4199C41.6919 52.7599 41.7619 53.1099 41.7619 53.4799C41.7619 53.7499 41.7319 54.0199 41.6819 54.2699C41.6319 54.5299 41.5319 54.7699 41.3919 54.9899C41.2519 55.2099 41.0519 55.4199 40.8019 55.6099C40.5519 55.7999 40.2219 55.9699 39.8219 56.1099L42.1219 58.8899V59.0299L42.1319 59.0499ZM36.5519 52.2599V54.7099H38.6919C38.9119 54.7099 39.0919 54.6699 39.2519 54.5999C39.4119 54.5299 39.5319 54.4299 39.6319 54.3199C39.7319 54.1999 39.8019 54.0799 39.8519 53.9399C39.9019 53.7999 39.9219 53.6699 39.9219 53.5299C39.9219 53.3899 39.8919 53.2399 39.8419 53.0899C39.7919 52.9399 39.7119 52.7999 39.6119 52.6799C39.5119 52.5599 39.3819 52.4599 39.2219 52.3799C39.0619 52.2999 38.8719 52.2599 38.6619 52.2599H36.5519Z" fill="white"/>
<path id="Vector_20" d="M11.4589 63.9799C11.2589 64.1799 11.0289 64.3299 10.7689 64.4299C10.5189 64.5199 10.2489 64.5699 9.95891 64.5699C9.59891 64.5699 9.28891 64.5099 9.02891 64.3999C8.76891 64.2899 8.54891 64.1299 8.37891 63.9399C8.20891 63.7499 8.07891 63.5299 7.99891 63.2899C7.91891 63.0499 7.87891 62.7899 7.87891 62.5299C7.87891 62.2699 7.9189 62.0099 8.0089 61.7599C8.0989 61.5099 8.2189 61.2899 8.3989 61.0899C8.5689 60.8899 8.7889 60.7399 9.0489 60.6199C9.3089 60.4999 9.61891 60.4399 9.97891 60.4399C10.2489 60.4399 10.5089 60.4899 10.7589 60.5899C11.0089 60.6899 11.2289 60.8399 11.4389 61.0399L11.0089 61.4499C10.8689 61.3099 10.7089 61.2099 10.5289 61.1399C10.3489 61.0699 10.1689 61.0399 9.98891 61.0399C9.73891 61.0399 9.5189 61.0799 9.3289 61.1699C9.1389 61.2499 8.9889 61.3699 8.8689 61.5099C8.7489 61.6499 8.6589 61.8099 8.6089 61.9799C8.5489 62.1599 8.51891 62.3399 8.51891 62.5199C8.51891 62.6999 8.5489 62.8799 8.6089 63.0499C8.6689 63.2199 8.7489 63.3799 8.8689 63.5099C8.9889 63.6399 9.13891 63.7499 9.31891 63.8399C9.49891 63.9199 9.71891 63.9699 9.97891 63.9699C10.1589 63.9699 10.3489 63.9299 10.5389 63.8599C10.7289 63.7899 10.8889 63.6799 11.0289 63.5399L11.4689 63.9799H11.4589Z" fill="white"/>
<path id="Vector_21" d="M13.8034 60.4402C14.1434 60.4402 14.4434 60.5002 14.6934 60.6102C14.9434 60.7302 15.1534 60.8802 15.3234 61.0702C15.4934 61.2602 15.6134 61.4802 15.7034 61.7302C15.7834 61.9802 15.8334 62.2402 15.8334 62.5102C15.8334 62.7802 15.7934 63.0402 15.7034 63.2802C15.6234 63.5302 15.4934 63.7502 15.3334 63.9402C15.1634 64.1302 14.9534 64.2802 14.7034 64.3902C14.4534 64.5002 14.1534 64.5602 13.8034 64.5602C13.4534 64.5602 13.1634 64.5002 12.9034 64.3902C12.6534 64.2702 12.4334 64.1202 12.2734 63.9302C12.1034 63.7402 11.9834 63.5202 11.8934 63.2702C11.8134 63.0202 11.7734 62.7702 11.7734 62.5102C11.7734 62.2102 11.8234 61.9302 11.9234 61.6702C12.0234 61.4102 12.1634 61.1902 12.3434 61.0102C12.5234 60.8302 12.7434 60.6802 12.9934 60.5802C13.2434 60.4802 13.5134 60.4202 13.8134 60.4202L13.8034 60.4402ZM12.3934 62.5302C12.3934 62.7102 12.4234 62.8802 12.4834 63.0502C12.5334 63.2202 12.6234 63.3802 12.7334 63.5202C12.8434 63.6602 12.9934 63.7702 13.1634 63.8602C13.3434 63.9402 13.5534 63.9902 13.7934 63.9902C14.0334 63.9902 14.2534 63.9502 14.4334 63.8702C14.6134 63.7902 14.7534 63.6802 14.8734 63.5502C14.9834 63.4202 15.0734 63.2602 15.1234 63.0802C15.1734 62.9002 15.2034 62.7202 15.2034 62.5302C15.2034 62.3402 15.1734 62.1702 15.1234 61.9902C15.0734 61.8102 14.9834 61.6502 14.8734 61.5102C14.7634 61.3702 14.6134 61.2502 14.4434 61.1602C14.2634 61.0702 14.0534 61.0202 13.8134 61.0202C13.5834 61.0202 13.3834 61.0602 13.2034 61.1302C13.0234 61.2102 12.8834 61.3102 12.7634 61.4502C12.6434 61.5802 12.5534 61.7402 12.4934 61.9302C12.4334 62.1202 12.4034 62.3202 12.4034 62.5302H12.3934Z" fill="white"/>
<path id="Vector_22" d="M20.0264 61.44L18.6764 63.32H18.5364L17.2064 61.44V64.49H16.5664V60.52H17.3064L18.6164 62.38L19.9264 60.52H20.6664V64.49H20.0264V61.44Z" fill="white"/>
<path id="Vector_23" d="M22.3002 63.27V64.49H21.6602V60.52C21.9702 60.52 22.2702 60.52 22.5802 60.52C22.8902 60.52 23.1902 60.52 23.5002 60.52C23.8102 60.52 24.0802 60.59 24.2902 60.72C24.5002 60.86 24.6602 61.03 24.7702 61.23C24.8802 61.43 24.9302 61.66 24.9302 61.89C24.9302 62.12 24.8802 62.35 24.7702 62.55C24.6602 62.75 24.5102 62.92 24.3002 63.06C24.0902 63.2 23.8302 63.26 23.5102 63.26H22.3102L22.3002 63.27ZM22.3002 62.69H23.5002C23.6702 62.69 23.8202 62.65 23.9402 62.57C24.0602 62.49 24.1402 62.39 24.2002 62.27C24.2602 62.15 24.2802 62.02 24.2802 61.89C24.2802 61.76 24.2502 61.63 24.1902 61.51C24.1302 61.39 24.0402 61.29 23.9302 61.21C23.8102 61.13 23.6702 61.09 23.5002 61.09H22.3002V62.68V62.69Z" fill="white"/>
<path id="Vector_24" d="M26.2298 60.51V63.89H28.3198V64.48H25.5898V60.51H26.2298Z" fill="white"/>
<path id="Vector_25" d="M28.918 64.49V60.52H29.548V64.49H28.918Z" fill="white"/>
<path id="Vector_26" d="M33.2994 63.65H31.1494L30.7794 64.48H30.1094L31.8894 60.51H32.5794L34.3594 64.48H33.6894L33.3094 63.65H33.2994ZM32.2294 61.18L31.3894 63.07H33.0694L32.2294 61.18Z" fill="white"/>
<path id="Vector_27" d="M37.648 63.34V60.51H38.288V64.48H37.808L35.558 61.68V64.48H34.918V60.51H35.408L37.658 63.34H37.648Z" fill="white"/>
<path id="Vector_28" d="M40.1889 61.09H38.8789V60.52H42.1289V61.09H40.8289V64.49H40.1889V61.09Z" fill="white"/>
</g>
</svg>
