<svg width="50" height="73" viewBox="0 0 50 73" fill="none" xmlns="http://www.w3.org/2000/svg">
<g id="Group 3029">
<path id="Vector" d="M5.00377 68.2847C4.88568 67.7662 4.66579 67.397 4.3441 67.1771C4.02241 66.9572 3.60298 66.8473 3.08448 66.8473C2.71799 66.8473 2.40173 66.9206 2.13704 67.0672C1.87236 67.2138 1.65382 67.4106 1.48144 67.659C1.30906 67.9074 1.18282 68.1924 1.10138 68.5168C1.01994 68.8412 0.979219 69.1833 0.979219 69.5444C0.979219 69.8823 1.01451 70.2149 1.08509 70.542C1.15568 70.8691 1.27241 71.161 1.43665 71.4175C1.59953 71.674 1.81942 71.8817 2.09632 72.0392C2.37186 72.1966 2.71935 72.2753 3.13605 72.2753C3.39531 72.2753 3.63149 72.2333 3.84595 72.1491C4.06041 72.065 4.24773 71.9482 4.4079 71.7976C4.56806 71.6483 4.7038 71.4718 4.81374 71.2696C4.92369 71.0659 5.00649 70.8433 5.0635 70.6017H5.66345C5.59558 70.8949 5.49649 71.1718 5.36754 71.4351C5.23724 71.6971 5.06757 71.9265 4.85582 72.1247C4.64407 72.3215 4.38754 72.479 4.0862 72.5943C3.78487 72.7097 3.4306 72.7681 3.02475 72.7681C2.55646 72.7681 2.15605 72.6826 1.82349 72.5102C1.49094 72.3378 1.21947 72.1057 1.00772 71.8125C0.795976 71.5193 0.642595 71.18 0.546223 70.7931C0.449851 70.4076 0.402344 69.9964 0.402344 69.5634C0.402344 68.9824 0.474284 68.4897 0.618163 68.0838C0.762043 67.678 0.960216 67.3468 1.21404 67.0903C1.46787 66.8337 1.76648 66.6478 2.1099 66.5324C2.45331 66.417 2.82794 66.3586 3.23378 66.3586C3.54326 66.3586 3.83238 66.3994 4.09978 66.4808C4.36717 66.5622 4.60471 66.6858 4.80967 66.8486C5.01463 67.0129 5.1843 67.2138 5.31732 67.4527C5.44899 67.6929 5.54129 67.9698 5.59151 68.2861H4.9997L5.00377 68.2847Z" fill="#444444"/>
<path id="Vector_2" d="M6.71875 69.5699C6.71875 69.1247 6.77983 68.708 6.90064 68.3184C7.02144 67.9289 7.20061 67.5895 7.43815 67.2991C7.67433 67.0086 7.96752 66.7792 8.31771 66.6095C8.66791 66.4399 9.06969 66.3557 9.52711 66.3557C9.98454 66.3557 10.4162 66.4385 10.7745 66.6055C11.1329 66.7724 11.4315 67.0005 11.6704 67.2909C11.9093 67.5814 12.0898 67.9221 12.212 68.3144C12.3328 68.7066 12.3938 69.1247 12.3938 69.5699C12.3938 70.0151 12.3328 70.4223 12.212 70.8078C12.0912 71.1947 11.912 71.5327 11.6744 71.8231C11.4383 72.1136 11.1424 72.343 10.7867 72.5127C10.4311 72.6823 10.0198 72.7665 9.5529 72.7665C9.08598 72.7665 8.67334 72.6823 8.31907 72.5127C7.96344 72.343 7.66754 72.1136 7.43136 71.8231C7.19518 71.5327 7.01737 71.1947 6.89928 70.8078C6.78119 70.4223 6.72146 70.0084 6.72146 69.5699H6.71875ZM9.55969 72.2751C9.95468 72.2751 10.294 72.2005 10.5791 72.0512C10.8641 71.9019 11.0976 71.7037 11.2808 71.4553C11.4641 71.2069 11.5998 70.9205 11.6867 70.5934C11.7735 70.2662 11.8183 69.9256 11.8183 69.5699C11.8183 69.1464 11.7667 68.7677 11.6622 68.4325C11.5577 68.0972 11.407 67.8108 11.2102 67.5746C11.0134 67.3384 10.7732 67.1579 10.4922 67.033C10.2099 66.9095 9.89496 66.8471 9.54476 66.8471C9.1552 66.8471 8.81858 66.9231 8.53489 67.0751C8.24984 67.2271 8.01638 67.4294 7.83314 67.6791C7.64989 67.9302 7.51416 68.2194 7.42729 68.5451C7.34042 68.8722 7.29563 69.2129 7.29563 69.5686C7.29563 69.9242 7.33906 70.273 7.42729 70.6002C7.51416 70.9273 7.64989 71.215 7.83314 71.4621C8.01638 71.7105 8.24984 71.9073 8.53489 72.0539C8.81993 72.2005 9.16199 72.2738 9.56241 72.2738L9.55969 72.2751Z" fill="#444444"/>
<path id="Vector_3" d="M13.6797 72.6048V66.5171H14.5593L16.5546 71.8854H16.5709L18.5322 66.5171H19.4036V72.6048H18.8281V67.1768H18.8118L16.8165 72.6048H16.2749L14.2715 67.1768H14.2552V72.6048H13.6797Z" fill="#444444"/>
<path id="Vector_4" d="M20.8894 72.6048V66.5171H23.1128C23.5078 66.5171 23.8322 66.5619 24.0901 66.6528C24.3466 66.7438 24.5489 66.8673 24.6982 67.0247C24.8475 67.1822 24.952 67.3641 25.0104 67.5704C25.0701 67.7767 25.0986 67.9912 25.0986 68.2179C25.0986 68.5558 25.0294 68.8354 24.8909 69.0553C24.7525 69.2752 24.5733 69.449 24.3534 69.5752C24.1335 69.7014 23.8838 69.791 23.6055 69.8412C23.3259 69.8915 23.0463 69.9173 22.7639 69.9173H21.4622V72.6062H20.8867L20.8894 72.6048ZM22.7829 69.4259C23.0531 69.4259 23.296 69.4096 23.5105 69.3757C23.7249 69.3417 23.9068 69.2779 24.0561 69.1856C24.2054 69.0933 24.3208 68.9658 24.4023 68.8056C24.4837 68.6454 24.5244 68.435 24.5244 68.1758C24.5244 67.793 24.3996 67.5025 24.1484 67.3044C23.8973 67.1075 23.4983 67.0085 22.9526 67.0085H21.465V69.4273H22.7843L22.7829 69.4259Z" fill="#444444"/>
<path id="Vector_5" d="M26.25 72.6048V66.5171H26.8255V72.1148H30.09V72.6048H26.2514H26.25Z" fill="#444444"/>
<path id="Vector_6" d="M31.3242 72.6048V66.5171H31.8997V72.6048H31.3242Z" fill="#444444"/>
<path id="Vector_7" d="M33.0859 72.6048L35.479 66.5171H36.1305L38.4638 72.6048H37.872L37.1702 70.6937H34.3971L33.6791 72.6048H33.0873H33.0859ZM34.5912 70.2037H36.9761L35.7844 67.0071L34.5926 70.2037H34.5912Z" fill="#444444"/>
<path id="Vector_8" d="M40.0215 67.2949H40.0052V72.6048H39.4297V66.5171H40.0812L43.5981 71.8352H43.6144V66.5171H44.1899V72.6048H43.5221L40.0215 67.2949Z" fill="#444444"/>
<path id="Vector_9" d="M45.1719 66.5171H49.6023V67.0071H47.6748V72.6048H47.0993V67.0071H45.1719V66.5171Z" fill="#444444"/>
<path id="Vector_10" d="M1.91016 64.2397V51.9448H4.46198V56.6331H9.24122V51.9448H11.793V64.2397H9.24122V58.752H4.46334V64.2397H1.91016Z" fill="#008FC2"/>
<path id="Vector_11" d="M15.9229 64.2397H13.3711V51.9448H15.9229V64.2397Z" fill="#008FC2"/>
<path id="Vector_12" d="M25.8988 58.9176C25.1794 59.5175 24.1519 59.8188 22.8149 59.8188H20.255V64.2397H17.7031V51.9448H22.9819C24.1994 51.9448 25.1699 52.2611 25.8934 52.8963C26.6169 53.5302 26.9793 54.5116 26.9793 55.8404C26.9793 57.2914 26.6196 58.3176 25.9002 58.9176H25.8988ZM23.9374 54.4885C23.6117 54.2157 23.157 54.0799 22.5706 54.0799H20.255V57.7H22.5706C23.157 57.7 23.613 57.5534 23.9374 57.2575C24.2632 56.963 24.4261 56.496 24.4261 55.8567C24.4261 55.2174 24.2632 54.7613 23.9374 54.4885Z" fill="#008FC2"/>
<path id="Vector_13" d="M29.9938 51.9448H32.9012L37.2516 64.2397H34.4663L33.6546 61.7123H29.1264L28.293 64.2397H25.6055L29.9938 51.9448ZM29.8241 59.5935H32.9732L31.4204 54.7559L29.8255 59.5935H29.8241Z" fill="#008FC2"/>
<path id="Vector_14" d="M42.3272 51.9448H45.2333L49.5836 64.2397H46.7983L45.9866 61.7123H41.4585L40.6251 64.2397H37.9375L42.3258 51.9448H42.3272ZM42.1575 59.5935H45.3066L43.7538 54.7559L42.1589 59.5935H42.1575Z" fill="#008FC2"/>
<g id="Clip path group">
<mask id="mask0_13831_2826" style="mask-type:luminance" maskUnits="userSpaceOnUse" x="5" y="0" width="40" height="50">
<g id="clippath">
<path id="Vector_15" d="M44.2607 12.8027C44.2267 11.9109 43.6417 11.1331 42.7947 10.8522C39.0484 9.60612 34.7062 7.56058 32.6729 6.30232C31.3088 5.4594 30.075 4.54726 29.0067 3.59711C27.4987 2.25062 26.8431 1.27468 26.7807 1.17966C26.3938 0.525419 25.7124 0.125 24.9537 0.125C24.1949 0.125 23.5135 0.525419 23.128 1.17695C23.0656 1.27332 22.4086 2.24926 20.9047 3.59304C19.8337 4.5459 18.5985 5.45669 17.2344 6.30096C15.2011 7.55923 10.8589 9.60476 7.1126 10.8508C6.26561 11.1331 5.68195 11.9095 5.64666 12.8027C5.62901 13.2696 5.22316 24.3253 6.86692 32.3594C8.48081 40.247 15.33 46.7895 24.3171 49.0264C24.4881 49.0685 24.6618 49.0902 24.8342 49.0902C24.8736 49.0902 24.9143 49.0902 24.9537 49.0861C25.1654 49.0983 25.3812 49.078 25.5916 49.0264C34.5787 46.7895 41.4279 40.247 43.0418 32.3608C44.6869 24.3266 44.2797 13.271 44.262 12.804L44.2607 12.8027Z" fill="white"/>
</g>
</mask>
<g mask="url(#mask0_13831_2826)">
<g id="Group">
<path id="Vector_16" d="M42.1239 12.8855C38.3532 11.6327 33.8088 9.52201 31.5502 8.12394C29.8697 7.0842 28.5708 6.07297 27.584 5.19477C25.6945 3.50758 24.9602 2.30225 24.9602 2.30225C24.9602 2.30225 24.2259 3.50758 22.3364 5.19477C21.3483 6.07433 20.0493 7.08556 18.3689 8.12394C16.1103 9.52201 11.5658 11.6313 7.7951 12.8855C7.7951 12.8855 7.36211 24.0579 8.97329 31.9292C10.4162 38.982 16.5718 44.8865 24.8408 46.9443C24.8815 46.9239 24.9208 46.9022 24.9602 46.8818C24.9996 46.9022 25.0403 46.9239 25.0796 46.9443C33.3486 44.8865 39.5042 38.982 40.9471 31.9292C42.5583 24.0566 42.1253 12.8855 42.1253 12.8855H42.1239Z" stroke="#444444" stroke-width="5.27739" stroke-linecap="round" stroke-linejoin="round"/>
<path id="Vector_17" d="M42.1239 12.8855C38.3532 11.6327 33.8088 9.52201 31.5502 8.12394C29.8697 7.0842 28.5708 6.07297 27.584 5.19477C25.6945 3.50758 24.9602 2.30225 24.9602 2.30225C24.9602 2.30225 24.2259 3.50758 22.3364 5.19477C21.3483 6.07433 20.0493 7.08556 18.3689 8.12394C16.1103 9.52201 11.5658 11.6313 7.7951 12.8855C7.7951 12.8855 7.36211 24.0579 8.97329 31.9292C10.4162 38.982 16.5718 44.8865 24.8408 46.9443C24.8815 46.9239 24.9208 46.9022 24.9602 46.8818C24.9996 46.9022 25.0403 46.9239 25.0796 46.9443C33.3486 44.8865 39.5042 38.982 40.9471 31.9292C42.5583 24.0566 42.1253 12.8855 42.1253 12.8855H42.1239Z" fill="#6DCEEC"/>
<path id="Vector_18" d="M40.9426 31.9292C42.5538 24.0566 42.1208 12.8855 42.1208 12.8855C38.35 11.6327 33.8056 9.52201 31.547 8.12394C29.8666 7.0842 28.5676 6.07297 27.5808 5.19477C25.6914 3.50758 24.957 2.30225 24.957 2.30225V46.8832C24.9964 46.9035 25.0371 46.9253 25.0765 46.9456C33.3455 44.8879 39.5011 38.9834 40.9439 31.9306L40.9426 31.9292Z" fill="#008FC2"/>
<path id="Vector_19" d="M30.1217 13.3986C28.1196 12.9371 26.8125 16.2464 26.8125 16.2464V22.0966C34.2779 22.6341 34.2019 20.6347 34.2019 20.6347C41.3593 20.5573 45.8236 14.8008 45.8236 14.8008C39.2038 16.6644 32.1225 13.8601 30.1217 13.3986Z" fill="white"/>
<path id="Vector_20" d="M23.1048 22.0966V16.2464C23.1048 16.2464 21.7964 12.9371 19.7956 13.3986C17.7949 13.8601 10.7136 16.6644 4.09375 14.8008C4.09375 14.8008 8.55809 20.5573 15.7168 20.6347C15.7168 20.6347 15.6408 22.6354 23.1062 22.0966H23.1048Z" fill="white"/>
<path id="Vector_21" d="M23.9413 13.601V28.8617C24.2521 28.9025 24.586 28.9432 24.9552 28.9839C25.3149 28.9432 25.6407 28.9038 25.9475 28.8645V13.601C26.9207 13.2047 27.6089 12.2504 27.6089 11.1347C27.6089 9.66333 26.4158 8.47021 24.9457 8.47021C23.4757 8.47021 22.2812 9.66333 22.2812 11.1347C22.2812 12.2504 22.9681 13.2047 23.9413 13.601Z" fill="white"/>
<path id="Vector_22" d="M24.9604 36.6298C25.0568 36.5931 25.1518 36.5565 25.2468 36.5144C25.4803 36.4207 25.7138 36.3121 25.954 36.19V33.2011C25.6418 33.1386 25.3134 33.0925 24.9632 33.0613C24.6021 33.0939 24.2655 33.14 23.9492 33.2052V36.1805C24.1949 36.3054 24.4324 36.4167 24.6618 36.509C24.7636 36.5537 24.8627 36.5918 24.9618 36.6298H24.9604Z" fill="white"/>
<path id="Vector_23" d="M25.9055 47.5238C25.9218 47.5129 25.9326 47.5048 25.9476 47.4939V46.9659C25.8241 46.9035 25.6191 46.8234 25.3449 46.7542C25.22 46.7202 25.087 46.6904 24.9513 46.6619C24.8196 46.6904 24.692 46.7189 24.5739 46.7515C24.2807 46.8247 24.0704 46.9103 23.9414 46.9795V47.4803C23.9618 47.4953 23.9794 47.5089 24.0025 47.5251C24.2536 47.6935 24.5902 47.8563 24.954 48.026C25.3178 47.8563 25.6544 47.6935 25.9055 47.5251V47.5238Z" fill="white"/>
<path id="Vector_24" d="M24.954 43.2101C24.9676 43.2074 24.9811 43.2034 24.9934 43.2006C25.1522 43.1653 25.3055 43.1314 25.4562 43.0961C25.6259 43.0568 25.7915 43.016 25.9462 42.9712V40.9787C25.6395 40.8076 25.2974 40.6692 24.9608 40.5457C24.5807 40.695 24.236 40.8606 23.9414 41.0316V42.9645C24.2387 43.05 24.5685 43.1233 24.9133 43.1993C24.9268 43.202 24.9404 43.2061 24.954 43.2088V43.2101Z" fill="white"/>
<path id="Vector_25" d="M35.1205 26.6953L35.0865 26.3723C35.0254 25.9393 34.9114 25.5524 34.7363 25.2049C34.5449 24.8235 34.2599 24.4706 33.9341 24.2114C33.2514 23.6711 32.5564 23.5272 32.0271 23.4635C31.5235 23.4092 30.971 23.4404 30.6344 23.477C30.5516 23.4865 30.4756 23.4974 30.4009 23.5082C29.5092 23.2259 28.1301 23.0956 27.1786 24.4312C25.6665 26.5555 27.7555 27.3102 28.331 27.2396C28.8251 27.1772 30.291 26.9369 31.0878 25.9053C31.3104 25.8795 31.5452 25.8673 31.7692 25.885C31.9497 25.8958 32.2076 25.9447 32.3772 26.0438C32.4573 26.0872 32.5211 26.1442 32.5809 26.2243C32.5917 26.2392 32.6026 26.2542 32.6121 26.2705C32.665 26.3628 32.703 26.4768 32.7274 26.5799C32.7546 26.641 32.7736 26.7116 32.7763 26.7944C32.7777 26.7985 32.7777 26.8243 32.7777 26.8283C32.7777 26.8528 32.7804 26.8786 32.779 26.9057L32.7831 27.0414C32.7845 27.1025 32.7817 27.1622 32.7777 27.184C32.7695 27.241 32.7519 27.2939 32.7261 27.3428C32.6908 27.4351 32.6419 27.5179 32.5917 27.5939C32.4533 27.8178 32.1546 28.0771 31.7692 28.3119C31.6524 28.3825 31.5275 28.4531 31.3959 28.5196C30.5394 28.9485 29.349 29.3041 27.8505 29.5824C27.6632 29.6177 27.4731 29.6516 27.2763 29.6828C27.0931 29.7127 26.9058 29.7426 26.7117 29.7711C26.47 29.8064 26.2135 29.8403 25.9434 29.8756C25.638 29.915 25.3109 29.953 24.9512 29.9923C24.9091 29.9978 24.8684 30.0018 24.8249 30.0073C24.5209 30.0385 24.2263 30.0819 23.9372 30.1321C23.2423 30.2529 22.5921 30.428 22.003 30.6615C21.4519 30.88 21.0053 31.1176 20.6008 31.4053C20.5696 31.427 20.5398 31.4501 20.5099 31.4746C20.3334 31.6062 20.1719 31.7406 20.0294 31.8818C19.8896 32.0189 19.7661 32.1614 19.6534 32.3107C19.553 32.4437 19.4634 32.5835 19.3833 32.7301C19.2503 32.9731 19.1526 33.2378 19.0928 33.5065C19.0793 33.5649 19.0657 33.6246 19.0562 33.6843C19.0453 33.7631 19.0331 33.854 19.0263 33.9436L19.0195 34.1418V34.1485L19.0358 34.4132C19.0372 34.4309 19.0399 34.4567 19.0412 34.4811C19.0412 34.5028 19.044 34.5259 19.0535 34.5829C19.0847 34.7702 19.1186 34.9847 19.1593 35.1014C19.1756 35.1489 19.1906 35.1978 19.2055 35.2453C19.2394 35.3539 19.2734 35.457 19.3114 35.5317C19.3154 35.5398 19.3195 35.5493 19.3222 35.5575C19.4362 35.8208 19.5828 36.0814 19.7593 36.3339C20.343 37.1524 21.0746 37.6994 21.7722 38.1215C22.3966 37.6939 23.0264 37.3858 23.6087 37.1388C23.4391 37.056 23.2653 36.9651 23.0848 36.8646C22.2473 36.3841 21.5999 35.8262 21.2564 35.2901C20.8601 34.6847 20.9008 34.1879 21.0053 33.8798C21.0501 33.7495 21.1153 33.626 21.1967 33.5065H21.1384C21.3311 33.2473 21.6704 33.0002 22.0369 32.8034C22.0627 32.7898 22.0885 32.7776 22.1129 32.764C22.1211 32.76 22.1306 32.7559 22.1387 32.7505C22.2039 32.7179 22.2677 32.6867 22.3328 32.6582C22.3559 32.6487 22.379 32.6378 22.4021 32.6283C22.5025 32.5849 22.6002 32.5455 22.6952 32.5129C22.702 32.5116 22.7088 32.5075 22.7156 32.5061C22.7156 32.5061 22.717 32.5061 22.7183 32.5061C22.8459 32.46 22.9803 32.4206 23.1133 32.3813C23.3753 32.3053 23.6495 32.2415 23.9345 32.1885C24.1042 32.1559 24.2779 32.1288 24.4571 32.1057C24.6159 32.0867 24.7815 32.0691 24.9485 32.0555C24.9756 32.0528 24.9987 32.0501 25.0272 32.0474C25.3516 32.0202 25.6529 31.9944 25.9407 31.9659C26.5556 31.9076 27.0931 31.8465 27.5858 31.78C28.1749 31.6958 28.7803 31.5994 29.3897 31.4746C29.5974 31.4311 29.8064 31.385 30.0141 31.3347C30.2055 31.2886 30.3982 31.2397 30.5896 31.1854C31.1896 31.0158 31.7882 30.8081 32.3705 30.5421C33.0736 30.2027 33.8174 29.7751 34.4241 28.9879C34.4635 28.9363 34.4961 28.882 34.5314 28.8277C34.7743 28.4707 34.9522 28.0798 35.0322 27.7093C35.0349 27.6957 35.039 27.6808 35.0431 27.6672C35.0621 27.6047 35.0811 27.4473 35.0933 27.3441L35.1177 26.789L35.115 26.7048C35.115 26.7048 35.1137 26.6953 35.1137 26.694L35.1205 26.6953Z" fill="white"/>
<path id="Vector_26" d="M29.3343 40.995C29.1348 40.4615 28.8022 39.9878 28.3149 39.5344C28.2294 39.4571 28.1453 39.3865 28.0584 39.3159C27.5616 39.5738 27.0797 39.7896 26.6196 39.962C26.5354 39.9959 26.4445 40.0272 26.3549 40.0597C26.8992 40.3489 27.4001 40.7344 27.7123 41.3167C27.7571 41.4008 27.7924 41.4877 27.8236 41.5732H27.8209C27.8236 41.5827 27.8277 41.5922 27.8317 41.6003C27.8385 41.6193 27.8467 41.6383 27.8534 41.6574C27.8806 41.7537 27.8996 41.8542 27.9091 41.9546C27.9267 42.1541 27.9037 42.3618 27.8467 42.5627C27.8426 42.5763 27.8372 42.5871 27.8344 42.6007C27.8182 42.6509 27.7964 42.6984 27.7774 42.7473C27.7598 42.7921 27.7476 42.8355 27.7272 42.8776C27.7191 42.902 27.7068 42.9251 27.6933 42.9496L27.6648 42.9971L27.6553 43.0133C27.6376 43.0419 27.6173 43.069 27.5928 43.0921C27.3797 43.3744 27.134 43.5739 26.8314 43.7178C26.8164 43.7246 26.7988 43.7314 26.7852 43.7368C26.7146 43.7694 26.644 43.8006 26.5653 43.8264C26.5653 43.8264 26.5653 43.8264 26.564 43.8264C26.397 43.8848 26.2192 43.935 26.0359 43.9839C26.0074 43.9906 25.9817 43.9988 25.9531 44.0056C25.9491 44.0056 25.9464 44.0056 25.9436 44.0083C25.7143 44.0667 25.474 44.1196 25.227 44.1739C25.2242 44.1739 25.2202 44.1752 25.2161 44.1766C25.1319 44.1956 25.0451 44.216 24.9609 44.235C24.6324 44.3083 24.2985 44.3856 23.9524 44.4861C23.951 44.4861 23.9497 44.4861 23.9483 44.4874C23.5276 44.6123 23.0742 44.7738 22.6195 45.0792C22.5923 45.0969 22.5652 45.1145 22.5367 45.1335C22.4145 45.2218 22.2951 45.329 22.1838 45.4457C22.0901 45.5448 22.0019 45.6507 21.9259 45.7606C21.9055 45.7905 21.8879 45.8217 21.8689 45.8529C21.744 46.0606 21.6463 46.2995 21.5784 46.571C21.5607 46.6606 21.5309 46.8262 21.5187 46.97L21.5078 47.27L21.516 47.3854L21.5268 47.5347C21.539 47.6229 21.5553 47.7111 21.573 47.798C21.611 47.9677 21.6558 48.0776 21.7277 48.2378C21.9652 48.7264 22.3344 49.0441 22.6629 49.2694C23.0294 48.9911 23.4203 48.7672 23.8085 48.5676C23.6837 48.4984 23.5615 48.4278 23.4502 48.3532C23.2642 48.2269 22.9344 47.9731 22.8244 47.6677C22.8244 47.6636 22.8149 47.6392 22.8149 47.6365C22.8095 47.6202 22.8027 47.5985 22.7946 47.57C22.7783 47.5157 22.7729 47.4546 22.7674 47.384C22.7674 47.3637 22.7647 47.3474 22.762 47.3243C22.762 47.3148 22.7606 47.3039 22.7606 47.2931C22.7606 47.2768 22.7593 47.2591 22.7593 47.2429C22.7593 47.2388 22.7593 47.2347 22.7593 47.2306V47.1926C22.7606 47.1533 22.7661 47.1112 22.7769 47.0678C22.7824 47.0148 22.7905 46.9741 22.7987 46.9347L22.8068 46.9008C22.8109 46.8737 22.8177 46.8452 22.8272 46.8194C22.9072 46.5845 23.0063 46.4366 23.1814 46.2886C23.2194 46.2574 23.2547 46.2262 23.2995 46.1936C23.4475 46.0945 23.6361 46.005 23.8492 45.9262C23.8818 45.914 23.9158 45.9032 23.9497 45.8923C24.0691 45.8502 24.194 45.8109 24.3284 45.7769C24.5266 45.7226 24.741 45.6765 24.9609 45.6317C25.0994 45.6045 25.2378 45.5774 25.3831 45.5502C25.5704 45.5149 25.7618 45.4783 25.9545 45.4389C26.2938 45.3697 26.6427 45.2896 27.0132 45.1783C27.1069 45.1485 27.2046 45.1145 27.3051 45.0779C27.4761 45.0154 27.6526 44.9394 27.8317 44.8458C27.9797 44.7684 28.129 44.6775 28.2756 44.5689C28.3502 44.5146 28.4249 44.4562 28.4982 44.3924L28.6706 44.2255C28.733 44.1576 28.7941 44.0802 28.8511 44.0042C28.9054 43.935 28.9258 43.9038 28.9434 43.8739L29.0805 43.6459C29.2244 43.3744 29.3316 43.1111 29.4103 42.8382C29.5257 42.4378 29.5488 41.9872 29.4877 41.5705C29.4578 41.3669 29.4103 41.1687 29.3384 40.9909L29.3343 40.995Z" fill="white"/>
<path id="Vector_27" d="M28.8463 55.9937C28.8463 55.9937 28.8422 55.9937 28.8408 55.9937C28.8408 55.9937 28.8313 55.9937 28.8259 55.9937C28.7227 55.9869 28.4934 55.9639 28.1866 55.9204C27.9681 55.8879 27.7115 55.8485 27.421 55.7928C27.2229 55.7548 27.0098 55.7087 26.7831 55.653C26.6419 55.6191 26.4967 55.5811 26.346 55.539C26.2795 55.52 26.2076 55.4983 26.137 55.4779C26.0759 55.4589 26.0121 55.4386 25.9483 55.4182C25.6293 55.3164 25.2914 55.1929 24.9561 55.0381C24.7633 54.9486 24.5706 54.8495 24.3846 54.7368C24.2326 54.6445 24.0847 54.5427 23.9435 54.4328C23.9245 54.4178 23.9041 54.4043 23.8851 54.3893C23.8648 54.3744 23.8444 54.3595 23.8254 54.3432C23.3951 53.9889 23.106 53.5437 23.0151 53.0917C23.0124 53.0808 23.011 53.0686 23.0096 53.0578C22.9947 53.0143 22.9866 52.9709 22.9852 52.9261L22.973 52.6791C22.9662 52.6153 22.9703 52.5488 22.9825 52.4877C22.9866 52.3995 23.0015 52.3262 23.0124 52.2705C23.0626 52.0004 23.1644 51.7561 23.3232 51.5335C23.4467 51.3543 23.6272 51.1778 23.8593 51.0068C23.8851 50.9864 23.9164 50.9674 23.9435 50.9484C24.0725 50.8575 24.2123 50.7666 24.3711 50.6783C24.5312 50.5901 24.705 50.5019 24.8936 50.4177C24.914 50.4082 24.9357 50.4001 24.9561 50.3892C25.1475 50.2996 25.3511 50.2141 25.5669 50.1232C25.6931 50.0702 25.8207 50.0159 25.9497 49.9603C26.0555 49.9128 26.1641 49.8666 26.2727 49.8164C26.4397 49.739 26.6093 49.6522 26.7858 49.5572C26.8971 49.4961 27.0098 49.4336 27.1251 49.3631C27.1672 49.3359 27.2093 49.3074 27.2541 49.2775C27.5785 49.0549 27.9531 48.7346 28.1961 48.2297C28.2585 48.0899 28.3047 47.9758 28.344 47.8062C28.3644 47.7179 28.3793 47.6311 28.3915 47.5428L28.4011 47.3935L28.4092 47.2782L28.397 46.9633C28.3875 46.837 28.3576 46.6796 28.3332 46.5588C28.2721 46.3077 28.1744 46.0701 28.0468 45.8611C27.7807 45.9832 27.5256 46.0742 27.303 46.1448C27.1089 46.2045 26.9202 46.2534 26.7356 46.2995C26.9147 46.4515 27.0138 46.5995 27.0912 46.8302C27.0993 46.856 27.1061 46.8832 27.1102 46.9117L27.117 46.947C27.1265 46.9877 27.1346 47.0311 27.1401 47.08C27.1564 47.1397 27.1577 47.1926 27.1577 47.2374V47.2429C27.1577 47.2564 27.1577 47.2673 27.1577 47.2782C27.1577 47.2931 27.1564 47.308 27.1536 47.3216L27.1496 47.3949L27.1469 47.4736C27.1414 47.5469 27.1238 47.6148 27.0926 47.6759C26.9826 47.984 26.6514 48.2378 26.4641 48.364C26.3542 48.4373 26.2334 48.5079 26.1071 48.5785C26.0555 48.607 26.0012 48.6342 25.9483 48.6613C25.8194 48.7292 25.6877 48.7943 25.5493 48.8595C25.4094 48.926 25.2683 48.9911 25.123 49.0577C25.0674 49.0821 25.0104 49.1106 24.9547 49.1364C24.7701 49.2205 24.5842 49.306 24.3969 49.3983C24.2489 49.473 24.0955 49.5544 23.9421 49.64C23.8403 49.697 23.7399 49.754 23.6408 49.8164C23.4806 49.9155 23.3245 50.0268 23.1725 50.149C23.0368 50.2589 22.9051 50.3784 22.7802 50.51C22.6581 50.6403 22.5386 50.7801 22.4314 50.9362C22.1993 51.281 22.0378 51.7018 21.9794 52.1185C21.9672 52.2013 21.9496 52.3099 21.9496 52.4022L21.9414 52.6451L21.9618 52.9695C21.9781 53.0863 21.9998 53.203 22.0228 53.3184C22.1613 53.9061 22.4708 54.3649 22.7911 54.7042C22.9336 54.8563 23.0775 54.9866 23.2092 55.0897C23.2173 55.0965 23.2268 55.1033 23.2363 55.1114C23.4168 55.2526 23.5974 55.3734 23.7738 55.4793C23.8308 55.5132 23.8865 55.5444 23.9421 55.5743C24.2258 55.7318 24.4987 55.8539 24.7457 55.9571C24.8149 55.9842 24.8855 56.01 24.9534 56.0358C25.1868 56.124 25.4271 56.2041 25.6809 56.2788C25.7664 56.3032 25.8574 56.3276 25.947 56.3507C26.0053 56.367 26.0583 56.3833 26.118 56.3969C26.2225 56.4227 26.3229 56.4471 26.422 56.4688C27.0858 56.6195 27.6314 56.6955 28.0834 56.7471C28.3115 56.7701 28.492 56.7864 28.6142 56.7986L28.8232 56.8109C29.039 56.8109 29.2168 56.6425 29.229 56.4267C29.2426 56.2028 29.0702 56.01 28.8449 55.9964L28.8463 55.9937Z" fill="white"/>
<path id="Vector_28" d="M30.8766 33.9275C30.8711 33.8529 30.8603 33.7619 30.8481 33.6723C30.8399 33.618 30.8263 33.5624 30.8155 33.5067C30.7558 33.2434 30.658 32.976 30.5237 32.7303C30.4436 32.5837 30.3526 32.4453 30.2535 32.3123C29.4269 32.5118 28.6084 32.6475 27.813 32.7615C28.2433 32.9733 28.5582 33.223 28.7605 33.5067C28.8338 33.6099 28.8962 33.7158 28.9383 33.8271C29.0441 34.1053 29.1052 34.5532 28.7957 35.1016C28.4347 35.7396 27.7709 36.3327 26.8208 36.8635C26.6403 36.9639 26.4665 37.0548 26.2969 37.1376C26.1801 37.196 26.0647 37.249 25.9507 37.3005C25.8557 37.344 25.7607 37.3847 25.667 37.4227C25.6548 37.4281 25.644 37.4336 25.6331 37.4376C25.4132 37.534 25.192 37.6127 24.9585 37.6955C24.9476 37.701 24.9368 37.7037 24.9259 37.7091C24.7427 37.7729 24.5432 37.8448 24.3097 37.9358C24.1902 37.9846 24.0667 38.0349 23.9446 38.0878C23.5672 38.2507 23.1804 38.4366 22.7962 38.662C22.6293 38.7597 22.4637 38.8628 22.2981 38.9782C22.1501 39.0814 22.0022 39.194 21.8556 39.3148C21.7674 39.3868 21.6805 39.4587 21.595 39.5374C21.1104 39.9867 20.7779 40.4618 20.5824 40.9844C20.5105 41.1663 20.4616 41.3672 20.4304 41.5735C20.3707 41.9929 20.3937 42.4408 20.5077 42.8385C20.5865 43.1154 20.6937 43.3801 20.8376 43.6475L20.8987 43.7588C20.8987 43.7588 20.9068 43.771 20.9068 43.7724L20.976 43.881C20.995 43.9095 21.014 43.9407 21.0656 44.0072C21.124 44.0819 21.1864 44.162 21.2489 44.2298L21.4389 44.4131C21.5054 44.4714 21.5733 44.5244 21.6425 44.576C21.7429 44.485 21.8461 44.3981 21.9533 44.3208C22.3388 44.0452 22.7243 43.8606 23.084 43.7222C22.5139 43.4534 22.1162 42.9811 22.0035 42.4205C21.9452 42.1341 21.971 41.8477 22.0646 41.5735C22.1732 41.2572 22.3755 40.9586 22.6687 40.7048C22.9469 40.4632 23.27 40.2555 23.5998 40.0736C23.7152 40.0112 23.8305 39.9528 23.9459 39.8972C24.0436 39.8496 24.14 39.8048 24.235 39.7628C24.4739 39.6583 24.702 39.5673 24.9042 39.4967C24.9205 39.4899 24.9422 39.4832 24.9585 39.4764C25.0861 39.4316 25.2368 39.3814 25.4037 39.3257C25.5788 39.2701 25.7661 39.2063 25.9521 39.1397C26.0566 39.1031 26.1625 39.0664 26.2629 39.0257C26.5439 38.9199 26.8317 38.7977 27.1208 38.6606C27.2972 38.5778 27.4737 38.4909 27.6529 38.3973C27.6583 38.3946 27.6637 38.3918 27.6705 38.3891C27.8225 38.3063 27.9773 38.214 28.1347 38.119C28.8297 37.6996 29.5627 37.1512 30.1504 36.3287C30.3255 36.0789 30.4734 35.8169 30.5861 35.5536C30.5902 35.5455 30.5942 35.5373 30.5983 35.5292C30.6363 35.4518 30.6689 35.3514 30.7042 35.2414C30.7191 35.1939 30.734 35.1464 30.7503 35.0989C30.7897 34.9808 30.8263 34.7636 30.8549 34.5899C30.8657 34.5261 30.8671 34.503 30.8684 34.48C30.8684 34.4555 30.8711 34.4297 30.8739 34.3958L30.8901 34.1474C30.8888 34.1379 30.8888 34.1284 30.8888 34.1189L30.882 33.9234L30.8766 33.9275Z" fill="white"/>
<path id="Vector_29" d="M20.0298 30.5882C20.5022 30.2529 21.0152 29.9801 21.6437 29.729C21.7794 29.676 21.9206 29.6312 22.0618 29.5837C20.5619 29.3055 19.3701 28.9485 18.515 28.5209C18.3847 28.4558 18.2598 28.3852 18.1431 28.3146C17.7576 28.0798 17.459 27.8192 17.3137 27.5857C17.2676 27.5138 17.2187 27.4337 17.1834 27.34C17.1617 27.2979 17.1454 27.2504 17.1373 27.2029C17.1264 27.1405 17.1278 27.0903 17.1291 27.0387C17.1291 27.036 17.1291 27.0075 17.1291 27.0047L17.1319 26.8989C17.1319 26.8704 17.1319 26.8446 17.1332 26.8188C17.1332 26.8134 17.1332 26.8066 17.1332 26.8011V26.7781C17.1414 26.7116 17.1563 26.6546 17.1766 26.603C17.2024 26.489 17.2418 26.3668 17.3002 26.2704C17.3083 26.2555 17.3192 26.2406 17.33 26.2256C17.3898 26.1442 17.4535 26.0885 17.5336 26.0451C17.7033 25.946 17.9626 25.8971 18.1499 25.8863C18.2164 25.8809 18.2924 25.8781 18.3698 25.8781C18.5231 25.8781 18.6765 25.8904 18.8231 25.9067C19.6212 26.9382 21.0872 27.1785 21.5813 27.2409C22.1581 27.3129 24.2457 26.5568 22.7337 24.4326C21.7821 23.0956 20.4044 23.2272 19.5127 23.5096C19.4366 23.4987 19.3593 23.4878 19.2751 23.477C18.9453 23.4403 18.3996 23.4078 17.8784 23.4648C17.3558 23.5272 16.6595 23.6711 15.9781 24.2127C15.6537 24.4719 15.3687 24.8248 15.1773 25.2063C15.0035 25.5551 14.8881 25.9419 14.8257 26.3885L14.7891 26.8093L14.8162 27.3522C14.8284 27.454 14.8461 27.6061 14.8637 27.6658C14.8691 27.6807 14.8732 27.6956 14.8759 27.7106C14.918 27.9087 14.99 28.1137 15.0836 28.3146C15.1908 28.5467 15.3252 28.7775 15.4881 28.9906C16.0921 29.7765 16.8346 30.2027 17.5499 30.5461C18.1282 30.8094 18.7213 31.0171 19.3199 31.1854C19.5317 30.9764 19.7678 30.7768 20.0312 30.5882H20.0298Z" fill="white"/>
</g>
</g>
</g>
</g>
</svg>
