<svg width="232" height="38" viewBox="0 0 232 38" fill="none" xmlns="http://www.w3.org/2000/svg">
<rect width="232" height="38" rx="19" fill="#322970"/>
<rect x="6" y="6" width="26" height="26" rx="13" fill="#2A2163"/>
<path d="M11.623 18.2813L17.0091 18.2824L20.2842 18.283V15.0352L11.623 18.2813Z" fill="#FF9D28"/>
<path d="M20.2861 15.0336V26.5L24.3767 13.5L20.2861 15.0336Z" fill="#68C5ED"/>
<path d="M20.2858 18.2799L17.0107 18.2793L20.2858 26.4984V18.2799Z" fill="#044D80"/>
<path d="M11.623 18.2793L17.849 20.3893L17.0091 18.2804L11.623 18.2793Z" fill="#E54747"/>
<rect x="36" y="6" width="26" height="26" rx="13" fill="#2A2163"/>
<path d="M57.4265 19.1844L52.8593 14.6173C52.7108 14.4687 52.488 14.4687 52.3395 14.6173L51.4483 15.5084L55.1243 19.1844C55.2728 19.3329 55.2728 19.5557 55.1614 19.7043C55.1614 19.7043 55.1614 19.7043 55.1243 19.7414L51.3369 23.4917L52.2281 24.3828C52.3766 24.5313 52.5994 24.5313 52.7479 24.4199C52.7479 24.4199 52.7479 24.4199 52.785 24.3828L57.4636 19.7043C57.575 19.5929 57.575 19.3329 57.4265 19.1844Z" fill="#2CB5B4"/>
<path d="M49.6641 14.9507L49.33 14.6165C49.1814 14.468 48.9586 14.468 48.8101 14.5794C48.8101 14.5794 48.8101 14.5794 48.773 14.6165L47.8818 15.5077L48.4759 16.1018L49.627 17.2529L50.7781 16.1018L49.6641 14.9507Z" fill="#8CBF44"/>
<path d="M49.5538 21.709L48.4027 22.8601L47.8086 23.4542L48.6997 24.3453C48.8483 24.4938 49.0711 24.4938 49.2196 24.3453L49.5538 24.0111L50.7048 22.8601L49.5538 21.709Z" fill="#8CBF44"/>
<path d="M51.5583 19.1874C51.7068 19.3359 51.7068 19.5958 51.5583 19.7443L49.5532 21.7123L50.7043 22.8634L53.8605 19.7072C54.009 19.5587 54.009 19.2988 53.8605 19.1502L50.8157 16.1055L49.6646 17.2565L51.5583 19.1874Z" fill="#B8CE2C"/>
<path d="M44.0954 19.2958L47.2887 16.1025L46.1005 14.9143L45.8035 14.6173C45.6549 14.4687 45.395 14.4687 45.2465 14.6173L40.5679 19.2958C40.4194 19.4443 40.4194 19.6671 40.5679 19.8157L45.1351 24.3828C45.2836 24.5313 45.5064 24.5313 45.6549 24.3828L45.9891 24.0486L47.1402 22.8976L44.0954 19.8528C43.9098 19.7414 43.8355 19.5557 43.984 19.3701C44.0212 19.2958 44.0583 19.2958 44.0954 19.2958Z" fill="#87EFEF"/>
<path d="M47.6613 19.2988L49.0723 17.8878L47.8841 16.7367L47.29 16.1055L44.1339 19.2616C43.9853 19.4102 43.9853 19.633 44.1339 19.7815L47.1786 22.8263L47.7727 22.2322L48.9238 21.0811L47.6613 19.8186C47.5128 19.7072 47.5128 19.4473 47.6613 19.2988Z" fill="#8CBF44"/>
<path d="M47.6592 19.8137L48.9588 21.1133L50.3698 19.7023C50.5184 19.5537 50.5184 19.2938 50.3698 19.1453L49.0702 17.8457L47.6592 19.2938C47.5107 19.4424 47.5107 19.6651 47.6592 19.8137Z" fill="#B8CE2C"/>
<path d="M49.6641 14.9507L49.33 14.6165C49.1814 14.468 48.9586 14.468 48.8101 14.5794C48.8101 14.5794 48.8101 14.5794 48.773 14.6165L47.8818 15.5077L48.4759 16.1018L49.627 17.2529L50.7781 16.1018L49.6641 14.9507Z" fill="#41E3E2"/>
<path d="M49.5538 21.709L48.4027 22.8601L47.8086 23.4542L48.6997 24.3453C48.8483 24.4938 49.0711 24.4938 49.2196 24.3453L49.5538 24.0111L50.7048 22.8601L49.5538 21.709Z" fill="#41E3E2"/>
<path d="M51.5583 19.1874C51.7068 19.3359 51.7068 19.5958 51.5583 19.7443L49.5532 21.7123L50.7043 22.8634L53.8605 19.7072C54.009 19.5587 54.009 19.2988 53.8605 19.1502L50.8157 16.1055L49.6646 17.2565L51.5583 19.1874Z" fill="#4FBCC1"/>
<path d="M44.0954 19.2958L47.2887 16.1025L46.1005 14.9143L45.8035 14.6173C45.6549 14.4687 45.395 14.4687 45.2465 14.6173L40.5679 19.2958C40.4194 19.4443 40.4194 19.6671 40.5679 19.8157L45.1351 24.3828C45.2836 24.5313 45.5064 24.5313 45.6549 24.3828L45.9891 24.0486L47.1402 22.8976L44.0954 19.8528C43.9098 19.7414 43.8355 19.5557 43.984 19.3701C44.0212 19.2958 44.0583 19.2958 44.0954 19.2958Z" fill="#87EFEF"/>
<path d="M47.6613 19.2988L49.0723 17.8878L47.8841 16.7367L47.29 16.1055L44.1339 19.2616C43.9853 19.4102 43.9853 19.633 44.1339 19.7815L47.1786 22.8263L47.7727 22.2322L48.9238 21.0811L47.6613 19.8186C47.5128 19.7072 47.5128 19.4473 47.6613 19.2988Z" fill="#41E3E2"/>
<path d="M47.6592 19.8137L48.9588 21.1133L50.3698 19.7023C50.5184 19.5537 50.5184 19.2938 50.3698 19.1453L49.0702 17.8457L47.6592 19.2938C47.5107 19.4424 47.5107 19.6651 47.6592 19.8137Z" fill="#4FBCC1"/>
<rect x="66" y="6" width="26" height="26" rx="13" fill="#2A2163"/>
<path d="M79.2153 25C76.5424 24.9928 74.2134 23.3043 73.4536 20.7859C72.8191 18.6756 73.2305 16.7468 74.6576 15.0612C75.535 14.0253 76.6664 13.3904 77.9964 13.1187C78.7404 12.9669 79.5068 12.9607 80.2532 13.1002C80.3366 13.1154 80.3374 13.1379 80.3049 13.2054C79.9378 13.9695 79.5725 14.7347 79.2089 15.501C79.1999 15.525 79.1831 15.5453 79.1614 15.5587C79.1396 15.5722 79.1139 15.578 79.0885 15.5753C78.3237 15.5948 77.5874 15.8696 76.9968 16.3558C76.4062 16.8421 75.9952 17.5119 75.8292 18.2587C75.4627 19.8909 76.3457 21.5794 77.9037 22.1778C79.1402 22.6525 80.2909 22.4635 81.3376 21.652C81.391 21.6119 81.413 21.6038 81.4512 21.6701C81.8525 22.3724 82.2573 23.0734 82.6656 23.7731C82.7014 23.8345 82.6885 23.8622 82.6355 23.8991C81.8471 24.4569 80.9351 24.815 79.9778 24.9426C79.7249 24.9752 79.4703 24.9944 79.2153 25Z" fill="#EF492D"/>
<path d="M83.3662 23.263C83.3333 23.2453 83.324 23.2092 83.3072 23.1799C82.8507 22.3906 82.3959 21.6005 81.9426 20.8096C81.9272 20.7772 81.9021 20.7504 81.8707 20.733C81.8393 20.7155 81.8033 20.7084 81.7676 20.7124C80.8614 20.7152 79.9556 20.7124 79.0493 20.7124H78.9366C78.9358 20.6776 78.9484 20.6438 78.9719 20.6181C79.4321 19.8186 79.8926 19.0192 80.3533 18.2197C80.3655 18.1933 80.3857 18.1713 80.4111 18.1569C80.4364 18.1425 80.4656 18.1364 80.4946 18.1394C81.4222 18.1418 82.3496 18.1418 83.2767 18.1394C83.3055 18.1364 83.3345 18.1426 83.3597 18.157C83.3848 18.1714 83.4048 18.1933 83.4167 18.2197C83.8794 19.0259 84.3441 19.831 84.811 20.635C84.8266 20.6556 84.8354 20.6805 84.8361 20.7064C84.8368 20.7322 84.8294 20.7576 84.815 20.7791C84.346 21.589 83.8787 22.3981 83.4131 23.2064C83.4007 23.2268 83.3951 23.2549 83.3662 23.263Z" fill="#EF492D"/>
<path d="M81.413 14.773C81.2468 14.6068 81.0919 14.4479 80.9314 14.2914C80.8816 14.2432 80.9165 14.2075 80.9378 14.171C81.1215 13.8511 81.4206 13.6136 81.7738 13.5072C81.9878 13.4365 82.2143 13.4115 82.4386 13.4336C82.6628 13.4557 82.88 13.5245 83.0761 13.6356C83.7986 14.0261 83.7339 14.9319 83.3169 15.3413C83.1589 15.4935 82.9798 15.6223 82.7852 15.7238C82.5845 15.8305 82.3838 15.9313 82.1872 16.0448C82.0238 16.1384 81.8966 16.2676 81.8376 16.4546C81.8135 16.5301 81.828 16.5497 81.9086 16.5489C82.4392 16.5457 82.9702 16.5489 83.5012 16.5457C83.5814 16.5457 83.6115 16.561 83.6083 16.6485C83.6011 16.8359 83.6039 17.0237 83.6083 17.2103C83.6083 17.2697 83.5919 17.2906 83.5309 17.2906C82.6776 17.289 81.8246 17.289 80.9719 17.2906C80.9318 17.2906 80.8944 17.2906 80.894 17.2324C80.894 16.6416 81.0032 16.0914 81.4656 15.67C81.6858 15.475 81.933 15.3127 82.1996 15.1884C82.3457 15.1169 82.4934 15.0487 82.621 14.9452C82.7326 14.8545 82.8097 14.7445 82.8177 14.596C82.8297 14.3636 82.6459 14.191 82.3682 14.173C81.9688 14.1445 81.6807 14.3243 81.4792 14.6582C81.4591 14.6911 81.4407 14.7248 81.413 14.773Z" fill="#EF492D"/>
<path d="M83.4499 24.1023V23.9093H83.3809V23.8691H83.5659V23.9093H83.496V24.1023H83.4499ZM83.5956 24.1023V23.8699H83.6658L83.7059 24.0285L83.7461 23.8699H83.8167V24.1023H83.777V23.9193L83.7308 24.1023H83.6855L83.6397 23.9193V24.1023H83.5956Z" fill="#EF492D"/>
<rect x="96" y="6" width="26" height="26" rx="13" fill="#2A2163"/>
<path d="M107.652 12.3614C108.486 11.8795 109.514 11.8795 110.349 12.3614L114.075 14.5128C114.91 14.9946 115.424 15.885 115.424 16.8486V21.1514C115.424 22.115 114.91 23.0054 114.075 23.4872L110.349 25.6386C109.514 26.1205 108.486 26.1205 107.652 25.6386L103.925 23.4872C103.091 23.0054 102.577 22.115 102.577 21.1514V16.8486C102.577 15.885 103.091 14.9946 103.925 14.5128L107.652 12.3614Z" fill="url(#paint0_linear_15862_12859)"/>
<path d="M112.435 20.8243C111.918 20.5202 111.257 20.1333 110.74 19.8293C110.673 19.7834 110.594 19.7588 110.512 19.7588C110.431 19.7588 110.352 19.7834 110.284 19.8293L109.213 20.4611C109.179 20.487 109.138 20.5043 109.096 20.5118C109.054 20.5193 109.01 20.5168 108.969 20.5044L107.833 19.8682C107.766 19.838 107.71 19.7874 107.674 19.7238C107.638 19.6601 107.622 19.5866 107.63 19.5137V18.3299C107.624 18.2705 107.638 18.2106 107.669 18.1595C107.7 18.1085 107.747 18.0689 107.802 18.0468L108.879 17.4193C108.953 17.3851 109.015 17.3288 109.056 17.2581C109.096 17.1874 109.114 17.1058 109.107 17.0244L109.102 15.0402C109.102 14.8118 109 14.752 108.808 14.8622C108.286 15.1663 106.184 16.3753 105.683 16.6635C105.622 16.6937 105.569 16.7388 105.53 16.7946C105.492 16.8503 105.467 16.915 105.46 16.9826C105.46 16.9927 105.455 17.0028 105.455 17.0129V17.0741C105.46 18.1832 105.46 19.2923 105.455 20.4013V20.7457C105.45 20.8268 105.469 20.9075 105.509 20.9778C105.55 21.0482 105.61 21.105 105.683 21.1413C106.742 21.7487 107.795 22.3618 108.853 22.9742C108.904 23.0087 108.963 23.0316 109.024 23.0413C109.085 23.051 109.148 23.0473 109.207 23.0304C109.252 23.0176 109.295 22.9987 109.334 22.9742C109.838 22.681 110.337 22.3978 110.838 22.1031C110.856 22.0942 110.873 22.0841 110.889 22.0729C111.41 21.7739 111.927 21.4706 112.449 21.1715C112.633 21.057 112.633 20.9403 112.435 20.8243Z" fill="white"/>
<rect x="126" y="6" width="26" height="26" rx="13" fill="#2A2163"/>
<path d="M134.562 24C133.51 24 132.047 23.7523 131.075 22.5526C130.303 21.5877 130.25 20.5054 130.25 20.2055C130.25 19.1624 130.649 18.2496 131.434 17.4672L131.448 17.4542C132.672 16.3067 134.242 16.5414 135.267 16.9848C135.413 16.1894 135.879 14.9636 137.317 14.3508C138.874 13.6988 140.005 14.077 140.697 14.5073C141.429 14.9767 141.788 15.6026 141.801 15.6287C141.921 15.8503 141.841 16.1242 141.628 16.2546C141.402 16.3719 141.123 16.2937 140.99 16.085C140.99 16.085 140.71 15.6026 140.151 15.2636C139.446 14.8332 138.607 14.8072 137.676 15.1984C136.052 15.8894 136.119 17.6889 136.119 17.715L136.159 18.6277L135.387 18.1062C135.387 18.1062 134.868 17.7671 134.202 17.6107C133.364 17.4281 132.659 17.5976 132.087 18.1192C131.474 18.719 131.182 19.3971 131.182 20.2055C131.182 20.688 131.341 21.4051 131.82 21.9919C132.406 22.7221 133.337 23.1003 134.562 23.1003C136.917 23.1003 137.822 21.5095 138.621 20.0882C138.701 19.9578 138.767 19.8274 138.847 19.697C139.752 18.1453 140.856 16.6327 143.505 16.6066C146.26 16.6066 147.75 18.5104 147.75 20.2968C147.75 23.0481 145.301 23.9348 144.104 23.9348C143.012 23.9348 141.948 23.2307 141.908 23.2046C141.695 23.0612 141.642 22.7743 141.788 22.5657C141.934 22.357 142.227 22.3049 142.44 22.4483C142.453 22.4483 143.318 23.022 144.117 23.022C144.689 23.022 146.832 22.5657 146.832 20.2968C146.832 19.5796 146.526 18.9016 145.98 18.393C145.368 17.8193 144.516 17.5194 143.531 17.5194C141.375 17.5455 140.51 18.719 139.685 20.1403C139.619 20.2577 139.539 20.3881 139.472 20.5185C138.594 21.9919 137.463 24 134.562 24Z" fill="white"/>
<path d="M158.912 24L159.725 20.4875L157 18.125L160.6 17.8125L162 14.5L163.4 17.8125L167 18.125L164.275 20.4875L165.087 24L162 22.1375L158.912 24Z" fill="#FFB83C"/>
<path d="M173.584 19.964H175.588V18.236C175.588 18.012 175.596 17.748 175.612 17.444C175.628 17.14 175.64 16.876 175.648 16.652H175.6C175.504 16.852 175.404 17.048 175.3 17.24C175.196 17.432 175.088 17.632 174.976 17.84L173.584 19.964ZM175.588 23V21.032H172.216V20.096L175.24 15.368H176.884V19.964H177.844V21.032H176.884V23H175.588ZM179.808 23.144C179.56 23.144 179.348 23.056 179.172 22.88C178.996 22.704 178.908 22.48 178.908 22.208C178.908 21.936 178.996 21.712 179.172 21.536C179.348 21.36 179.56 21.272 179.808 21.272C180.064 21.272 180.276 21.36 180.444 21.536C180.612 21.712 180.696 21.936 180.696 22.208C180.696 22.48 180.612 22.704 180.444 22.88C180.276 23.056 180.064 23.144 179.808 23.144ZM183.473 23C183.521 22.096 183.617 21.288 183.761 20.576C183.905 19.856 184.125 19.172 184.421 18.524C184.717 17.876 185.109 17.212 185.597 16.532H181.985V15.368H187.109V16.208C186.661 16.76 186.297 17.288 186.017 17.792C185.745 18.296 185.529 18.808 185.369 19.328C185.217 19.84 185.105 20.396 185.033 20.996C184.961 21.588 184.909 22.256 184.877 23H183.473ZM187.753 24.92L190.549 14.48H191.485L188.689 24.92H187.753ZM194.626 23.144C194.01 23.144 193.49 23.04 193.066 22.832C192.65 22.616 192.302 22.368 192.022 22.088L192.658 21.2C192.89 21.416 193.15 21.608 193.438 21.776C193.726 21.936 194.062 22.016 194.446 22.016C194.87 22.016 195.222 21.888 195.502 21.632C195.782 21.376 195.922 21.016 195.922 20.552C195.922 20.096 195.794 19.744 195.538 19.496C195.282 19.248 194.942 19.124 194.518 19.124C194.27 19.124 194.062 19.16 193.894 19.232C193.726 19.296 193.526 19.404 193.294 19.556L192.634 19.136L192.862 15.368H196.942V16.532H194.062L193.906 18.38C194.066 18.3 194.222 18.24 194.374 18.2C194.534 18.152 194.714 18.128 194.914 18.128C195.354 18.128 195.754 18.212 196.114 18.38C196.474 18.548 196.762 18.808 196.978 19.16C197.202 19.512 197.314 19.964 197.314 20.516C197.314 21.068 197.186 21.54 196.93 21.932C196.682 22.324 196.354 22.624 195.946 22.832C195.538 23.04 195.098 23.144 194.626 23.144ZM202.593 23.144C202.081 23.144 201.661 22.984 201.333 22.664C201.013 22.344 200.853 21.928 200.853 21.416C200.853 20.784 201.129 20.296 201.681 19.952C202.233 19.6 203.113 19.36 204.321 19.232C204.313 18.92 204.229 18.652 204.069 18.428C203.917 18.196 203.641 18.08 203.241 18.08C202.953 18.08 202.669 18.136 202.389 18.248C202.117 18.36 201.849 18.496 201.585 18.656L201.081 17.732C201.409 17.524 201.777 17.344 202.185 17.192C202.601 17.04 203.041 16.964 203.505 16.964C204.241 16.964 204.789 17.184 205.149 17.624C205.517 18.056 205.701 18.684 205.701 19.508V23H204.561L204.465 22.352H204.417C204.153 22.576 203.869 22.764 203.565 22.916C203.269 23.068 202.945 23.144 202.593 23.144ZM203.037 22.064C203.277 22.064 203.493 22.008 203.685 21.896C203.885 21.776 204.097 21.616 204.321 21.416V20.096C203.521 20.2 202.965 20.356 202.653 20.564C202.341 20.764 202.185 21.012 202.185 21.308C202.185 21.572 202.265 21.764 202.425 21.884C202.585 22.004 202.789 22.064 203.037 22.064ZM208.673 23L206.621 17.108H208.025L208.961 20.168C209.041 20.456 209.121 20.748 209.201 21.044C209.289 21.34 209.373 21.64 209.453 21.944H209.501C209.589 21.64 209.673 21.34 209.753 21.044C209.841 20.748 209.925 20.456 210.005 20.168L210.941 17.108H212.273L210.269 23H208.673ZM215.346 25.604C214.882 25.604 214.462 25.548 214.086 25.436C213.718 25.324 213.426 25.152 213.21 24.92C213.002 24.696 212.898 24.412 212.898 24.068C212.898 23.58 213.178 23.16 213.738 22.808V22.76C213.586 22.664 213.458 22.536 213.354 22.376C213.258 22.216 213.21 22.016 213.21 21.776C213.21 21.544 213.274 21.336 213.402 21.152C213.538 20.96 213.69 20.804 213.858 20.684V20.636C213.658 20.484 213.478 20.272 213.318 20C213.166 19.728 213.09 19.42 213.09 19.076C213.09 18.62 213.198 18.236 213.414 17.924C213.63 17.612 213.914 17.376 214.266 17.216C214.626 17.048 215.01 16.964 215.418 16.964C215.578 16.964 215.73 16.98 215.874 17.012C216.026 17.036 216.162 17.068 216.282 17.108H218.394V18.128H217.314C217.41 18.24 217.49 18.384 217.554 18.56C217.618 18.728 217.65 18.916 217.65 19.124C217.65 19.556 217.55 19.924 217.35 20.228C217.15 20.524 216.882 20.748 216.546 20.9C216.21 21.052 215.834 21.128 215.418 21.128C215.29 21.128 215.158 21.116 215.022 21.092C214.886 21.068 214.75 21.028 214.614 20.972C214.526 21.052 214.454 21.132 214.398 21.212C214.35 21.292 214.326 21.4 214.326 21.536C214.326 21.704 214.394 21.836 214.53 21.932C214.674 22.028 214.926 22.076 215.286 22.076H216.33C217.042 22.076 217.578 22.192 217.938 22.424C218.306 22.648 218.49 23.016 218.49 23.528C218.49 23.912 218.362 24.26 218.106 24.572C217.85 24.892 217.486 25.144 217.014 25.328C216.542 25.512 215.986 25.604 215.346 25.604ZM215.418 20.264C215.698 20.264 215.938 20.16 216.138 19.952C216.338 19.744 216.438 19.452 216.438 19.076C216.438 18.708 216.338 18.424 216.138 18.224C215.946 18.016 215.706 17.912 215.418 17.912C215.13 17.912 214.886 18.012 214.686 18.212C214.486 18.412 214.386 18.7 214.386 19.076C214.386 19.452 214.486 19.744 214.686 19.952C214.886 20.16 215.13 20.264 215.418 20.264ZM215.562 24.704C216.034 24.704 216.418 24.608 216.714 24.416C217.01 24.224 217.158 24.004 217.158 23.756C217.158 23.524 217.066 23.368 216.882 23.288C216.706 23.208 216.45 23.168 216.114 23.168H215.31C214.99 23.168 214.722 23.14 214.506 23.084C214.202 23.316 214.05 23.576 214.05 23.864C214.05 24.128 214.186 24.332 214.458 24.476C214.73 24.628 215.098 24.704 215.562 24.704ZM220.308 23.144C220.06 23.144 219.848 23.056 219.672 22.88C219.496 22.704 219.408 22.48 219.408 22.208C219.408 21.936 219.496 21.712 219.672 21.536C219.848 21.36 220.06 21.272 220.308 21.272C220.564 21.272 220.776 21.36 220.944 21.536C221.112 21.712 221.196 21.936 221.196 22.208C221.196 22.48 221.112 22.704 220.944 22.88C220.776 23.056 220.564 23.144 220.308 23.144Z" fill="#A8AFBD"/>
<defs>
<linearGradient id="paint0_linear_15862_12859" x1="112.225" y1="13.5175" x2="105.453" y2="24.4822" gradientUnits="userSpaceOnUse">
<stop stop-color="#1563FC"/>
<stop offset="1" stop-color="#4D5BD2"/>
</linearGradient>
</defs>
</svg>
